<svg width="255" height="345" viewBox="0 0 255 345" fill="none" xmlns="http://www.w3.org/2000/svg">
<path d="M72.0057 275.378C51.8192 290.96 31.8639 306.368 11.9085 321.776C11.7572 321.68 11.6058 321.584 11.4547 321.482C20.8123 297.505 30.1757 273.522 39.6092 249.347C28.5907 239.887 17.644 230.498 6.32605 220.786C13.7455 219.027 20.744 217.354 27.7522 215.704C36.6656 213.605 45.5751 211.479 54.5094 209.492C56.3916 209.07 57.3161 208.184 58.0063 206.357C63.5707 191.551 69.2514 176.789 74.9058 162.016C75.1903 161.269 75.5012 160.535 75.9643 159.392C82.2357 173.387 88.3583 187.046 94.6396 201.058C125.716 193.738 156.772 186.416 187.827 179.1C187.885 179.213 187.943 179.332 187.997 179.445C163.623 199.786 139.256 220.128 114.786 240.552C129.491 274.968 144.144 309.255 158.797 343.542C158.683 343.651 158.563 343.76 158.45 343.863C129.704 321.086 100.953 298.314 72.0057 275.378Z" fill="#EFC6E0" fill-opacity="0.32"/>
<path d="M149.564 101.374C158.741 99.2077 167.544 97.0594 176.39 95.0946C178.278 94.6732 179.274 93.8618 179.948 92.0393C183.119 83.4536 186.424 74.9137 189.921 65.7316C193.659 74.0388 197.172 81.845 200.804 89.9213C218.658 85.7209 236.502 81.5199 254.345 77.3244C254.407 77.4651 254.47 77.6057 254.532 77.7464C240.594 89.3859 226.651 101.025 212.498 112.845C220.941 132.613 229.364 152.347 237.793 172.082C237.657 172.195 237.515 172.313 237.379 172.426C220.824 159.317 204.269 146.202 187.663 133.051C176.124 141.96 164.688 150.781 153.257 159.603C153.084 159.5 152.917 159.398 152.744 159.29C158.092 145.563 163.44 131.842 168.857 117.944C162.553 112.534 156.265 107.135 149.564 101.374Z" fill="#EFC6E0" fill-opacity="0.32"/>
<path d="M148.141 27.7038C152.879 38.8257 157.56 49.7963 162.235 60.7721C162.106 60.8582 161.982 60.9501 161.853 61.0362C152.686 53.7831 143.518 46.53 134.139 39.1059C127.681 44.08 121.262 49.0234 114.251 54.4167C117.485 46.0974 120.467 38.4389 123.519 30.5814C120.017 27.5664 116.546 24.5806 112.709 21.2727C117.869 20.0233 122.612 18.7836 127.402 17.7661C128.857 17.4574 129.513 16.7422 129.995 15.4467C131.693 10.8498 133.466 6.27907 135.401 1.19616C137.568 5.96949 139.527 10.2923 141.559 14.7674C151.535 12.425 161.373 10.119 171.218 7.80774C171.286 7.94869 171.353 8.08963 171.427 8.23087C163.692 14.6922 155.962 21.1594 148.141 27.7038Z" fill="#EFC6E0" fill-opacity="0.32"/>
</svg>
