<svg width="423" height="53" viewBox="0 0 423 53" fill="none" xmlns="http://www.w3.org/2000/svg">
<path d="M417.331 21.9871L416.452 22.9366L420.349 26.5504H301.379L300.699 26.2528C300.004 25.9552 299.353 25.5725 298.786 25.0765C298.19 24.5522 297.694 23.9145 297.312 23.2201L296.107 20.3574L294.888 23.1917C294.832 23.3334 294.761 23.4751 294.676 23.6027C294.577 23.7728 294.449 23.9286 294.322 24.0987C293.556 25.0765 292.508 25.8134 291.36 26.2953L290.722 26.5645H278.223L273.688 25.0624C272.171 24.4105 270.726 23.5743 269.493 22.469C268.189 21.3069 267.098 19.9322 266.248 18.3875L263.612 12.1237L260.948 18.3309C260.82 18.6426 260.678 18.9403 260.494 19.2237C260.267 19.578 260.012 19.9464 259.715 20.3291C258.028 22.469 255.747 24.0845 253.224 25.1332L249.299 26.5645H237.593L228.58 23.6452C226.071 22.5682 223.676 21.1793 221.65 19.3654C219.496 17.4522 217.682 15.1706 216.279 12.6056L211.914 0.361328C210.171 5.19383 208.938 10.5648 206.004 14.8447C200.917 22.2564 193.165 24.1979 185.03 26.5504H136.918V27.9675H186.944L193.037 29.5122C197.757 30.7026 202.688 34.94 205.636 38.7521C207.308 40.9204 208.484 43.287 209.448 45.8237C209.859 46.9291 212.339 51.2231 211.928 52.2576C213.345 48.6155 214.592 44.7325 216.562 41.3313C218.858 37.3774 222.188 34.0188 226.128 31.6946C229.558 29.6823 233.341 28.9595 237.139 27.9534H249.851L252.175 28.6194C255.406 29.5122 258.099 31.808 260.012 34.5006C260.976 35.8611 261.727 37.3491 262.322 38.908C262.535 39.489 263.782 41.9265 263.612 42.3942L265.1 38.582C266.744 34.3872 269.904 30.7168 274.17 28.9312L277.783 27.9675H291.09C292.479 28.5486 293.712 29.4556 294.577 30.6743C294.747 30.9294 294.917 31.1845 295.059 31.4537L296.107 34.1605L296.787 32.4174C297.354 30.9577 298.304 29.6398 299.593 28.7328C299.608 28.7186 299.622 28.7186 299.636 28.7045C300.033 28.421 300.472 28.2085 300.926 28.0101L301.053 27.9534H420.349L416.452 31.5813L417.331 32.5308L422.999 27.259L417.331 21.9871Z" fill="#C9D5EC"/>
<path d="M6.54807 21.9871L7.4267 22.9366L3.52954 26.5504H122.5L123.18 26.2528C123.875 25.9552 124.526 25.5725 125.093 25.0765C125.688 24.5522 126.184 23.9145 126.567 23.2201L127.772 20.3574L128.99 23.1917C129.047 23.3334 129.118 23.4751 129.203 23.6027C129.302 23.7728 129.43 23.9286 129.557 24.0987C130.323 25.0765 131.371 25.8134 132.519 26.2953L133.157 26.5645H145.656L150.191 25.0624C151.707 24.4105 153.153 23.5743 154.386 22.469C155.69 21.3069 156.781 19.9322 157.631 18.3875L160.267 12.1237L162.931 18.3309C163.059 18.6426 163.201 18.9403 163.385 19.2237C163.612 19.578 163.867 19.9464 164.164 20.3291C165.851 22.469 168.132 24.0845 170.655 25.1332L174.58 26.5645H186.286L195.299 23.6452C197.808 22.5682 200.203 21.1793 202.229 19.3654C204.383 17.4522 206.197 15.1706 207.6 12.6056L211.965 0.361328C213.708 5.19383 214.941 10.5648 217.875 14.8447C222.962 22.2564 230.714 24.1979 238.848 26.5504H286.961V27.9675H236.935L230.842 29.5122C226.122 30.7026 221.191 34.94 218.243 38.7521C216.571 40.9204 215.395 43.287 214.431 45.8237C214.02 46.9291 211.54 51.2231 211.951 52.2576C210.534 48.6155 209.287 44.7325 207.317 41.3313C205.021 37.3774 201.691 34.0188 197.751 31.6946C194.321 29.6823 190.538 28.9595 186.74 27.9534H174.028L171.704 28.6194C168.472 29.5122 165.78 31.808 163.867 34.5006C162.903 35.8611 162.152 37.3491 161.557 38.908C161.344 39.489 160.097 41.9265 160.267 42.3942L158.779 38.582C157.135 34.3872 153.975 30.7168 149.709 28.9312L146.096 27.9675H132.788C131.4 28.5486 130.167 29.4556 129.302 30.6743C129.132 30.9294 128.962 31.1845 128.82 31.4537L127.772 34.1605L127.091 32.4174C126.525 30.9577 125.575 29.6398 124.285 28.7328C124.271 28.7186 124.257 28.7186 124.243 28.7045C123.846 28.421 123.407 28.2085 122.953 28.0101L122.826 27.9534H3.52954L7.4267 31.5813L6.54807 32.5308L0.879456 27.259L6.54807 21.9871Z" fill="#C9D5EC"/>
</svg>
