<svg width="623" height="317" viewBox="0 0 623 317" fill="none" xmlns="http://www.w3.org/2000/svg">
<path d="M610.415 226.52C607.304 226.52 604.186 226.419 601.083 226.556C598.591 226.664 597.389 225.915 597.454 223.172C597.511 220.709 598.57 220.083 600.816 220.119C607.038 220.22 613.259 220.198 619.48 220.141C621.655 220.119 622.893 220.724 622.972 223.194C623.059 226.031 621.554 226.563 619.199 226.491C616.276 226.405 613.345 226.47 610.415 226.47C610.415 226.491 610.415 226.506 610.415 226.52Z" fill="#BAE1EF"/>
<path d="M570.791 226.484C567.681 226.484 564.57 226.434 561.459 226.506C559.328 226.556 558.075 226.081 558.003 223.511C557.931 220.724 559.162 220.076 561.618 220.112C567.659 220.206 573.7 220.191 579.734 220.112C582.118 220.083 583.522 220.638 583.522 223.424C583.529 226.398 581.794 226.578 579.569 226.528C576.645 226.463 573.715 226.513 570.784 226.513C570.791 226.499 570.791 226.492 570.791 226.484Z" fill="#BAE1EF"/>
<path d="M593.566 243.24C593.566 246.358 593.494 249.483 593.587 252.594C593.667 255.02 592.543 255.733 590.261 255.719C588.05 255.697 587.431 254.696 587.452 252.694C587.517 246.092 587.539 239.481 587.488 232.879C587.474 230.956 588.353 230.286 590.124 230.236C591.982 230.178 593.458 230.502 593.472 232.785C593.487 236.27 593.479 239.755 593.479 243.24C593.501 243.24 593.53 243.24 593.566 243.24Z" fill="#BAE1EF"/>
<path d="M587.475 203.45C587.475 200.354 587.612 197.25 587.432 194.161C587.288 191.727 588.26 191.007 590.571 191C592.998 190.993 593.639 191.929 593.589 194.276C593.452 200.462 593.524 206.661 593.632 212.854C593.675 215.403 592.703 216.382 590.096 216.368C587.274 216.353 587.41 214.647 587.439 212.739C587.475 209.642 587.446 206.546 587.446 203.45C587.454 203.45 587.468 203.45 587.475 203.45Z" fill="#BAE1EF"/>
<path d="M473.346 12.3717C473.353 15.6623 473.253 18.953 473.382 22.2364C473.483 24.627 472.511 25.4551 470.185 25.4263C467.946 25.3975 467.427 24.267 467.442 22.3228C467.492 15.9288 467.528 9.53467 467.442 3.14778C467.406 0.778797 468.306 -0.0348652 470.66 0.00113753C472.936 0.0371403 473.411 1.11722 473.368 3.06137C473.289 6.15761 473.346 9.26825 473.346 12.3717Z" fill="#F3CDE5"/>
<path d="M450.947 29.6313C454.05 29.6313 457.153 29.6674 460.257 29.6169C462.136 29.5809 463.332 29.941 463.375 32.2812C463.418 34.7005 462.467 35.5358 460.171 35.5142C453.776 35.4566 447.382 35.4278 440.995 35.5358C438.468 35.579 438 34.3981 438 32.1803C438 29.8402 439.174 29.4801 441.082 29.5161C444.365 29.5881 447.656 29.5377 450.947 29.5377C450.947 29.5737 450.947 29.6025 450.947 29.6313Z" fill="#F3CDE5"/>
<path d="M473.356 52.4642C473.363 55.5821 473.269 58.7071 473.392 61.825C473.471 63.9707 472.6 64.7628 470.511 64.7844C468.502 64.806 467.444 64.2083 467.466 61.9978C467.523 55.3877 467.523 48.7848 467.444 42.1747C467.415 39.7913 468.754 39.6113 470.619 39.5609C472.837 39.5105 473.442 40.5257 473.377 42.5563C473.276 45.8541 473.356 49.1592 473.356 52.4642Z" fill="#F3CDE5"/>
<path d="M490.397 35.4997C487.28 35.4997 484.169 35.4565 481.051 35.5141C479.02 35.5501 477.552 35.3557 477.508 32.6627C477.472 30.1785 478.444 29.5017 480.734 29.5377C486.963 29.6385 493.198 29.6385 499.427 29.5449C501.659 29.5089 502.818 30.0849 502.797 32.5907C502.768 35.2405 501.22 35.5141 499.196 35.4925C496.266 35.4565 493.335 35.4853 490.405 35.4853C490.397 35.4853 490.397 35.4925 490.397 35.4997Z" fill="#F3CDE5"/>
<path d="M52.9817 280.292C55.8979 280.285 58.8213 280.4 61.7304 280.249C64.3802 280.112 65.1434 281.228 65.1578 283.784C65.1722 286.412 63.8905 286.736 61.7736 286.708C55.3939 286.636 49.007 286.636 42.6273 286.715C40.3159 286.744 39.4159 285.915 39.4231 283.525C39.4303 281.178 40.2439 280.213 42.5913 280.27C46.0476 280.371 49.5182 280.299 52.9817 280.292Z" fill="#99A0D6"/>
<path d="M29.4878 302.614C29.4878 299.683 29.567 296.752 29.459 293.822C29.3798 291.654 29.8479 290.445 32.4041 290.43C35.0539 290.416 35.9035 291.409 35.8531 293.994C35.7235 300.216 35.7739 306.451 35.8531 312.673C35.8819 314.854 35.3635 316.093 32.8289 316.115C30.1647 316.143 29.315 315.063 29.4518 312.5C29.6175 309.209 29.4878 305.911 29.4878 302.614Z" fill="#99A0D6"/>
<path d="M13.1849 286.693C9.887 286.693 6.58915 286.6 3.2985 286.722C0.951116 286.808 0.0294456 285.908 0.000643443 283.539C-0.0281588 281.178 0.907913 280.227 3.22649 280.249C9.63498 280.306 16.0435 280.335 22.4448 280.249C24.8209 280.22 25.6202 281.17 25.6274 283.51C25.6418 285.822 24.965 286.844 22.5168 286.729C19.4133 286.578 16.2955 286.693 13.1849 286.693Z" fill="#99A0D6"/>
<path d="M35.8319 263.875C35.8319 266.992 35.7239 270.118 35.8679 273.228C35.9903 275.9 34.831 276.706 32.2821 276.699C29.553 276.692 29.4594 275.122 29.4738 273.127C29.5098 266.892 29.5386 260.656 29.4594 254.42C29.4306 252.296 29.7043 251.007 32.3613 251C35.0327 250.993 35.9399 251.958 35.8391 254.521C35.7095 257.632 35.8103 260.757 35.8103 263.875C35.8175 263.875 35.8247 263.875 35.8319 263.875Z" fill="#99A0D6"/>
</svg>
