<svg width="62" height="56" viewBox="0 0 62 56" fill="none" xmlns="http://www.w3.org/2000/svg">
<g clip-path="url(#clip0_83_419)">
<path d="M0 2.50228C11.9548 1.66818 23.7491 0.834092 35.7039 0C35.8875 2.61812 36.0711 5.1204 36.2546 7.8312C27.3516 7.8312 18.5633 7.8312 9.59141 7.8312C9.59141 21.1767 9.59141 34.3368 9.59141 47.6359C7.3886 47.7981 5.36936 47.9603 3.1436 48.1225C2.11103 32.9003 1.05551 17.794 0 2.50228Z" fill="#98375A"/>
<path d="M48.875 39.3878C47.567 38.2062 46.3738 37.1404 45.1118 36.0051C48.1407 32.5065 51.1007 29.1007 54.1066 25.6484C55.3916 26.7837 56.6077 27.8727 57.9386 29.0311C54.9327 32.5065 51.9497 35.8892 48.875 39.3878Z" fill="#98375A"/>
<path d="M59.7514 27.1544C58.4205 25.9727 57.2044 24.8838 55.9194 23.7253C56.6767 22.8912 57.3421 22.1266 58.237 21.1304C59.4531 22.1962 60.6004 23.1693 61.9772 24.3509C61.197 25.324 60.5086 26.1813 59.7514 27.1544Z" fill="#98375A"/>
<path d="M43.9875 38.206L46.9705 40.8936C47.2 41.1021 47.177 41.4728 46.9246 41.6582C45.7085 42.5386 44.2858 42.7935 42.8173 43.28C42.4731 43.3959 42.1519 43.1178 42.1977 42.7471C42.3813 41.1948 42.5878 39.7815 43.2533 38.345C43.368 38.0669 43.7351 37.9974 43.9875 38.206Z" fill="#98375A"/>
<path d="M40.2011 39.4108C40.3847 38.0438 41.0042 36.9549 41.8991 35.9586C43.8954 33.7343 45.8458 31.4637 47.7274 29.309C47.7274 22.9375 47.7274 16.705 47.7274 10.4956C35.7955 10.4956 23.9553 10.4956 12.0923 10.4956C12.0923 25.7178 12.0923 40.8241 12.0923 56.0231C24.0242 56.0231 35.8873 56.0231 47.7274 56.0231C47.7274 52.0844 47.7274 48.2614 47.7274 44.3227C46.2818 44.8092 44.9968 45.2726 43.6889 45.6897C41.1419 46.5006 39.1915 44.786 39.6733 42.1448C39.834 41.218 40.0864 40.3144 40.2011 39.4108ZM42.794 23.5167C42.8169 24.4898 42.1286 24.791 41.2566 24.791C37.4705 24.791 33.7074 24.791 29.9213 24.791V24.8142C26.227 24.8142 22.5098 24.8142 18.8155 24.8142C17.9206 24.8142 17.1633 24.6057 17.1633 23.5167C17.1633 22.4973 17.8976 22.2887 18.7466 22.2887C26.2729 22.2887 33.7992 22.2887 41.3025 22.2887C42.1056 22.3119 42.7481 22.6131 42.794 23.5167ZM18.7237 15.8477C21.6378 15.8477 24.529 15.8477 27.4431 15.8477C28.3151 15.8477 29.0952 16.0099 29.187 17.0757C29.2559 17.9098 28.6134 18.3731 27.4202 18.3731C25.9746 18.3731 24.5061 18.3731 23.0605 18.3731C21.6149 18.3731 20.1463 18.3731 18.7007 18.3731C17.8288 18.3731 17.1404 18.0719 17.1633 17.0757C17.1404 16.1026 17.8517 15.8477 18.7237 15.8477ZM18.7237 35.2172C21.5919 35.194 24.4602 35.2172 27.3055 35.2172C29.646 35.2172 31.9635 35.2172 34.304 35.2172C35.1989 35.2172 35.979 35.4489 35.979 36.4915C35.9561 37.5341 35.1759 37.7426 34.281 37.7426C31.734 37.7194 29.1641 37.7426 26.5941 37.7426C23.9553 37.7426 21.3166 37.7426 18.7007 37.7426C17.8747 37.7426 17.2551 37.4877 17.1404 36.5841C17.0257 35.7269 17.6223 35.2172 18.7237 35.2172ZM29.5312 44.1605C28.338 44.1605 27.1678 44.1605 25.9746 44.1605C23.6112 44.1605 21.2248 44.1605 18.8613 44.1605C17.6682 44.1605 17.0257 43.6971 17.0945 42.8398C17.1863 41.7741 17.9435 41.6119 18.8384 41.6119C23.5882 41.6119 28.3151 41.6119 33.0649 41.6119C34.2581 41.6119 34.9006 42.0984 34.8317 42.9325C34.74 43.9983 33.9598 44.1605 33.0878 44.1605C31.9176 44.1605 30.7244 44.1605 29.5312 44.1605ZM41.2796 48.0993C42.1056 48.0993 42.771 48.4468 42.771 49.3272C42.794 50.2772 42.1056 50.6247 41.2337 50.6479C40.2929 50.6479 39.3291 50.6479 38.3884 50.6479C37.4476 50.6479 36.4838 50.671 35.5431 50.6479C34.717 50.6247 34.0975 50.2772 34.0975 49.3736C34.1204 48.47 34.74 48.1224 35.566 48.1224C37.4705 48.0761 39.375 48.0761 41.2796 48.0993ZM29.9901 31.1394V31.1625C26.2958 31.1625 22.5786 31.1625 18.8843 31.1625C17.9894 31.1625 17.2322 30.954 17.2322 29.8651C17.2322 28.8456 17.9665 28.6371 18.8155 28.6371C26.3417 28.6371 33.868 28.6371 41.3713 28.6371C42.2203 28.6371 42.8628 28.9615 42.8858 29.8419C42.9087 30.815 42.2203 31.1162 41.3484 31.1162C37.5394 31.1394 33.7533 31.1394 29.9901 31.1394Z" fill="#98375A"/>
</g>
<defs>
<clipPath id="clip0_83_419">
<rect width="62" height="56" fill="white"/>
</clipPath>
</defs>
</svg>
