<svg width="65" height="65" viewBox="0 0 65 65" fill="none" xmlns="http://www.w3.org/2000/svg">
<g clip-path="url(#clip0_83_425)">
<path d="M52.7801 30.1065C55.8351 33.1441 58.8132 36.1048 61.7721 39.0462C62.4062 39.6806 63.0594 40.2958 63.6743 40.9495C65.4611 42.8335 65.4227 45.6404 63.6166 47.4283C61.8105 49.2163 58.9861 49.2739 57.1416 47.4476C53.76 44.1216 50.436 40.7572 47.0928 37.3928C46.8238 37.1237 46.5356 36.8738 46.2858 36.6431C35.0458 42.9681 24.1324 37.6235 19.5211 30.7025C14.5256 23.1855 15.3518 12.7078 21.6539 6.15209C28.2826 -0.749712 38.5043 -2.01857 46.6701 3.1722C51.1661 6.05597 53.9906 10.1701 55.1818 15.3801C56.3538 20.5517 55.47 25.4156 52.7801 30.1065ZM51.1085 19.7634C50.9932 11.266 44.1723 4.47951 35.872 4.59486C27.2835 4.71021 20.5971 11.5928 20.8469 20.321C21.0582 28.3955 27.8407 35.2396 36.6214 34.8936C44.8064 34.5475 51.0893 27.7611 51.1085 19.7634Z" fill="#98375A"/>
<path d="M41.5208 29.8373C37.3707 32.2404 31.7603 31.6445 28.4171 28.4531C28.2442 28.2801 28.3594 27.9917 28.6092 27.9917H36.0641C36.6406 27.9917 37.1209 27.5111 37.1209 26.9343C37.1209 26.1653 36.5061 25.5501 35.7375 25.5501H25.9385C25.8617 25.5501 25.7848 25.5117 25.7272 25.454C24.997 24.5696 24.4783 22.7817 24.3822 21.2822C24.363 21.1284 24.4975 20.9938 24.6512 20.9938H36.0065C36.6021 20.9938 37.1017 20.4939 37.1017 19.8979C37.1017 19.1482 36.4868 18.533 35.7375 18.533H24.8818C24.7281 18.533 24.5936 18.3984 24.6128 18.2446C24.8626 15.6877 25.8809 13.669 27.4756 11.9195C27.6293 11.7465 27.9944 11.6696 28.2634 11.6696C32.1638 11.6504 39.8492 11.6888 41.4056 11.6696C41.5593 11.6696 41.6746 11.785 41.6746 11.9388C41.6746 17.8024 41.6746 23.7237 41.6746 29.5682C41.6553 29.7027 41.6169 29.7989 41.5208 29.8373Z" fill="#98375A"/>
<path d="M21.2313 37.7197C15.2943 32.8557 12.5659 26.3961 12.6812 18.7061C8.41578 18.7061 4.26562 18.7061 -0.019043 18.7061C-0.019043 34.2015 -0.019043 49.5623 -0.019043 65C13.8725 65 27.7256 65 41.6171 65C41.6171 57.4446 41.6171 49.9468 41.6171 42.3337C34.0277 44.0447 27.1684 42.6028 21.2313 37.7197ZM8.06993 34.9512H12.7581C13.3729 34.9512 13.8725 35.4511 13.8725 36.0663C13.8725 36.6815 13.3729 37.1814 12.7581 37.1814H8.06993C7.45509 37.1814 6.95554 36.6815 6.95554 36.0663C6.95554 35.4511 7.45509 34.9512 8.06993 34.9512ZM8.0315 41.7954H19.7134C20.3283 41.7954 20.8086 42.2952 20.8086 42.8912C20.8086 43.5064 20.3091 43.987 19.7134 43.987H8.0315C7.41666 43.987 6.93632 43.4872 6.93632 42.8912C6.93632 42.276 7.43588 41.7954 8.0315 41.7954ZM33.8355 57.6368H7.95465C7.37824 57.6368 6.91711 57.1754 6.91711 56.5987V56.5218C6.91711 55.945 7.37824 55.4836 7.95465 55.4836H33.8355C34.3927 55.4836 34.8539 55.9258 34.8731 56.4833C34.8731 56.5026 34.8731 56.541 34.8731 56.5602C34.8923 57.1562 34.4312 57.6368 33.8355 57.6368ZM33.8355 50.8119H7.95465C7.37824 50.8119 6.91711 50.3505 6.91711 49.7738V49.6969C6.91711 49.1201 7.37824 48.6587 7.95465 48.6587H33.8355C34.3927 48.6587 34.8539 49.1009 34.8731 49.6584C34.8731 49.6777 34.8731 49.7161 34.8731 49.7353C34.8923 50.3313 34.4312 50.8119 33.8355 50.8119Z" fill="#98375A"/>
</g>
<defs>
<clipPath id="clip0_83_425">
<rect width="65" height="65" fill="white"/>
</clipPath>
</defs>
</svg>
