<svg width="74" height="47" viewBox="0 0 74 47" fill="none" xmlns="http://www.w3.org/2000/svg">
<path d="M33.8912 44.7261C36.05 40.6599 34.9896 38.2879 30.634 37.2902C30.1416 33.7323 29.5167 33.0169 26.2216 32.1133C26.3921 29.9108 25.521 28.2165 23.4568 27.3694C21.2033 26.447 19.6315 27.5388 18.4195 29.5719C17.7378 28.1224 16.8477 27.0494 15.4085 26.6164C13.9125 26.1834 12.6058 26.5599 11.4696 27.7459C10.5227 26.6164 9.57586 25.5246 8.72369 24.3951C8.57219 24.2068 8.68581 23.6985 8.85625 23.4162C10.9583 19.6135 13.0982 15.8109 15.257 12.0082C16.1092 10.5022 16.9424 9.01502 17.8893 7.3396C20.0671 9.1468 22.7372 9.39153 25.502 9.80568C24.4984 11.274 23.5136 12.6106 22.6615 14.0225C22.0176 15.0955 21.3737 16.2062 21.0897 17.3921C20.6162 19.4817 21.7335 20.6112 23.9113 20.5359C26.2785 20.4418 28.3047 19.4817 30.0659 17.9757C30.7855 17.3733 31.543 16.7333 32.0164 15.9426C32.8118 14.6249 34.0806 14.286 35.3872 13.9848C35.7092 13.9095 36.1258 14.0601 36.4477 14.2107C42.2425 17.1098 47.7153 20.5171 52.8852 24.4139C54.9115 25.9575 56.9188 27.52 58.9072 29.1201C60.3465 30.2873 60.5737 31.6803 59.6268 32.9981C58.8315 34.0899 57.0893 34.297 55.6879 33.4499C52.2035 31.3603 48.719 29.2707 45.2346 27.1812C45.121 27.1247 45.0073 26.9929 44.9126 26.9929C44.5339 27.0117 44.1362 27.087 43.7575 27.1435C43.8711 27.5012 43.89 28.0283 44.1362 28.2165C45.0073 28.8378 45.9542 29.3649 46.8632 29.9108C49.2114 31.3227 51.5596 32.7345 53.9078 34.1276C54.4949 34.4853 55.1198 34.7488 55.0062 35.6712C54.8736 36.6501 54.6464 37.5914 53.6806 38.0055C52.5633 38.495 51.446 38.6456 50.2529 37.9302C47.526 36.2736 44.7422 34.73 41.9963 33.1487C41.5229 32.8663 40.9926 32.5086 40.6139 33.1675C40.2162 33.8452 40.7654 34.1841 41.2767 34.4664C43.8143 35.9348 46.3519 37.3843 48.8895 38.8715C49.4008 39.1727 50.234 39.2668 50.0257 40.2269C49.8174 41.2623 49.5144 42.3353 48.3782 42.5047C47.3745 42.6553 46.2004 42.5988 45.2725 42.2412C43.0568 41.3564 40.9358 40.208 38.777 39.1727C38.2657 38.928 37.6786 38.5703 37.3188 39.3233C36.978 40.0575 37.6408 40.3022 38.1521 40.5469C40.0458 41.4693 41.9584 42.3729 43.8522 43.2954C44.1552 43.446 44.4582 43.6154 44.818 43.8036C43.7385 45.3096 42.4887 46.2697 40.6139 46.2321C38.2657 46.1379 36.1069 45.3849 33.8912 44.7261Z" fill="#98375A"/>
<path d="M40.027 5.85254C42.8865 5.94666 45.6514 6.49259 48.3783 7.17029C50.6318 7.73504 52.8664 8.16801 55.1768 7.37736C55.3661 7.30206 55.8396 7.60326 55.9721 7.84799C58.131 11.613 60.2519 15.378 62.3918 19.1618C63.1115 20.4419 63.8311 21.7408 64.5886 23.0021C64.8726 23.4727 64.9105 23.7928 64.4181 24.1881C63.1115 25.2611 61.8427 26.3906 60.5549 27.4825C60.1004 27.8778 59.7217 27.7648 59.2483 27.3695C52.2415 21.6655 44.8371 16.564 36.6941 12.6107C36.2207 12.3848 35.5578 12.3472 35.0087 12.4601C33.1907 12.8178 31.7325 13.6461 30.5395 15.2462C29.0435 17.2793 26.9604 18.6912 24.2902 18.8983C23.741 18.9359 22.7942 18.8606 22.6806 18.5782C22.4723 18.0511 22.5291 17.2228 22.8321 16.7146C23.9872 14.7756 25.256 12.9119 26.5059 11.0294C26.9982 10.2952 27.6042 9.63636 28.0398 8.88336C28.7215 7.71621 29.7631 7.15146 31.0319 6.98204C34.0239 6.58671 37.016 6.22904 40.027 5.85254Z" fill="#98375A"/>
<path d="M5.69373 25.5247C5.39073 25.3553 5.18243 25.2611 5.01199 25.1482C3.53489 24.2446 2.05779 23.341 0.561753 22.4562C-0.0821107 22.0797 -0.138922 21.6844 0.220884 21.0632C4.00832 14.3426 7.79576 7.62211 11.5643 0.882758C11.9051 0.261533 12.2839 0.336833 12.7952 0.656858C14.2723 1.56046 15.7304 2.48288 17.2265 3.34883C17.8893 3.74416 17.984 4.12066 17.6052 4.79836C14.8215 9.67404 12.0756 14.5874 9.31073 19.4819C8.28812 21.2891 7.26551 23.0963 6.24291 24.8846C6.11035 25.1105 5.8831 25.3176 5.69373 25.5247Z" fill="#98375A"/>
<path d="M73.9999 22.0042C73.678 22.1548 73.356 22.2678 73.053 22.4372C71.6517 23.2843 70.2503 24.1315 68.849 24.9786C67.7506 25.6375 67.7317 25.6375 67.0878 24.4891C65.5539 21.7783 64.039 19.0675 62.524 16.3567C60.403 12.5729 58.2631 8.80791 56.1232 5.04291C55.4793 3.91341 55.4983 3.87576 56.5777 3.21689C57.9601 2.38859 59.3425 1.57911 60.6871 0.694337C61.3309 0.280187 61.6907 0.299012 62.0884 1.01436C65.7812 7.62194 69.5118 14.2107 73.2235 20.7994C73.375 21.063 73.5075 21.3642 73.659 21.6277C73.7916 21.7783 73.8863 21.8913 73.9999 22.0042Z" fill="#98375A"/>
<path d="M18.249 40.0012C16.8476 39.9635 16.0523 39.3988 15.541 38.4575C15.0296 37.5351 15.0675 36.5938 15.7114 35.7279C17.2074 33.7136 18.7035 31.6805 20.1806 29.6662C21.0327 28.4991 22.2068 28.2732 23.3809 29.0262C24.6119 29.8168 25.18 31.3793 24.4414 32.4335C22.7939 34.8055 21.0706 37.1209 19.3094 39.3988C19.0443 39.7564 18.4762 39.8694 18.249 40.0012Z" fill="#98375A"/>
<path d="M29.1379 36.7628C28.9864 37.0828 28.8727 37.5535 28.6076 37.93C27.4903 39.5301 26.3352 41.0926 25.18 42.655C24.3089 43.841 23.1916 44.0481 21.9796 43.2763C20.7487 42.4856 20.2185 40.9231 20.9381 39.8501C22.2069 37.9864 23.5325 36.1416 24.9338 34.3909C25.9754 33.1108 28.2857 33.9202 28.8917 35.7086C29.0242 35.991 29.0432 36.311 29.1379 36.7628Z" fill="#98375A"/>
<path d="M33.569 41.7141C33.569 42.6742 30.7852 46.571 29.8762 46.8722C29.0051 47.1734 27.7742 46.7216 27.1114 45.8744C26.3539 44.8955 26.2592 43.8225 26.9031 42.9189C27.5848 41.9777 28.2665 41.0364 28.9483 40.0952C29.7626 38.9657 30.5011 38.6645 31.5806 39.0033C32.6978 39.3798 33.5879 40.5658 33.569 41.7141Z" fill="#98375A"/>
<path d="M10.6362 32.0006C10.9014 31.4547 11.0907 30.9652 11.3558 30.5134C11.6967 29.9863 12.0944 29.5157 12.4731 29.0074C13.3253 27.8591 14.4047 27.6144 15.5788 28.3297C16.8287 29.1016 17.3779 30.6829 16.6961 31.8124C16.1659 32.6971 15.541 33.5254 14.8592 34.2973C14.026 35.2385 12.3027 34.9185 11.4316 33.6949C11.0718 33.2054 10.9014 32.603 10.6362 32.0006Z" fill="#98375A"/>
</svg>
