<svg width="70" height="66" viewBox="0 0 70 66" fill="none" xmlns="http://www.w3.org/2000/svg">
<g clip-path="url(#clip0_83_438)">
<path d="M51.0042 53.4502C47.5832 53.4376 44.8091 56.2334 44.8091 59.6872C44.8091 63.1662 47.5583 65.9873 50.9669 65.9873C54.363 65.9873 57.1123 63.1788 57.1371 59.6998C57.1496 56.284 54.3755 53.4629 51.0042 53.4502ZM50.9669 62.4704C49.4492 62.4577 48.2674 61.2432 48.2674 59.6872C48.2798 58.1564 49.499 56.9293 51.0042 56.9546C52.5095 56.9799 53.6913 58.2323 53.6664 59.7631C53.6415 61.2812 52.4473 62.483 50.9669 62.4704Z" fill="#98375A"/>
<path d="M29.4083 53.4502C25.9873 53.4376 23.2505 56.1955 23.2256 59.6872C23.2132 63.1282 25.9376 65.9494 29.2964 65.9873C32.68 66.0253 35.5039 63.1915 35.5288 59.7631C35.5537 56.2967 32.8044 53.4755 29.4083 53.4502ZM29.3834 62.483C27.9031 62.4957 26.6591 61.2306 26.6466 59.7125C26.6342 58.2196 27.8409 56.9672 29.3088 56.9419C30.8016 56.9166 32.058 58.1437 32.0705 59.6745C32.0954 61.1926 30.8638 62.4704 29.3834 62.483Z" fill="#98375A"/>
<path d="M69.9625 14.2702C69.7511 12.4358 68.2334 11.2972 66.2305 11.3099C62.8095 11.3099 59.3885 11.3099 55.9675 11.3099C47.8691 11.3099 39.7582 11.3099 31.6597 11.3099C25.6512 11.3099 19.6427 11.3099 13.6217 11.3225C13.149 11.3225 12.9748 11.1581 12.9002 10.7026C12.6389 9.23513 12.3155 7.78027 12.0418 6.31276C11.7806 4.92116 11.0715 3.93438 9.76527 3.37774C8.83227 2.98556 7.91171 2.54278 6.97871 2.13795C5.48591 1.4801 4.01798 0.809597 2.52518 0.17705C1.4429 -0.278384 0.460139 0.151748 0.111818 1.18913C-0.186742 2.07469 0.198898 2.93496 1.18166 3.37774C3.44574 4.40247 5.73471 5.41454 8.02367 6.40132C8.45907 6.59108 8.64567 6.85675 8.74519 7.31218C9.45427 10.8798 10.1758 14.4473 10.8973 18.0149C12.8628 27.7561 14.8408 37.4847 16.8063 47.2259C17.2915 49.617 18.436 50.5911 20.8618 50.5911C25.1163 50.5911 29.3583 50.6037 33.6128 50.6037C41.2385 50.6037 48.8643 50.6037 56.49 50.6037C58.2067 50.6037 59.9359 50.6164 61.6526 50.5531C62.5607 50.5278 63.22 49.7182 63.2076 48.8199C63.1952 47.947 62.5607 47.2133 61.6775 47.1121C61.4162 47.0741 61.1426 47.0741 60.8689 47.0741C47.6078 47.0741 34.3343 47.0741 21.0733 47.0741C20.8245 47.0741 20.5881 47.0741 20.3144 47.0741C20.0283 45.7205 19.7546 44.4301 19.4934 43.127C19.4312 42.8234 19.3814 42.5071 19.3068 42.077C19.8044 42.077 20.2149 42.077 20.6254 42.077C34.2224 42.077 47.8193 42.077 61.4162 42.077C63.5684 42.077 64.8124 41.0523 65.2478 38.889C66.753 31.4881 68.2582 24.0747 69.7386 16.6739C69.8879 15.9022 70.0621 15.0672 69.9625 14.2702ZM51.0164 33.0063C47.7073 33.0189 44.3859 33.0063 41.0768 33.0063C40.7658 33.0063 40.4548 33.0063 40.1438 33.0063C36.5362 33.0063 32.941 33.0063 29.3334 33.0063C28.1765 33.0063 27.455 32.2725 27.4923 31.1845C27.5296 30.1851 28.2511 29.5273 29.3707 29.5146C31.9832 29.5019 34.5956 29.5019 37.1955 29.5019C41.5868 29.5019 45.9782 29.5019 50.3695 29.5019C50.581 29.5019 50.78 29.5019 50.9915 29.5019C52.0862 29.5273 52.8699 30.2737 52.8575 31.2857C52.8451 32.2725 52.0987 32.9936 51.0164 33.0063ZM54.1388 22.6198C53.9273 23.4295 53.268 23.9102 52.2977 23.9102C48.7523 23.9229 45.2069 23.9229 41.6739 23.9229C37.3199 23.9229 32.9659 23.9229 28.6243 23.9229C28.4129 23.9229 28.2138 23.9229 28.0023 23.9229C26.9076 23.8976 26.1612 23.2144 26.1363 22.215C26.1115 21.1903 26.8703 20.4439 27.9775 20.4312C31.5353 20.4186 35.1056 20.4186 38.6634 20.4186C39.161 20.4186 39.6586 20.4186 40.1562 20.4186C44.1992 20.4186 48.2423 20.4059 52.2728 20.4186C53.6163 20.4186 54.4498 21.418 54.1388 22.6198Z" fill="#98375A"/>
</g>
<defs>
<clipPath id="clip0_83_438">
<rect width="70" height="66" fill="white"/>
</clipPath>
</defs>
</svg>
