<svg width="121" height="65" viewBox="0 0 121 65" fill="none" xmlns="http://www.w3.org/2000/svg">
<g clip-path="url(#clip0_2001_767)">
<path d="M90.4303 13.3959H103.938C104.954 13.3959 107.606 14.9159 108.442 15.6689C111.691 20.0125 116.126 24.2417 119.156 28.6951C123.071 34.4474 119.525 44.4006 119.571 51.1051C119.212 53.1961 117.407 55.3436 115.45 55.6809C113.828 55.9601 111.965 55.6009 110.317 55.7734C109.181 60.0763 105.693 63.6309 101.632 64.3603C96.518 65.278 91.681 61.6292 91.0778 55.902L90.7876 55.7499L49.1845 55.742C49.013 55.7358 48.8801 55.753 48.7629 55.9068C48.5485 56.1907 48.0296 57.9272 47.7166 58.5233C46.989 59.91 45.9842 61.1351 44.8207 62.0904C38.8903 66.9643 30.6314 64.1328 29.5479 55.8189C29.1892 55.5365 23.213 55.9083 22.0681 55.7138C19.8868 55.3405 18.4332 52.9639 18.3774 50.6533L19.6753 37.3981H1.45233C1.17075 37.3981 0.481794 36.7298 0.315988 36.449C-0.43014 35.1925 0.223079 33.7274 1.45948 33.3274L32.3338 33.3117C34.6651 33.558 34.8137 37.1502 32.1894 37.4043C29.3907 37.6757 26.2304 37.1894 23.3931 37.3965L22.1038 50.6564C22.1038 51.2008 22.4111 51.5976 22.9028 51.6619L29.9553 51.6557C31.6963 44.1527 40.7942 40.0193 46.3315 45.5583C47.9767 47.2038 48.6857 49.3607 49.2174 51.6776L82.9976 51.6698L87.4 5.35022L86.997 4.84982C83.9753 4.68511 80.9436 4.7855 77.9176 4.77452C61.9373 4.71805 45.8999 5.02394 29.8895 4.77452C29.0191 4.7604 28.1529 4.34628 27.2624 4.85766C26.0231 5.56827 26.4591 7.46635 26.1074 8.68834H43.7601C44.0431 8.68834 44.7835 9.26561 44.9765 9.54954C45.9585 10.999 45.0966 12.621 43.6043 12.9096L14.5953 12.93C11.7652 12.9551 11.4493 8.97541 14.4524 8.68207C16.9767 8.43422 19.8297 8.88129 22.3897 8.68677C22.4654 5.10551 23.2244 1.67013 26.7907 0.732069C46.6603 0.267744 66.5999 0.659911 86.4967 0.534417C88.9495 0.760305 90.7262 2.31172 91.1292 5.01923L90.4303 13.3943V13.3959ZM103.366 17.4744H90.0015L86.7139 51.6714H91.4308C94.0108 40.9511 109.015 39.4985 110.586 51.6714C112.047 51.4031 115.138 52.4588 115.804 50.578C116.369 45.1332 117.056 39.6679 117.287 34.1996C117.091 32.3862 116.233 31.3367 115.231 30.0238C112.726 26.7406 109.597 22.7718 106.871 19.7474C105.905 18.6745 104.797 17.6893 103.365 17.4776L103.366 17.4744ZM39.2247 47.163C30.8615 48.3411 31.5447 63.1446 40.6212 59.9916C47.3364 57.659 46.9547 46.0744 39.2247 47.163ZM100.833 47.1661C93.5191 48.1277 92.4185 60.4245 100.078 60.4229C108.267 60.4229 109.557 46.0195 100.833 47.1661Z" fill="black"/>
<path d="M9.91549 25.194L46.623 25.158C48.7199 25.6897 48.6784 28.8522 46.4801 29.2443H10.3114C8.30031 28.8616 8.0373 26.038 9.91549 25.1956V25.194Z" fill="black"/>
<path d="M6.19921 17.0368L38.3328 17.0007C40.554 17.6658 40.2295 20.7969 37.9011 21.084H6.88531C4.66836 20.9946 4.18095 17.9906 6.19921 17.0384V17.0368Z" fill="black"/>
<path d="M93.964 21.5877C96.5097 21.7304 99.4356 21.2787 101.936 21.5563C102.742 21.6457 103.891 22.2324 104.496 22.8254C107.217 25.4968 109.646 29.7322 112.377 32.5276L112.584 33.0782L92.7519 33.2021C92.3931 33.0217 92.2587 32.5558 92.283 32.1495C92.8176 29.1753 92.6947 25.845 93.1578 22.8991C93.2407 22.3736 93.418 21.7132 93.9625 21.5861L93.964 21.5877Z" fill="black"/>
</g>
<defs>
<clipPath id="clip0_2001_767">
<rect width="121" height="64" fill="white" transform="translate(0 0.5)"/>
</clipPath>
</defs>
</svg>
