<?xml version="1.0" encoding="UTF-8"?>
<svg id="Warstwa_2" xmlns="http://www.w3.org/2000/svg" version="1.1" viewBox="0 0 82.3 65">
  <!-- Generator: Adobe Illustrator 29.5.0, SVG Export Plug-In . SVG Version: 2.1.0 Build 137)  -->
  <defs>
    <style>
      .st0 {
        fill: none;
      }
    </style>
  </defs>
  <rect class="st0" y="0" width="82.3" height="65"/>
  <path d="M81.7,25.9c-.1-4-3.5-7.3-7.4-7.3h-17.8c-.8,0-1.4.6-1.4,1.4s.6,1.4,1.4,1.4h17.8c2.6,0,4.7,2.1,4.7,4.8v22.5c0,2.6-2.1,4.8-4.7,4.8h-1.9c-.9,0-1.8.5-2.3,1.3l-3.4,6-3.4-6c-.5-.8-1.4-1.3-2.3-1.3h-25.1c-2.6,0-4.7-2.1-4.7-4.8v-7.9c0-.7-.6-1.3-1.3-1.3s-1.4.6-1.4,1.4v7.9c0,4.2,3.3,7.5,7.4,7.5h25.1l4.2,7.4c.3.6.9.9,1.6.9s1.2-.4,1.6-.9l4.2-7.4h1.8c4.1,0,7.4-3.4,7.4-7.5v-22.7h0Z"/>
  <g>
    <path d="M13.9,15.3c-2.5,0-4.6,2.1-4.6,4.6s2,4.6,4.6,4.6,4.6-2.1,4.6-4.6-2-4.6-4.6-4.6ZM13.9,22.4c-1.3,0-2.4-1.1-2.4-2.5s1.1-2.5,2.4-2.5,2.4,1.1,2.4,2.5-1.1,2.5-2.4,2.5Z"/>
    <path d="M27.2,15.3c-2.5,0-4.6,2.1-4.6,4.6s2,4.6,4.6,4.6,4.6-2.1,4.6-4.6-2-4.6-4.6-4.6ZM27.2,22.4c-1.3,0-2.4-1.1-2.4-2.5s1.1-2.5,2.4-2.5,2.4,1.1,2.4,2.5-1.1,2.5-2.4,2.5Z"/>
    <path d="M40.8,15.3c-2.5,0-4.6,2.1-4.6,4.6s2,4.6,4.6,4.6,4.6-2.1,4.6-4.6-2-4.6-4.6-4.6ZM40.8,22.4c-1.3,0-2.4-1.1-2.4-2.5s1.1-2.5,2.4-2.5,2.4,1.1,2.4,2.5-1.1,2.5-2.4,2.5Z"/>
  </g>
  <g>
    <path d="M53.9,8.1h0c0-4.2-3.4-7.5-7.4-7.5h-13.9c-.7,0-1.2.5-1.2,1.2v.4c0,.6.5,1.2,1.1,1.2h14c2.6,0,4.7,2.1,4.7,4.8v22.5c0,2.6-2.1,4.8-4.7,4.8h-25.1c-.9,0-1.8.5-2.3,1.3l-3.1,5.5-.3.5-3.4-6c-.5-.8-1.3-1.3-2.3-1.3h-1.9c-2.6,0-4.7-2.1-4.7-4.8V8.2c0-2.6,2.1-4.8,4.7-4.8h11.7c.8,0,1.4-.6,1.4-1.4,0-.8-.6-1.4-1.4-1.4h-11.7C4,.6.6,4,.6,8.1v22.5c0,4.2,3.3,7.5,7.4,7.5h1.8l4.2,7.4c.3.6.9.9,1.6.9s1.2-.4,1.6-.9l4.2-7.3h25.1c4.1,0,7.4-3.4,7.4-7.6V8.1Z"/>
    <path d="M25.2,3.6h1.7c.8,0,1.5-.7,1.5-1.5s-.7-1.5-1.5-1.5h-1.7c-.8,0-1.5.7-1.5,1.5s.7,1.5,1.5,1.5Z"/>
  </g>
</svg>