<svg width="78" height="64" viewBox="0 0 78 64" fill="none" xmlns="http://www.w3.org/2000/svg">
<g clip-path="url(#clip0_2001_885)">
<path d="M77.9777 36.2098C78.0022 35.8113 78.029 35.359 77.9285 34.8723C77.5142 32.8845 74.9174 32.0452 72.831 31.3708C72.315 31.2036 71.8247 31.0456 71.4461 30.891L71.3914 30.8406L71.3724 5.38858V5.35881C71.0552 1.13703 68.7667 0.198093 64.919 0H64.909L5.5096 0.0389315H5.47721C1.29112 0.393895 0.262468 2.97139 0.00558443 6.73401V6.74775L0 45.9255V45.9564C0.230079 48.9518 2.16899 50.8595 5.32085 51.1904L5.34095 51.1927L48.7733 51.211C48.8861 51.3702 49.047 51.8064 49.1285 52.0274C49.1988 52.2175 49.2592 52.3824 49.3172 52.5003C51.1031 56.098 53.9802 59.4679 57.2114 61.7466C59.4195 63.3038 61.0836 64.0011 62.6439 64.0011C62.8293 64.0011 63.0136 63.9908 63.1957 63.9725C64.9581 63.7859 66.6714 62.6981 68.8627 61.0046C73.1918 57.6587 75.6624 54.369 76.8753 50.3362C78.0558 46.411 78.01 41.9361 77.9576 36.7548C77.9553 36.5785 77.9665 36.401 77.9777 36.212V36.2098ZM69.0135 11.0691C69.0079 11.1527 68.9878 11.2501 68.9666 11.3531C68.9476 11.4447 68.9275 11.5455 68.913 11.6531C68.6226 11.6543 68.3356 11.6966 68.072 11.7344C67.8497 11.7665 67.6398 11.7974 67.4588 11.7997C67.2243 11.8031 66.9272 11.7711 66.639 11.7413C66.3509 11.7104 66.0538 11.6795 65.7947 11.6795C61.412 11.6714 57.0014 11.668 52.6009 11.668C47.2879 11.668 41.9938 11.6726 36.7969 11.6772C28.8335 11.684 20.5987 11.6909 12.5181 11.6817C10.9299 11.6795 9.34164 11.6817 7.75343 11.6852C6.02449 11.6875 4.24082 11.6909 2.47949 11.6875C2.50629 10.8699 2.47837 10.0283 2.45157 9.2096C2.41694 8.17219 2.38232 7.09813 2.4605 6.10882C2.68835 3.23246 3.8365 2.69544 6.49581 2.52826H65.2139C67.6308 2.73322 68.712 3.0733 68.9164 5.42751C69.0359 6.80729 69.1062 9.74204 69.0146 11.0726L69.0135 11.0691ZM47.5794 44.9144C47.633 46.0239 47.8106 47.1301 47.9826 48.1995C48.0138 48.3942 48.0451 48.5888 48.0753 48.7824H5.37334C5.19017 48.7617 4.24305 48.4698 4.05095 48.3816C3.49362 48.1262 3.02453 47.6133 2.79445 47.0075C2.66601 46.6709 2.4605 45.7171 2.4605 45.4617V21.7593H68.9152V29.9716C68.2998 29.762 67.6855 29.517 67.0869 29.2777C66.1666 28.9101 65.2139 28.5299 64.24 28.2689C62.8707 27.9025 62.4306 27.9059 61.0982 28.2998C59.8204 28.6765 58.4992 29.1838 57.2203 29.6738C56.4754 29.959 55.7058 30.2544 54.9687 30.5143C54.3287 30.7399 53.6262 30.9483 52.946 31.1498C51.9542 31.4429 50.93 31.7464 50.0298 32.1219C48.1155 32.92 47.7011 34.1063 47.5771 36.1571C47.404 39.0002 47.4699 42.6518 47.5771 44.9144H47.5794ZM49.9237 37.3468V37.3319C49.9751 36.2292 50.032 35.564 50.0968 35.3521C50.175 35.0945 50.5436 34.7991 50.7603 34.6342L62.664 30.4834C63.0214 30.4548 63.3286 30.5578 63.7117 30.6884C63.7776 30.7113 63.8446 30.7342 63.9127 30.7559C65.8628 31.396 67.8285 32.1609 69.7295 32.9017C71.3523 33.5338 73.0299 34.1865 74.6962 34.7613C75.688 35.3315 75.6735 35.7689 75.6344 36.9208C75.63 37.0502 75.6255 37.1853 75.6221 37.3285C75.6043 38.1105 75.592 38.8628 75.5797 39.5899C75.4613 47.0075 75.3887 51.4858 69.486 57.1961C68.292 58.3515 64.193 62.0649 61.5628 61.3595C59.0688 60.6908 54.3834 55.9916 52.8935 53.8011C49.821 49.2827 49.6668 42.9483 49.9226 37.3479L49.9237 37.3468ZM2.46162 19.2413V14.2031H68.9164V19.2413H2.46162Z" fill="black"/>
<path d="M22.5625 31.736C22.5625 31.5712 22.5625 31.404 22.5636 31.2299C22.5725 29.3269 22.5837 27.1696 21.4143 25.5929C19.6642 23.2341 16.8496 22.4898 14.0674 23.6497C10.7313 25.041 10.6833 28.7177 10.7168 31.7601C8.84711 32.0406 7.8609 33.3712 7.70565 35.8135C7.59843 37.5002 7.6889 40.1762 7.81846 41.9487C8.01838 44.6819 9.47591 45.3094 11.9252 45.4674C13.2577 45.5544 14.8772 45.5968 16.4933 45.5968C18.1094 45.5968 19.8015 45.551 21.1373 45.4617C22.7557 45.3518 24.345 45.0197 25.0118 43.3445C25.5881 41.8972 25.4329 37.2174 25.3603 36.0437C25.1559 32.7597 23.8033 31.854 22.5614 31.736H22.5625ZM20.1087 29.6612V31.7223H13.0634C13.0019 28.5196 13.2934 25.8952 16.366 25.5494C17.2897 25.4452 18.1262 25.7108 18.784 26.3154C19.6139 27.078 20.1087 28.3284 20.1087 29.6612ZM18.554 34.246C18.6958 34.2437 18.8198 34.2116 18.9192 34.1853C18.9583 34.175 19.0119 34.1612 19.0309 34.1601C19.3146 34.1555 19.6072 34.1395 19.8909 34.1235C21.7449 34.0204 22.8864 34.0444 23.017 35.7563C23.1332 37.2826 23.1578 40.9926 22.8864 42.2601C22.8249 42.5476 22.2442 42.9655 21.9281 42.9495C20.2572 42.8304 18.4791 42.8979 16.7602 42.9643C14.933 43.0342 13.0433 43.1063 11.3154 42.9495C10.5895 42.8831 10.2589 42.5979 10.1751 41.9624C10.0076 40.7017 10.0076 36.48 10.1751 35.2204C10.2946 34.3204 10.8218 34.2563 10.9949 34.2345C11.6561 34.1532 12.4077 34.1257 13.1996 34.1257C14.0451 34.1257 14.9364 34.1567 15.812 34.1876C16.7904 34.2219 17.7152 34.254 18.5562 34.2437L18.554 34.246Z" fill="black"/>
<path d="M30.4127 34.4533L30.4562 34.4636L40.2134 34.4727H40.2368L40.2603 34.4704C40.9237 34.3903 41.4274 33.8544 41.433 33.2223C41.4375 32.7254 41.1013 32.0968 40.143 31.9651C38.91 31.7945 37.3776 31.8254 36.025 31.8529C35.6665 31.8597 35.3192 31.8666 34.9919 31.87L30.4127 31.9765L30.3289 32.0246C29.7627 32.3452 29.4209 32.9613 29.4968 33.5223C29.5594 33.9884 29.8933 34.3273 30.4138 34.4521L30.4127 34.4533Z" fill="black"/>
<path d="M40.0212 37.561L39.9933 37.5587L39.9654 37.561C38.6944 37.6492 37.3195 37.5988 35.9915 37.5507C34.4145 37.4935 32.7827 37.4328 31.2693 37.5988C30.6226 37.6698 29.9157 37.8038 29.5739 38.2595C29.4209 38.4645 29.3617 38.7106 29.4019 38.9729C29.4667 39.3908 29.9682 39.9026 30.32 40.0126C30.5378 40.0813 31.5016 40.1981 31.7273 40.1992C31.7306 40.1992 31.734 40.1992 31.7384 40.1992C31.916 40.1992 32.0735 40.1603 32.212 40.1259C32.3214 40.0984 32.4164 40.0755 32.5013 40.0755C33.2116 40.0767 34.0012 40.103 34.8355 40.1305C36.6583 40.19 38.5436 40.2519 40.0335 40.0778C40.9215 39.9736 41.2777 39.471 41.4207 39.0679L41.4375 39.0221L41.4419 38.9729C41.4698 38.6923 41.3816 38.4164 41.185 38.1748C40.9136 37.8416 40.4468 37.5942 40.0224 37.5599L40.0212 37.561Z" fill="black"/>
<path d="M57.2117 52.0651C58.9049 53.564 60.7578 54.1777 62.5203 54.1777C64.467 54.1777 66.3043 53.4288 67.6948 52.2964C69.1088 51.1456 70.1185 49.5689 70.5351 47.8582C70.9841 46.017 70.7495 44.0796 69.856 42.2452C69.9063 42.1857 69.9789 42.1101 70.0325 42.054C70.391 41.6807 71.1371 40.9055 70.3966 39.9459C70.114 39.5807 69.8057 39.3814 69.4774 39.3551C69.0005 39.3162 68.6553 39.6391 68.4241 39.8555C66.7053 38.2043 64.4681 37.3009 62.2377 37.365C58.8815 37.4635 56.0781 39.5978 54.9199 42.9345C53.7561 46.2883 54.6339 49.7876 57.2095 52.0674L57.2117 52.0651ZM65.5895 42.8635C65.2276 43.2242 64.8523 43.5975 64.4972 43.9834C64.295 44.2032 64.0348 44.5273 63.7589 44.8708C63.2753 45.4731 62.6733 46.2231 62.3393 46.4509H62.3371C60.7098 44.4173 60.1335 44.0727 59.813 44.0028C59.3461 43.8998 58.9116 44.0681 58.6492 44.4528C58.3364 44.912 58.3364 45.5624 58.6492 46.0719C58.9686 46.5918 61.0516 48.8212 61.5452 49.1704C62.4935 49.8414 63.0966 49.333 63.5824 48.9231C64.4302 48.2086 65.2734 47.1872 66.0887 46.2002C66.7097 45.4479 67.3497 44.6727 67.974 44.0578C68.5414 45.9838 68.232 47.9177 67.1006 49.4269C65.8855 51.0483 63.9622 51.8521 61.8189 51.6323C59.9213 51.4376 58.2929 50.146 57.4619 48.1765C56.5874 46.1028 56.8007 43.8036 58.0192 42.1753C59.0903 40.7452 60.7936 39.8921 62.5784 39.8921H62.5828C64.1811 39.8933 65.6487 40.5723 66.6583 41.7654C66.3121 42.1421 65.9447 42.5074 65.5884 42.8635H65.5895Z" fill="black"/>
<path d="M15.2077 39.5532C15.2758 40.0593 15.6701 40.9227 16.2989 41.1677C16.4095 41.2113 16.5223 41.233 16.6328 41.233C16.8529 41.233 17.0673 41.1483 17.2583 40.9811C17.8748 40.4429 17.9966 38.675 17.8458 37.6593C17.7274 36.8647 17.4593 36.37 17.0494 36.1902C16.6775 36.0276 16.3078 36.0666 16.0096 36.299C15.1563 36.9677 15.1362 39.0288 15.2077 39.5532Z" fill="black"/>
</g>
<defs>
<clipPath id="clip0_2001_885">
<rect width="78" height="64" fill="white"/>
</clipPath>
</defs>
</svg>
