<svg xmlns="http://www.w3.org/2000/svg" viewBox="0 0 151.91 114.79"><defs><style>.cls-1{fill:#fc0;}</style></defs><g id="Warstwa_2" data-name="Warstwa 2"><g id="Warstwa_6" data-name="Warstwa 6"><path class="cls-1" d="M117.39,39.82a8.88,8.88,0,0,1,5.38-.49A7.71,7.71,0,0,1,128,43.56c.36.74.65,1,1.52.65a7.91,7.91,0,0,1,10.67,6.07c.08.38.17.76.27,1.25l.95-.28a8,8,0,0,1,10.42,7.52c.06,9.48.14,19,0,28.44a27.68,27.68,0,0,1-23.1,27.09,26.31,26.31,0,0,1-23.84-7.14c-8.18-7.85-16.1-16-24.09-24a8,8,0,1,1,11.3-11.22c2.77,2.74,5.51,5.51,8.27,8.27.25.24.51.46,1,.87,0-.76.09-1.27.09-1.79q0-25.22,0-50.44a8,8,0,1,1,15.94-.17c0,3.22,0,6.44,0,9.66Zm-11.47,17.6h0V86.08a2.48,2.48,0,0,1-1.35,2.58,2.4,2.4,0,0,1-2.88-.81q-3.51-3.54-7-7.06L88.88,75a3.39,3.39,0,0,0-3.77-.8,3.29,3.29,0,0,0-2.22,3,3.94,3.94,0,0,0,1.46,3.19c7.68,7.65,15.27,15.39,23,23,6.67,6.5,14.66,8.39,23.57,5.75a23.13,23.13,0,0,0,16.36-21.63c.1-5.5,0-11,0-16.53,0-4.11,0-8.23,0-12.34a3.4,3.4,0,0,0-3.42-3.31,3.46,3.46,0,0,0-3.52,3.33c0,.71,0,1.43,0,2.14q0,5.26,0,10.52a2,2,0,0,1-1.26,2.16,3.48,3.48,0,0,1-2.21-.14c-.9-.4-1-1.36-1-2.31q0-9.55,0-19.11a3.5,3.5,0,0,0-3.48-3.81c-2,0-3.47,1.56-3.48,3.82,0,2.75,0,5.51,0,8.26V70a2.31,2.31,0,0,1-1.51,2.37,1.89,1.89,0,0,1-2.39-.66,4,4,0,0,1-.59-2.09c-.05-3.76,0-7.52,0-11.27s0-7.52,0-11.28a3.31,3.31,0,0,0-1.92-3.11,3.35,3.35,0,0,0-3.65.31,3.71,3.71,0,0,0-1.42,3.31q0,10.52,0,21a2.27,2.27,0,1,1-4.49,0c0-2,0-4.08,0-6.12,0-11,0-22.05,0-33.07a5.85,5.85,0,0,0-.6-2.65,3.21,3.21,0,0,0-3.81-1.42,3.36,3.36,0,0,0-2.53,3.54Q105.92,43.14,105.92,57.42Z"/><path class="cls-1" d="M63.24,5.74a5.67,5.67,0,0,1-5.74,5.68A5.71,5.71,0,0,1,57.58,0,5.64,5.64,0,0,1,63.24,5.74Z"/><path class="cls-1" d="M80.64,0A5.71,5.71,0,1,1,74.9,5.69,5.72,5.72,0,0,1,80.64,0Z"/><path class="cls-1" d="M34.45,28.78A5.69,5.69,0,1,1,28.82,23,5.69,5.69,0,0,1,34.45,28.78Z"/><path class="cls-1" d="M11.42,5.72a5.72,5.72,0,0,1-5.62,5.7A5.81,5.81,0,0,1,0,5.74,5.78,5.78,0,0,1,5.72,0,5.67,5.67,0,0,1,11.42,5.72Z"/><path class="cls-1" d="M80.65,23a5.7,5.7,0,1,1-5.74,5.77A5.68,5.68,0,0,1,80.65,23Z"/><path class="cls-1" d="M63.25,51.66a5.69,5.69,0,1,1-5.78-5.73A5.69,5.69,0,0,1,63.25,51.66Z"/><path class="cls-1" d="M80.64,57.33a5.7,5.7,0,1,1,5.65-5.69A5.68,5.68,0,0,1,80.64,57.33Z"/><path class="cls-1" d="M115.08,5.78a5.71,5.71,0,0,1-5.68,5.64,5.77,5.77,0,0,1-5.71-5.63A5.72,5.72,0,0,1,109.45,0,5.65,5.65,0,0,1,115.08,5.78Z"/><path class="cls-1" d="M126.76,28.71A5.63,5.63,0,0,1,132.34,23a5.7,5.7,0,1,1,.08,11.4A5.65,5.65,0,0,1,126.76,28.71Z"/><path class="cls-1" d="M60.43,28.64a2.86,2.86,0,0,1-2.88,2.94,3,3,0,0,1-2.89-2.89,2.94,2.94,0,0,1,2.94-2.93A2.86,2.86,0,0,1,60.43,28.64Z"/><path class="cls-1" d="M28.79,2.8a2.89,2.89,0,0,1,2.86,3,2.89,2.89,0,1,1-5.78-.17A2.9,2.9,0,0,1,28.79,2.8Z"/><path class="cls-1" d="M8.62,28.66a2.89,2.89,0,0,1-2.93,2.91,3,3,0,0,1-2.87-2.9,2.94,2.94,0,0,1,2.85-2.9A2.87,2.87,0,0,1,8.62,28.66Z"/><path class="cls-1" d="M8.62,51.61A2.89,2.89,0,0,1,5.7,54.54a2.91,2.91,0,1,1,.07-5.81A2.87,2.87,0,0,1,8.62,51.61Z"/><path class="cls-1" d="M31.66,51.68a3,3,0,0,1-2.9,2.86,2.91,2.91,0,1,1,2.9-2.86Z"/><path class="cls-1" d="M129.56,5.7a2.89,2.89,0,1,1,5.77,0,3,3,0,0,1-2.85,2.91A2.9,2.9,0,0,1,129.56,5.7Z"/></g></g></svg>
