<svg xmlns="http://www.w3.org/2000/svg" viewBox="0 0 132.24 67.97"><defs><style>.cls-1{stroke:#000;stroke-miterlimit:10;stroke-width:14px;}.cls-2{fill:#fd00fc;}.cls-3{fill:#02fbfd;}.cls-4{fill:#fff;}</style></defs><g id="Warstwa_2" data-name="Warstwa 2"><g id="Warstwa_6" data-name="Warstwa 6"><path class="cls-1" d="M121.92,7h-35v5h-10V7H42v5H37V7H27v5H22V7H7V32H17V17h5v5h5V32H37V27h5v5h35V27h10v5h10V27h-5V22h-5V17h5V12h13.32V32h10V12h10V7ZM68.63,27H47V22H62V17H47V12h25v5h5v5h-5v5Z"/><polygon class="cls-1" points="26.75 57.02 15.95 57.02 15.95 41.22 12.63 41.22 12 41.22 10.95 41.22 8.69 41.22 7 41.22 7 60.97 8.69 60.97 12 60.97 26.75 60.97 28.43 60.97 31.75 60.97 31.75 57.02 28.43 57.02 26.75 57.02"/><path class="cls-1" d="M120.24,57H109.43V41.21H80.73v4H77.84v-4h-9V53.07H62V41.21H33.33v4H29.38V57h3.95V61H54.14V57H38.33v-4H50.19v-4H38.33V45.17H53.08v7.9h4v4H61V61h9V57h4v-4h2.89v4h4V61h44.51V57h-5Zm-23.7,0H85.73v-4H97.59v-4H85.73V45.17h14.75V57H96.54Zm5.62,0h0Z"/><path class="cls-2" d="M17.13,12V32h-5V7h10v5Zm5,5V12h5v5Zm15,15h-5V22h-5V17h5V7h5Z"/><path class="cls-2" d="M47.1,17h15v5h-15v5h-5V12h5Zm20-5h-20V7h20Zm0,15v5h-20V27Z"/><path class="cls-2" d="M72.08,12V7h5v5Zm5,20h-5V27h5Zm0-15V12h5v5Zm5,10h-5V22h5Zm5-5h-5V17h5Zm5-5h-5V12h5Zm0,5v5h-5V22Zm5-10h-5V7h5Zm0,15v5h-5V27Z"/><path class="cls-2" d="M125.37,12h-10V32h-5V12h-10V7h25Z"/><polygon class="cls-2" points="31.89 57.02 31.89 60.97 12.14 60.97 12.14 41.22 16.09 41.22 16.09 57.02 31.89 57.02"/><path class="cls-2" d="M38.47,49.12H50.32v4H38.47v4H34.52V45.17h3.95Zm15.8-3.95H38.47v-4h15.8Zm0,11.85V61H38.47V57Z"/><path class="cls-2" d="M58.22,53.07V41.22h4V53.07Zm4,4v-4h4v4ZM70.07,61H66.12V57h3.95ZM74,57h-4v-4h4Zm4-4H74V41.22h4Z"/><path class="cls-2" d="M85.87,49.12H97.72v4H85.87v4h-4V45.17h4Zm15.8-3.95H85.87v-4h15.8Zm0,11.85V61H85.87V57Z"/><path class="cls-2" d="M105.62,57V41.22h3.95V57ZM125.37,61h-15.8V57h15.8Z"/><rect class="cls-2" x="105.62" y="57.02" width="3.95" height="3.95"/><path class="cls-3" d="M12.13,12V32h-5V7h10v5Zm5,5V12h5v5Zm15,15h-5V22h-5V17h5V7h5Z"/><path class="cls-3" d="M42.1,17h15v5h-15v5h-5V12h5Zm20-5h-20V7h20Zm0,15v5h-20V27Z"/><path class="cls-3" d="M67.08,12V7h5v5Zm5,20h-5V27h5Zm0-15V12h5v5Zm5,10h-5V22h5Zm5-5h-5V17h5Zm5-5h-5V12h5Zm0,5v5h-5V22Zm5-10h-5V7h5Zm0,15v5h-5V27Z"/><path class="cls-3" d="M120.37,12h-10V32h-5V12h-10V7h25Z"/><polygon class="cls-3" points="26.89 57.02 26.89 60.97 7.14 60.97 7.14 41.22 11.09 41.22 11.09 57.02 26.89 57.02"/><path class="cls-3" d="M33.47,49.12H45.32v4H33.47v4H29.52V45.17h3.95Zm15.8-3.95H33.47v-4h15.8Zm0,11.85V61H33.47V57Z"/><path class="cls-3" d="M53.22,53.07V41.22h4V53.07Zm4,4v-4h3.95v4ZM65.07,61H61.12V57h3.95ZM69,57h-4v-4h4Zm4-4H69V41.22h4Z"/><path class="cls-3" d="M80.87,49.12H92.72v4H80.87v4h-4V45.17h4Zm15.8-3.95H80.87v-4h15.8Zm0,11.85V61H80.87V57Z"/><path class="cls-3" d="M100.62,57V41.22h3.95V57ZM120.37,61h-15.8V57h15.8Z"/><rect class="cls-3" x="100.62" y="57.02" width="3.95" height="3.95"/><path class="cls-4" d="M13.81,12V32h-5V7h10v5Zm5,5V12h5v5Zm15,15h-5V22h-5V17h5V7h5Z"/><path class="cls-4" d="M43.79,17h15v5h-15v5h-5V12h5Zm20-5h-20V7h20Zm0,15v5h-20V27Z"/><path class="cls-4" d="M68.76,12V7h5v5Zm5,20h-5V27h5Zm0-15V12h5v5Zm5,10h-5V22h5Zm5-5h-5V17h5Zm5-5h-5V12h5Zm0,5v5h-5V22Zm5-10h-5V7h5Zm0,15v5h-5V27Z"/><path class="cls-4" d="M122.05,12h-10V32h-5V12h-10V7h25Z"/><polygon class="cls-4" points="28.57 57.02 28.57 60.97 8.82 60.97 8.82 41.22 12.77 41.22 12.77 57.02 28.57 57.02"/><path class="cls-4" d="M35.15,49.12H47v4H35.15v4H31.2V45.17h3.95ZM51,45.17H35.15v-4H51ZM51,57V61H35.15V57Z"/><path class="cls-4" d="M54.9,53.07V41.22h4V53.07Zm4,4v-4H62.8v4ZM66.75,61h-4V57h4Zm4-3.95h-4v-4h4Zm4-4h-4V41.22h4Z"/><path class="cls-4" d="M82.55,49.12H94.4v4H82.55v4h-4V45.17h4Zm15.8-3.95H82.55v-4h15.8Zm0,11.85V61H82.55V57Z"/><path class="cls-4" d="M102.3,57V41.22h4V57ZM122.05,61h-15.8V57h15.8Z"/><rect class="cls-4" x="102.3" y="57.02" width="3.95" height="3.95"/><polygon class="cls-4" points="17.82 55.11 17.82 32.1 13.07 32.1 13.07 24.8 15.72 24.8 15.72 21.3 18.13 21.3 18.13 17.57 24.66 17.57 24.66 21.3 27.07 21.3 27.07 24.8 29.54 24.8 29.54 32.1 24.8 32.1 24.79 55.11 17.82 55.11"/><path d="M23.16,19.07V22.8h2.41v3.5H28v4.3H23.3v23h-4v-23H14.57V26.3h2.65V22.8h2.41V19.07h3.53m3-3H16.63V19.8H14.22v3.5H11.57V33.6h4.75v23h10v-23H31V23.3H28.57V19.8H26.16V16.07Z"/><polygon class="cls-2" points="29.04 26.3 29.04 30.6 24.3 30.6 24.29 53.61 20.32 53.61 20.32 30.6 15.57 30.6 15.57 26.3 18.22 26.3 18.22 22.8 20.63 22.8 20.63 19.07 24.16 19.07 24.16 22.8 26.57 22.8 26.57 26.3 29.04 26.3"/><polygon class="cls-3" points="27.04 26.3 27.04 30.6 22.3 30.6 22.29 53.61 18.32 53.61 18.32 30.6 13.57 30.6 13.57 26.3 16.22 26.3 16.22 22.8 18.63 22.8 18.63 19.07 22.16 19.07 22.16 22.8 24.57 22.8 24.57 26.3 27.04 26.3"/><polygon class="cls-4" points="28.04 26.3 28.04 30.6 23.3 30.6 23.29 53.61 19.32 53.61 19.32 30.6 14.57 30.6 14.57 26.3 17.22 26.3 17.22 22.8 19.63 22.8 19.63 19.07 23.16 19.07 23.16 22.8 25.57 22.8 25.57 26.3 28.04 26.3"/></g></g></svg>