<svg width="516" height="247" viewBox="0 0 516 247" fill="none" xmlns="http://www.w3.org/2000/svg">
<path d="M123.403 178.2C93.5031 178.2 69.2031 153.9 69.2031 124C69.2031 94.1 93.5031 69.8 123.403 69.8C153.303 69.8 177.603 94.1 177.603 124C177.603 153.9 153.303 178.2 123.403 178.2ZM123.403 72.8C95.1031 72.8 72.2031 95.8 72.2031 124C72.2031 152.2 95.2031 175.2 123.403 175.2C151.603 175.2 174.603 152.2 174.603 124C174.603 95.8 151.603 72.8 123.403 72.8Z" fill="#324A8A"/>
<path d="M122.303 178C111.403 178 102.203 153.3 102.203 124C102.203 95.7 111.803 70 122.303 70C135.603 70 143.603 98.3 143.603 125.6C143.603 155.4 134.503 178 122.303 178ZM122.303 73C115.403 73 105.203 94.4 105.203 124C105.203 153.2 114.203 175 122.303 175C131.103 175 140.603 156.1 140.603 125.6C140.603 97.1 132.303 73 122.303 73Z" fill="#324A8A"/>
<path d="M121.803 178C102.303 178 85.2031 152.8 85.2031 124C85.2031 93.6 104.903 70 121.803 70C132.503 70 143.303 76 151.203 86.6C159.203 97.2 163.603 110.9 163.603 125.2C163.603 139.3 159.103 152.6 150.803 162.7C142.803 172.4 132.203 178 121.803 178ZM121.803 73C106.303 73 88.2031 95.3 88.2031 124C88.2031 151.2 103.903 175 121.803 175C140.203 175 160.603 154.5 160.603 125.2C160.603 97.4 142.403 73 121.803 73Z" fill="#324A8A"/>
<path d="M123.703 71.5H120.703V176.5H123.703V71.5Z" fill="#324A8A"/>
<path d="M165.505 91.3H80.8047V94.3H165.505V91.3Z" fill="#324A8A"/>
<path d="M173.3 105.3H73.5V108.3H173.3V105.3Z" fill="#324A8A"/>
<path d="M176.102 122.5H70.6016V125.5H176.102V122.5Z" fill="#324A8A"/>
<path d="M173.902 137.8H73.1016V140.8H173.902V137.8Z" fill="#324A8A"/>
<path d="M165.003 154.2H81.2031V157.2H165.003V154.2Z" fill="#324A8A"/>
<path d="M123.397 195.1C84.1969 195.1 52.2969 163.2 52.2969 124C52.2969 84.8 84.1969 52.9 123.397 52.9C162.597 52.9 194.497 84.8 194.497 124C194.497 163.2 162.597 195.1 123.397 195.1ZM123.397 55.9C85.7969 55.9 55.2969 86.5 55.2969 124C55.2969 161.6 85.8969 192.1 123.397 192.1C160.897 192.1 191.497 161.5 191.497 124C191.497 86.4 160.897 55.9 123.397 55.9Z" fill="#324A8A"/>
<path d="M123.4 232.2C63.9 232.2 15.5 183.8 15.5 124.3C15.5 64.8 63.9 16.4 123.4 16.4V19.4C65.6 19.4 18.5 66.4 18.5 124.3C18.5 182.2 65.5 229.2 123.4 229.2V232.2Z" fill="#324A8A"/>
<path d="M53.8003 168.6C53.8003 170.7 52.1003 172.3 50.1003 172.3C48.0003 172.3 46.4003 170.6 46.4003 168.6C46.4003 167.8 46.7003 167 47.2003 166.4C36.6003 148 33.4003 128.4 37.6003 107.8C36.7003 107.1 36.1003 106 36.1003 104.8C36.1003 102.7 37.8003 101.1 39.8003 101.1C41.9003 101.1 43.5003 102.8 43.5003 104.8C43.5003 106.6 42.2003 108.1 40.5003 108.4C36.4003 128.2 39.6003 147.2 49.8003 164.9C49.9003 164.9 50.0003 164.9 50.2003 164.9C52.1003 164.9 53.8003 166.5 53.8003 168.6Z" fill="#324A8A"/>
<path d="M55.9031 77.8L53.0031 82.3L45.2031 77.3L48.1031 72.8L49.5031 73.7L47.7031 76.5L49.4031 77.6L51.1031 75L52.5031 75.9L50.8031 78.5L52.8031 79.8L54.6031 77L55.9031 77.8Z" fill="#324A8A"/>
<path d="M61.8047 70.2L60.2047 72.2L52.2047 71C52.4047 71.2 52.7047 71.3 52.9047 71.5C53.1047 71.7 53.4047 71.8 53.6047 72C53.8047 72.2 54.1047 72.3 54.3047 72.5L57.7047 75.2L56.6047 76.6L49.3047 70.8L50.8047 68.9L58.7047 70.1C58.5047 69.9 58.2047 69.8 58.0047 69.6C57.8047 69.4 57.5047 69.3 57.3047 69.1C57.1047 68.9 56.8047 68.8 56.6047 68.6L53.2047 65.9L54.3047 64.5L61.8047 70.2Z" fill="#324A8A"/>
<path d="M65.1062 60.1C65.8062 60.8 66.3062 61.6 66.5062 62.4C66.7062 63.2 66.7063 64 66.4062 64.7C66.1062 65.5 65.6063 66.3 64.8063 67L62.9062 68.9L56.4062 62.3L58.5062 60.2C59.2062 59.5 59.9062 59 60.7062 58.8C61.5062 58.5 62.2062 58.5 63.0062 58.7C63.7062 58.9 64.4062 59.4 65.1062 60.1ZM63.7062 61.6C63.2062 61.1 62.7063 60.8 62.3063 60.6C61.9063 60.4 61.4062 60.4 61.0062 60.5C60.6062 60.6 60.2062 60.9 59.7062 61.3L59.0062 62L63.3063 66.3L63.9062 65.7C64.6062 65 64.9062 64.3 64.9062 63.6C64.8062 63 64.4062 62.3 63.7062 61.6Z" fill="#324A8A"/>
<path d="M69.5016 62.6L63.6016 55.4L65.1016 54.2L69.9016 60.1L72.8016 57.7L73.8016 59L69.5016 62.6Z" fill="#324A8A"/>
<path d="M79.3047 49.8C79.7047 50.4 80.0047 51 80.1047 51.6C80.2047 52.2 80.3047 52.8 80.3047 53.3C80.2047 53.9 80.0047 54.4 79.7047 54.9C79.4047 55.4 78.9047 55.8 78.2047 56.3C77.6047 56.7 77.0047 57 76.4047 57.1C75.8047 57.2 75.3047 57.2 74.7047 57C74.2047 56.8 73.7047 56.6 73.2047 56.2C72.7047 55.8 72.3047 55.3 71.9047 54.7C71.4047 53.9 71.0047 53.1 70.9047 52.3C70.8047 51.5 70.9047 50.8 71.2047 50.1C71.5047 49.4 72.1047 48.8 73.0047 48.2C73.8047 47.6 74.6047 47.4 75.4047 47.3C76.2047 47.3 76.9047 47.5 77.5047 47.9C78.2047 48.4 78.8047 49 79.3047 49.8ZM73.7047 53.5C74.1047 54 74.4047 54.5 74.8047 54.8C75.2047 55.1 75.6047 55.3 76.0047 55.3C76.4047 55.3 76.9047 55.2 77.3047 54.9C77.8047 54.6 78.1047 54.2 78.2047 53.8C78.4047 53.4 78.4047 53 78.2047 52.5C78.0047 52 77.8047 51.5 77.5047 51C77.0047 50.2 76.4047 49.6 75.8047 49.4C75.2047 49.2 74.5047 49.2 73.8047 49.7C73.3047 50 73.0047 50.4 72.9047 50.8C72.7047 51.2 72.7047 51.6 72.8047 52.1C73.1047 52.4 73.3047 52.9 73.7047 53.5Z" fill="#324A8A"/>
<path d="M86.8016 48.3C87.1016 48.8 87.2016 49.3 87.1016 49.8C87.0016 50.3 86.8016 50.7 86.5016 51.2C86.1016 51.6 85.6016 52 85.0016 52.3C84.7016 52.4 84.4016 52.6 84.1016 52.7C83.8016 52.8 83.5016 52.9 83.2016 52.9C82.9016 53 82.6016 53 82.3016 53L81.5016 51.4C82.0016 51.4 82.5016 51.3 83.0016 51.2C83.5016 51.1 83.9016 51 84.4016 50.8C84.7016 50.7 84.9016 50.5 85.0016 50.3C85.1016 50.1 85.2016 50 85.2016 49.8C85.2016 49.6 85.2016 49.5 85.1016 49.3C85.0016 49.1 84.8016 49 84.6016 48.9C84.4016 48.8 84.1016 48.8 83.8016 48.8C83.5016 48.8 83.1016 48.8 82.8016 48.8C82.6016 48.8 82.3016 48.8 82.0016 48.8C81.7016 48.8 81.4016 48.7 81.1016 48.7C80.8016 48.6 80.5016 48.5 80.2016 48.3C79.9016 48.1 79.7016 47.8 79.5016 47.4C79.2016 46.9 79.1016 46.4 79.2016 46C79.3016 45.6 79.4016 45.1 79.8016 44.7C80.1016 44.3 80.6016 43.9 81.1016 43.7C81.5016 43.5 82.0016 43.3 82.4016 43.2C82.8016 43.1 83.3016 43 83.8016 43L83.9016 44.7C83.4016 44.7 83.0016 44.8 82.7016 44.9C82.4016 45 82.0016 45.1 81.7016 45.2C81.5016 45.3 81.3016 45.4 81.2016 45.6C81.1016 45.7 81.0016 45.9 81.0016 46.1C81.0016 46.3 81.0016 46.4 81.1016 46.6C81.2016 46.8 81.3016 46.9 81.5016 47C81.7016 47.1 81.9016 47.1 82.2016 47.1C82.5016 47.1 82.9016 47.1 83.3016 47.1C83.8016 47.1 84.3016 47.1 84.7016 47.2C85.1016 47.3 85.5016 47.4 85.8016 47.6C86.3016 47.5 86.6016 47.8 86.8016 48.3Z" fill="#324A8A"/>
<path d="M94 48L89.1 50.1L85.5 41.5L90.4 39.4L91 40.9L87.9 42.2L88.7 44.1L91.6 42.9L92.2 44.4L89.3 45.6L90.2 47.8L93.3 46.5L94 48Z" fill="#324A8A"/>
<path d="M103.001 42.6C103.101 43.1 103.101 43.6 103.001 44.1C102.901 44.6 102.601 45 102.101 45.3C101.701 45.6 101.101 45.9 100.401 46.1C100.101 46.2 99.8014 46.3 99.5014 46.3C99.2014 46.3 98.9014 46.4 98.6014 46.4C98.3014 46.4 98.0014 46.4 97.7014 46.3L97.2014 44.5C97.7014 44.6 98.2014 44.6 98.7014 44.6C99.2014 44.6 99.7014 44.6 100.101 44.4C100.401 44.3 100.601 44.2 100.801 44.1C101.001 44 101.101 43.8 101.101 43.6C101.101 43.4 101.101 43.3 101.101 43.1C101.001 42.9 100.901 42.7 100.701 42.6C100.501 42.5 100.301 42.4 100.001 42.3C99.7014 42.2 99.4014 42.2 99.0014 42.1C98.8014 42.1 98.5014 42 98.2014 41.9C97.9014 41.8 97.6014 41.7 97.4014 41.6C97.1014 41.5 96.9014 41.3 96.7014 41C96.5014 40.7 96.3014 40.4 96.2014 40C96.1014 39.5 96.0014 39 96.2014 38.5C96.4014 38 96.6014 37.7 97.0014 37.3C97.4014 37 97.9014 36.7 98.5014 36.5C99.0014 36.4 99.4014 36.3 99.9014 36.3C100.401 36.3 100.801 36.3 101.401 36.4L101.201 38C100.701 37.9 100.301 37.9 100.001 37.9C99.6014 37.9 99.3014 37.9 99.0014 38C98.8014 38.1 98.6014 38.2 98.4014 38.3C98.3014 38.4 98.2014 38.6 98.1014 38.7C98.1014 38.9 98.1014 39 98.1014 39.2C98.2014 39.4 98.3014 39.6 98.4014 39.7C98.5014 39.8 98.8014 39.9 99.1014 40C99.4014 40.1 99.7014 40.1 100.201 40.2C100.701 40.3 101.201 40.4 101.601 40.5C102.001 40.6 102.301 40.8 102.601 41.1C102.701 41.7 102.901 42.1 103.001 42.6Z" fill="#324A8A"/>
<path d="M106.103 35.1C107.303 34.9 108.203 35 108.803 35.4C109.403 35.8 109.803 36.4 110.003 37.3C110.103 37.7 110.103 38.1 110.003 38.5C109.903 38.9 109.803 39.2 109.603 39.6C109.403 39.9 109.103 40.2 108.603 40.5C108.203 40.7 107.603 40.9 107.003 41.1L106.203 41.3L106.803 44.5L104.903 44.9L103.203 35.8L106.103 35.1ZM106.303 36.7L105.403 36.9L105.903 39.6L106.503 39.5C106.903 39.4 107.203 39.3 107.403 39.2C107.603 39.1 107.803 38.9 107.903 38.6C108.003 38.4 108.003 38.1 108.003 37.8C107.903 37.4 107.703 37 107.403 36.9C107.203 36.7 106.803 36.6 106.303 36.7Z" fill="#324A8A"/>
<path d="M112.5 43.5L111.5 34.3L113.5 34.1L114.5 43.3L112.5 43.5Z" fill="#324A8A"/>
<path d="M121.802 42.8L116.502 43L116.102 33.7L121.402 33.5L121.502 35.1L118.102 35.3L118.202 37.3L121.302 37.2L121.402 38.8L118.302 38.9L118.402 41.3L121.802 41.1V42.8Z" fill="#324A8A"/>
<path d="M127.002 37.8L130.702 38L130.502 42.8C130.002 42.9 129.502 43 129.002 43.1C128.502 43.2 127.902 43.2 127.202 43.2C126.302 43.2 125.502 42.9 124.902 42.5C124.302 42.1 123.802 41.5 123.502 40.8C123.202 40.1 123.102 39.2 123.102 38.2C123.102 37.2 123.402 36.4 123.802 35.7C124.202 35 124.802 34.5 125.502 34.1C126.202 33.7 127.102 33.6 128.202 33.6C128.702 33.6 129.202 33.7 129.602 33.8C130.102 33.9 130.502 34.1 130.902 34.3L130.202 35.8C129.902 35.6 129.602 35.5 129.202 35.4C128.802 35.3 128.502 35.2 128.102 35.2C127.502 35.2 127.002 35.3 126.602 35.5C126.202 35.7 125.802 36.1 125.602 36.6C125.302 37.1 125.202 37.6 125.202 38.2C125.202 38.8 125.202 39.3 125.402 39.8C125.502 40.3 125.802 40.7 126.102 40.9C126.402 41.2 126.902 41.3 127.502 41.4C127.802 41.4 128.002 41.4 128.202 41.4C128.402 41.4 128.602 41.4 128.702 41.3L128.802 39.4L127.002 39.3V37.8Z" fill="#324A8A"/>
<path d="M137.402 44.2L132.102 43.4L133.502 34.2L138.802 35L138.602 36.6L135.302 36.1L135.002 38.1L138.102 38.6L137.902 40.2L134.802 39.7L134.402 42.1L137.702 42.6L137.402 44.2Z" fill="#324A8A"/>
<path d="M138.805 44.5L140.905 35.5L142.805 36L141.005 43.5L144.705 44.4L144.305 46L138.805 44.5Z" fill="#324A8A"/>
<path d="M145.602 46.2L148.302 37.3L150.202 37.9L147.502 46.8L145.602 46.2Z" fill="#324A8A"/>
<path d="M149.305 47.3L152.605 38.6L154.405 39.3L151.605 46.4L155.105 47.8L154.505 49.3L149.305 47.3Z" fill="#324A8A"/>
<path d="M155.703 49.9L159.803 41.6L161.603 42.5L158.303 49.4L161.703 51L161.003 52.5L155.703 49.9Z" fill="#324A8A"/>
<path d="M173.1 49L170 54.1C169.7 54.6 169.2 55.1 168.7 55.4C168.2 55.7 167.6 55.8 167 55.8C166.4 55.8 165.7 55.5 164.9 55.1C163.9 54.5 163.2 53.7 163 52.8C162.8 51.9 162.9 51.1 163.5 50.2L166.6 45.1L168.3 46.1L165.3 50.9C164.9 51.6 164.8 52.1 164.9 52.5C165 52.9 165.3 53.3 165.8 53.6C166.2 53.8 166.5 53.9 166.8 54C167.1 54 167.4 53.9 167.7 53.7C168 53.5 168.2 53.2 168.5 52.8L171.5 48L173.1 49Z" fill="#324A8A"/>
<path d="M175.606 59.2C175.306 59.6 174.906 59.9 174.406 60.1C173.906 60.3 173.406 60.3 172.906 60.1C172.406 60 171.806 59.7 171.206 59.2C170.906 59 170.706 58.8 170.506 58.6C170.306 58.4 170.106 58.2 169.906 57.9C169.706 57.6 169.606 57.4 169.406 57.2L170.506 55.7C170.706 56.1 171.006 56.5 171.306 56.9C171.606 57.3 171.906 57.7 172.306 57.9C172.606 58.1 172.806 58.2 173.006 58.3C173.206 58.4 173.406 58.3 173.606 58.3C173.806 58.2 173.906 58.1 174.006 58C174.106 57.8 174.206 57.6 174.206 57.4C174.206 57.2 174.106 56.9 174.006 56.6C173.906 56.3 173.706 56 173.506 55.7C173.406 55.5 173.306 55.2 173.206 55C173.106 54.8 173.006 54.4 172.906 54.1C172.806 53.8 172.906 53.5 172.906 53.1C173.006 52.8 173.106 52.4 173.406 52.1C173.706 51.7 174.106 51.4 174.606 51.2C175.006 51 175.506 51 176.006 51.1C176.506 51.2 177.006 51.5 177.506 51.9C177.906 52.2 178.206 52.5 178.506 52.9C178.806 53.3 179.006 53.7 179.306 54.1L177.906 54.9C177.706 54.5 177.406 54.2 177.206 53.9C177.006 53.6 176.706 53.4 176.506 53.2C176.306 53.1 176.106 53 175.906 52.9C175.706 52.8 175.506 52.9 175.406 52.9C175.206 53 175.106 53.1 175.006 53.2C174.906 53.4 174.806 53.6 174.806 53.8C174.806 54 174.906 54.2 175.006 54.5C175.106 54.8 175.306 55.1 175.506 55.5C175.706 56 175.906 56.4 176.006 56.8C176.106 57.2 176.206 57.6 176.106 58C176.106 58.4 175.906 58.8 175.606 59.2Z" fill="#324A8A"/>
<path d="M175 62.1L181.1 55.1L182.6 56.4L176.5 63.4L175 62.1Z" fill="#324A8A"/>
<path d="M187.205 67.4001C186.705 67.9001 186.205 68.3 185.605 68.6C185.105 68.9 184.505 69 184.005 69.1C183.405 69.1 182.905 69 182.305 68.8C181.805 68.6 181.205 68.2 180.705 67.6C180.205 67.1 179.805 66.5 179.605 66C179.405 65.5 179.305 64.9 179.305 64.3C179.405 63.7 179.505 63.2 179.805 62.7C180.105 62.2 180.505 61.6 181.005 61.1C181.705 60.4 182.405 60 183.105 59.7C183.805 59.4 184.605 59.4 185.305 59.6C186.005 59.8 186.805 60.3 187.505 61C188.205 61.7 188.605 62.5 188.805 63.2C189.005 63.9 188.905 64.7001 188.605 65.4001C188.305 66.1001 187.905 66.7001 187.205 67.4001ZM182.505 62.5C182.005 63 181.705 63.4 181.505 63.8C181.305 64.2 181.205 64.7 181.305 65.1C181.405 65.5 181.605 65.9 182.005 66.3C182.405 66.7 182.805 66.9 183.205 67C183.605 67.1 184.105 67 184.505 66.8C184.905 66.6 185.405 66.3 185.905 65.8C186.605 65.1 187.005 64.5 187.205 63.8C187.305 63.1 187.105 62.5001 186.505 61.9001C186.105 61.5001 185.705 61.3 185.305 61.2C184.905 61.1 184.405 61.2001 184.005 61.4001C183.405 61.7001 182.905 62.1 182.505 62.5Z" fill="#324A8A"/>
<path d="M189.702 78.2L188.202 76.2L191.302 68.7C191.102 68.9 190.902 69.1 190.602 69.3C190.402 69.5 190.102 69.7 189.902 69.9C189.702 70.1 189.402 70.3 189.202 70.5L185.702 73.1L184.602 71.7L192.002 66.1L193.502 68.1L190.402 75.5C190.602 75.3 190.802 75.1 191.102 75C191.302 74.8 191.502 74.6 191.802 74.5C192.002 74.3 192.202 74.1 192.502 74L196.002 71.3L197.102 72.7L189.702 78.2Z" fill="#324A8A"/>
<path d="M61.9969 178L63.9969 180.1C64.8969 181 65.3969 181.8 65.5969 182.5C65.7969 183.2 65.5969 183.8 64.8969 184.5C64.5969 184.7 64.3969 184.9 64.0969 185C63.7969 185.1 63.4969 185.2 63.2969 185.1C62.9969 185.1 62.7969 185 62.4969 184.8C62.6969 185.1 62.7969 185.3 62.7969 185.6C62.8969 185.9 62.7969 186.2 62.6969 186.5C62.5969 186.8 62.3969 187.1 61.9969 187.5C61.5969 187.9 61.1969 188.1 60.6969 188.2C60.1969 188.3 59.6969 188.2 59.1969 188C58.6969 187.8 58.1969 187.4 57.6969 186.9L55.2969 184.4L61.9969 178ZM59.5969 183.1L57.8969 184.8L58.7969 185.7C59.1969 186.1 59.5969 186.3 59.8969 186.4C60.1969 186.5 60.4969 186.3 60.7969 186C60.9969 185.8 61.0969 185.7 61.0969 185.5C61.1969 185.3 61.0969 185.1 60.9969 184.9C60.8969 184.7 60.6969 184.4 60.3969 184.1L59.5969 183.1ZM60.7969 182L61.5969 182.8C61.9969 183.2 62.2969 183.4 62.5969 183.5C62.8969 183.5 63.1969 183.4 63.3969 183.2C63.6969 183 63.6969 182.7 63.6969 182.4C63.5969 182.1 63.3969 181.8 62.9969 181.4L62.2969 180.7L60.7969 182Z" fill="#324A8A"/>
<path d="M65.7953 194.4L61.6953 190.9L67.6953 183.9L71.7953 187.4L70.6953 188.6L68.0953 186.4L66.7953 187.9L69.1953 189.9L68.1953 191.1L65.7953 189.1L64.1953 190.9L66.7953 193.1L65.7953 194.4Z" fill="#324A8A"/>
<path d="M67.5938 195.8L72.9938 188.3L74.5938 189.5L70.0938 195.7L73.1937 197.9L72.1937 199.2L67.5938 195.8Z" fill="#324A8A"/>
<path d="M78.4984 202.9L73.8984 200.2L78.6984 192.2L83.2984 194.9L82.4984 196.3L79.5984 194.6L78.5984 196.3L81.2984 197.9L80.4984 199.3L77.7984 197.7L76.5984 199.8L79.4984 201.5L78.4984 202.9Z" fill="#324A8A"/>
<path d="M91.2969 198.9L88.6969 204.3C88.3969 204.9 88.0969 205.3 87.5969 205.7C87.0969 206.1 86.5969 206.2 85.8969 206.3C85.2969 206.3 84.4969 206.2 83.7969 205.8C82.6969 205.3 81.9969 204.6 81.6969 203.8C81.3969 203 81.3969 202.1 81.8969 201.1L84.4969 195.7L86.2969 196.5L83.8969 201.6C83.5969 202.3 83.4969 202.8 83.5969 203.3C83.7969 203.7 84.0969 204.1 84.6969 204.3C85.0969 204.5 85.3969 204.6 85.6969 204.5C85.9969 204.5 86.2969 204.4 86.4969 204.1C86.6969 203.9 86.9969 203.5 87.1969 203.1L89.5969 198L91.2969 198.9Z" fill="#324A8A"/>
<path d="M96.1953 202.2C95.7953 202.1 95.4953 202 95.1953 202.1C94.8953 202.2 94.5953 202.3 94.2953 202.5C93.9953 202.7 93.7953 203 93.4953 203.3C93.2953 203.6 93.0953 204 92.8953 204.5C92.6953 205.1 92.5953 205.7 92.5953 206.2C92.5953 206.7 92.6953 207.1 92.9953 207.5C93.1953 207.8 93.5953 208.1 94.0953 208.3C94.4953 208.4 94.7953 208.5 95.1953 208.6C95.5953 208.6 95.9953 208.7 96.4953 208.7L95.9953 210.3C95.5953 210.3 95.0953 210.3 94.6953 210.2C94.2953 210.1 93.8953 210 93.3953 209.9C92.4953 209.6 91.7953 209.1 91.3953 208.6C90.9953 208 90.6953 207.3 90.6953 206.6C90.6953 205.8 90.7953 205 91.0953 204.1C91.2953 203.4 91.5953 202.9 91.9953 202.4C92.3953 201.9 92.7953 201.5 93.2953 201.2C93.7953 200.9 94.2953 200.8 94.8953 200.7C95.4953 200.7 96.0953 200.8 96.7953 201C97.1953 201.2 97.6953 201.4 98.0953 201.6C98.4953 201.9 98.8953 202.2 99.1953 202.5L98.0953 203.8C97.7953 203.5 97.4953 203.3 97.2953 203C96.7953 202.5 96.4953 202.3 96.1953 202.2Z" fill="#324A8A"/>
<path d="M105.494 212.8L103.594 212.3L104.494 208.4L100.894 207.6L99.9938 211.5L98.0938 211L100.194 202L102.094 202.5L101.294 206L104.894 206.8L105.694 203.3L107.594 203.8L105.494 212.8Z" fill="#324A8A"/>
<path d="M111.798 213.7L109.898 213.4L110.898 205.8L108.398 205.5L108.598 203.9L115.498 204.8L115.298 206.4L112.798 206.1L111.798 213.7Z" fill="#324A8A"/>
<path d="M121.394 214.4L116.094 214.2L116.494 204.9L121.794 205.1L121.694 206.7L118.294 206.5L118.194 208.5L121.294 208.6L121.194 210.2L118.094 210.1L117.994 212.5L121.394 212.7V214.4Z" fill="#324A8A"/>
<path d="M127.298 214.2L125.298 214.3L124.998 206.7L122.498 206.8L122.398 205.2L129.398 204.9L129.498 206.5L126.998 206.6L127.298 214.2Z" fill="#324A8A"/>
<path d="M136.797 213.3L131.497 214L130.297 204.8L135.597 204.1L135.797 205.7L132.497 206.1L132.797 208.1L135.897 207.7L136.097 209.3L132.997 209.7L133.297 212.1L136.597 211.7L136.797 213.3Z" fill="#324A8A"/>
<path d="M145.897 211.3L143.997 211.8L142.097 204.4L139.697 205L139.297 203.4L146.097 201.7L146.497 203.3L144.097 203.9L145.897 211.3Z" fill="#324A8A"/>
<path d="M154.097 198.8L156.197 204.4C156.397 205 156.497 205.6 156.397 206.2C156.297 206.8 156.097 207.3 155.597 207.8C155.197 208.3 154.497 208.7 153.697 209C152.497 209.4 151.597 209.5 150.697 209.1C149.797 208.7 149.297 208.1 148.897 207.1L146.797 201.5L148.597 200.8L150.597 206.1C150.897 206.8 151.197 207.3 151.597 207.5C151.997 207.7 152.497 207.7 153.097 207.5C153.497 207.4 153.797 207.2 153.997 206.9C154.197 206.6 154.297 206.4 154.297 206.1C154.297 205.8 154.197 205.4 154.097 204.9L152.097 199.6L154.097 198.8Z" fill="#324A8A"/>
<path d="M167.098 202.7L164.898 203.8L158.098 199.4H157.998C158.098 199.7 158.298 199.9 158.398 200.2C158.498 200.5 158.698 200.7 158.798 201C158.898 201.3 159.098 201.5 159.198 201.8L161.198 205.7L159.598 206.5L155.398 198.2L157.598 197.1L164.298 201.5C164.198 201.2 163.998 201 163.898 200.7C163.798 200.5 163.598 200.2 163.498 200C163.398 199.8 163.198 199.5 163.098 199.3L161.098 195.4L162.698 194.6L167.098 202.7Z" fill="#324A8A"/>
<path d="M176.395 196.7L174.295 198.1L166.995 194.5C167.195 194.7 167.395 195 167.495 195.2C167.695 195.4 167.895 195.7 167.995 195.9C168.195 196.1 168.295 196.4 168.495 196.6L170.895 200.2L169.395 201.2L164.195 193.5L166.295 192.1L173.495 195.6C173.295 195.4 173.195 195.1 172.995 194.9C172.795 194.7 172.695 194.4 172.495 194.2C172.295 194 172.195 193.7 171.995 193.5L169.595 189.9L171.095 188.9L176.395 196.7Z" fill="#324A8A"/>
<path d="M182.695 191.5L178.595 194.9L172.695 187.8L176.795 184.4L177.795 185.6L175.195 187.8L176.495 189.4L178.895 187.4L179.895 188.6L177.495 190.6L178.995 192.4L181.595 190.2L182.695 191.5Z" fill="#324A8A"/>
<path d="M184.297 190L177.797 183.4L179.197 182L184.597 187.4L187.297 184.8L188.397 186L184.297 190Z" fill="#324A8A"/>
<path d="M192.102 168.6C192.102 170.7 193.802 172.3 195.802 172.3C197.902 172.3 199.502 170.6 199.502 168.6C199.502 167.8 199.202 167 198.702 166.4C209.302 148 212.502 128.4 208.302 107.8C209.202 107.1 209.802 106 209.802 104.8C209.802 102.7 208.102 101.1 206.102 101.1C204.002 101.1 202.402 102.8 202.402 104.8C202.402 106.6 203.702 108.1 205.402 108.4C209.502 128.2 206.302 147.2 196.102 164.9C196.002 164.9 195.902 164.9 195.702 164.9C193.802 164.9 192.102 166.5 192.102 168.6Z" fill="#324A8A"/>
<path d="M393.398 232.2V229.2C451.198 229.2 498.298 182.2 498.298 124.3C498.298 66.4 451.298 19.4 393.398 19.4V16.4C452.898 16.4 501.298 64.8 501.298 124.3C501.298 183.8 452.898 232.2 393.398 232.2Z" fill="#324A8A"/>
<path d="M134.398 234V226.1H136.098V234H134.398Z" fill="#324A8A"/>
<path d="M145 234H142.9L139.5 228.1C139.5 228.3 139.5 228.6 139.5 228.8C139.5 229 139.5 229.3 139.5 229.5C139.5 229.7 139.5 230 139.5 230.2V233.9H138V226H140.1L143.5 231.9C143.5 231.7 143.5 231.4 143.5 231.2C143.5 231 143.5 230.7 143.5 230.5C143.5 230.3 143.5 230 143.5 229.8V226.1H145V234Z" fill="#324A8A"/>
<path d="M148.6 234H147V226.1H151.5V227.5H148.6V229.5H151.3V230.9H148.6V234Z" fill="#324A8A"/>
<path d="M152.898 234V226.1H154.598V234H152.898Z" fill="#324A8A"/>
<path d="M163.5 234H161.4L158 228.1C158 228.3 158 228.6 158 228.8C158 229.1 158 229.3 158 229.5C158 229.7 158 230 158 230.2V233.9H156.5V226H158.6L162 231.9C162 231.7 162 231.4 162 231.2C162 231 162 230.7 162 230.5C162 230.3 162 230 162 229.8V226.1H163.5V234Z" fill="#324A8A"/>
<path d="M165.398 234V226.1H167.098V234H165.398Z" fill="#324A8A"/>
<path d="M171.995 234H170.295V227.5H168.195V226.1H174.095V227.5H171.995V234Z" fill="#324A8A"/>
<path d="M177.695 229.4L179.295 226.2H181.095L178.495 231V234.1H176.795V231.1L174.195 226.2H175.995L177.695 229.4Z" fill="#324A8A"/>
<path d="M184.398 230C184.398 229.6 184.498 229.3 184.598 229C184.698 228.8 184.898 228.6 185.198 228.5C185.398 228.4 185.698 228.3 185.998 228.3C186.298 228.3 186.498 228.4 186.798 228.5C186.998 228.6 187.198 228.8 187.398 229C187.498 229.2 187.598 229.6 187.598 230C187.598 230.4 187.498 230.7 187.398 231C187.298 231.3 187.098 231.4 186.798 231.6C186.598 231.7 186.298 231.8 185.998 231.8C185.698 231.8 185.398 231.7 185.198 231.6C184.998 231.5 184.798 231.3 184.598 231C184.398 230.7 184.398 230.4 184.398 230Z" fill="#324A8A"/>
<path d="M196.4 227.9C196.4 228.3 196.3 228.6 196.2 228.8C196.1 229 195.8 229.3 195.6 229.4C195.4 229.5 195.1 229.7 194.7 229.8C195.3 229.9 195.8 230.1 196.1 230.4C196.4 230.7 196.6 231.1 196.6 231.6C196.6 232.1 196.5 232.5 196.3 232.8C196.1 233.2 195.7 233.4 195.3 233.7C194.9 234 194.2 234 193.5 234C193.1 234 192.7 234 192.3 233.9C191.9 233.8 191.6 233.7 191.2 233.6V232.2C191.5 232.4 191.9 232.5 192.3 232.6C192.7 232.7 193 232.7 193.3 232.7C193.9 232.7 194.3 232.6 194.5 232.4C194.7 232.2 194.9 231.9 194.9 231.5C194.9 231.3 194.8 231.1 194.7 230.9C194.6 230.7 194.4 230.6 194.1 230.6C193.8 230.6 193.4 230.5 193 230.5H192.4V229.2H193C193.5 229.2 193.9 229.2 194.1 229.1C194.4 229 194.5 228.9 194.6 228.7C194.7 228.5 194.7 228.4 194.7 228.2C194.7 227.9 194.6 227.7 194.4 227.5C194.2 227.3 193.9 227.3 193.5 227.3C193.2 227.3 193 227.3 192.8 227.4C192.6 227.5 192.4 227.5 192.2 227.6C192 227.7 191.9 227.8 191.8 227.9L191 226.8C191.3 226.6 191.7 226.4 192.1 226.2C192.5 226.1 193 226 193.6 226C194.4 226 195.1 226.2 195.5 226.5C195.9 226.8 196.4 227.3 196.4 227.9Z" fill="#324A8A"/>
<path d="M204.5 230C204.5 230.9 204.3 231.6 204 232.2C203.7 232.8 203.2 233.2 202.5 233.5C201.9 233.8 201.1 233.9 200.2 233.9H198V226H200.5C201.3 226 202 226.1 202.6 226.4C203.2 226.7 203.7 227.1 204 227.7C204.4 228.4 204.5 229.1 204.5 230ZM202.8 230C202.8 229.4 202.7 228.9 202.5 228.6C202.3 228.2 202.1 227.9 201.7 227.8C201.4 227.6 201 227.5 200.5 227.5H199.6V232.6H200.3C201.1 232.6 201.7 232.4 202.1 232C202.6 231.5 202.8 230.9 202.8 230Z" fill="#324A8A"/>
<path d="M208.398 230C208.398 229.6 208.498 229.3 208.598 229C208.698 228.8 208.898 228.6 209.198 228.5C209.398 228.4 209.698 228.3 209.998 228.3C210.298 228.3 210.498 228.4 210.798 228.5C210.998 228.6 211.198 228.8 211.398 229C211.498 229.2 211.598 229.6 211.598 230C211.598 230.4 211.498 230.7 211.398 231C211.298 231.3 211.098 231.4 210.798 231.6C210.598 231.7 210.298 231.8 209.998 231.8C209.698 231.8 209.398 231.7 209.198 231.6C208.998 231.5 208.798 231.3 208.598 231C208.398 230.7 208.398 230.4 208.398 230Z" fill="#324A8A"/>
<path d="M220.397 231.8C220.397 232.3 220.297 232.7 220.097 233C219.897 233.3 219.497 233.6 219.097 233.8C218.697 234 218.097 234.1 217.497 234.1C217.197 234.1 216.997 234.1 216.697 234C216.397 233.9 216.197 233.9 215.997 233.8C215.797 233.7 215.497 233.6 215.297 233.5V232C215.697 232.2 216.097 232.3 216.497 232.4C216.897 232.5 217.297 232.6 217.697 232.6C217.997 232.6 218.197 232.6 218.397 232.5C218.597 232.4 218.697 232.3 218.797 232.2C218.897 232.1 218.897 231.9 218.897 231.8C218.897 231.6 218.797 231.4 218.697 231.3C218.597 231.2 218.397 231 218.197 230.9C217.997 230.8 217.697 230.6 217.397 230.5C217.197 230.4 216.997 230.3 216.797 230.2C216.597 230.1 216.397 229.9 216.197 229.7C215.997 229.5 215.797 229.3 215.697 229C215.597 228.7 215.497 228.4 215.497 228.1C215.497 227.6 215.597 227.2 215.797 226.9C215.997 226.6 216.297 226.3 216.697 226.1C217.097 225.9 217.597 225.8 218.097 225.8C218.497 225.8 218.897 225.8 219.297 225.9C219.697 226 220.097 226.1 220.497 226.3L219.997 227.6C219.597 227.5 219.297 227.3 218.997 227.3C218.697 227.2 218.397 227.2 218.097 227.2C217.897 227.2 217.697 227.2 217.597 227.3C217.497 227.4 217.297 227.5 217.297 227.6C217.197 227.7 217.197 227.9 217.197 228C217.197 228.2 217.297 228.3 217.397 228.5C217.497 228.6 217.697 228.7 217.897 228.9C218.097 229 218.397 229.2 218.697 229.3C219.097 229.5 219.397 229.7 219.697 229.9C219.997 230.1 220.197 230.3 220.397 230.6C220.297 231 220.397 231.4 220.397 231.8Z" fill="#324A8A"/>
<path d="M228.195 226.1V231.2C228.195 231.7 228.095 232.2 227.795 232.7C227.595 233.1 227.195 233.5 226.695 233.7C226.195 234 225.595 234.1 224.895 234.1C223.895 234.1 223.095 233.8 222.495 233.3C221.895 232.8 221.695 232.1 221.695 231.2V226.1H223.395V230.9C223.395 231.5 223.495 232 223.795 232.3C224.095 232.6 224.495 232.7 224.995 232.7C225.395 232.7 225.695 232.6 225.895 232.5C226.095 232.4 226.295 232.2 226.395 231.9C226.495 231.6 226.595 231.3 226.595 230.9V226.1H228.195Z" fill="#324A8A"/>
<path d="M232.3 226.1C233 226.1 233.6 226.2 234.1 226.4C234.6 226.6 234.9 226.8 235.1 227.2C235.3 227.6 235.4 228 235.4 228.5C235.4 228.9 235.3 229.2 235.2 229.4C235.1 229.7 234.9 229.9 234.7 230.1C234.5 230.3 234.2 230.4 234 230.6L236.3 234H234.5L232.6 231H231.7V234H230V226.1H232.3ZM232.2 227.5H231.7V229.6H232.2C232.8 229.6 233.1 229.5 233.4 229.3C233.6 229.1 233.8 228.8 233.8 228.5C233.8 228.1 233.7 227.9 233.4 227.7C233.1 227.5 232.8 227.5 232.2 227.5Z" fill="#324A8A"/>
<path d="M239.495 226.1C240.195 226.1 240.795 226.2 241.295 226.4C241.795 226.6 242.095 226.8 242.295 227.2C242.495 227.6 242.595 228 242.595 228.5C242.595 228.9 242.495 229.2 242.395 229.4C242.295 229.7 242.095 229.9 241.895 230.1C241.695 230.3 241.395 230.4 241.195 230.6L243.495 234H241.695L239.795 231H238.895V234H237.195V226.1H239.495ZM239.395 227.5H238.895V229.6H239.395C239.995 229.6 240.295 229.5 240.595 229.3C240.795 229.1 240.995 228.8 240.995 228.5C240.995 228.1 240.895 227.9 240.595 227.7C240.295 227.5 239.995 227.5 239.395 227.5Z" fill="#324A8A"/>
<path d="M249 234H244.5V226.1H249V227.5H246.1V229.2H248.8V230.6H246.1V232.6H249V234Z" fill="#324A8A"/>
<path d="M255.4 234L254.8 232.1H251.9L251.3 234H249.5L252.3 226.1H254.3L257.1 234H255.4ZM254.4 230.7L253.8 228.9C253.8 228.8 253.7 228.6 253.7 228.4C253.6 228.2 253.6 228 253.5 227.8C253.4 227.6 253.4 227.4 253.4 227.3C253.4 227.4 253.3 227.6 253.3 227.8C253.2 228 253.2 228.2 253.1 228.4C253 228.6 253 228.7 253 228.8L252.4 230.6H254.4V230.7Z" fill="#324A8A"/>
<path d="M258.102 234V226.1H259.802V232.6H263.002V234H258.102Z" fill="#324A8A"/>
<path d="M266.602 230C266.602 229.6 266.702 229.3 266.802 229C266.902 228.8 267.102 228.6 267.402 228.5C267.602 228.4 267.902 228.3 268.202 228.3C268.502 228.3 268.702 228.4 269.002 228.5C269.202 228.6 269.402 228.8 269.602 229C269.702 229.2 269.802 229.6 269.802 230C269.802 230.4 269.702 230.7 269.602 231C269.502 231.3 269.302 231.4 269.002 231.6C268.802 231.7 268.502 231.8 268.202 231.8C267.902 231.8 267.602 231.7 267.402 231.6C267.202 231.5 267.002 231.3 266.802 231C266.702 230.7 266.602 230.4 266.602 230Z" fill="#324A8A"/>
<path d="M280.398 234H278.698V230.6H275.598V234H273.898V226.1H275.598V229.2H278.698V226.1H280.398V234Z" fill="#324A8A"/>
<path d="M284.797 229.4L286.397 226.2H288.197L285.597 231V234.1H283.897V231.1L281.297 226.2H283.097L284.797 229.4Z" fill="#324A8A"/>
<path d="M291.602 226.1C292.602 226.1 293.402 226.3 293.802 226.8C294.302 227.2 294.502 227.8 294.502 228.6C294.502 228.9 294.402 229.3 294.302 229.6C294.202 229.9 294.002 230.2 293.802 230.4C293.602 230.6 293.302 230.8 292.902 231C292.502 231.1 292.002 231.2 291.502 231.2H290.802V234H289.102V226.1H291.602ZM291.502 227.5H290.702V229.8H291.202C291.502 229.8 291.802 229.8 292.002 229.7C292.202 229.6 292.402 229.5 292.502 229.3C292.602 229.1 292.702 228.9 292.702 228.6C292.702 228.2 292.602 227.9 292.402 227.7C292.302 227.6 292.002 227.5 291.502 227.5Z" fill="#324A8A"/>
<path d="M302.9 234H300.8L297.4 228.1C297.4 228.3 297.4 228.6 297.4 228.8C297.4 229.1 297.4 229.3 297.4 229.5C297.4 229.7 297.4 230 297.4 230.2V233.9H296V226H298.1L301.5 231.9C301.5 231.7 301.5 231.4 301.5 231.2C301.5 231 301.5 230.7 301.5 230.5C301.5 230.3 301.5 230 301.5 229.8V226.1H303V234H302.9Z" fill="#324A8A"/>
<path d="M311.998 230C311.998 230.6 311.898 231.2 311.798 231.7C311.598 232.2 311.398 232.6 311.098 233C310.798 233.4 310.398 233.6 309.898 233.8C309.398 234 308.898 234.1 308.198 234.1C307.498 234.1 306.998 234 306.498 233.8C305.998 233.6 305.598 233.3 305.298 233C304.998 232.6 304.798 232.2 304.598 231.7C304.398 231.2 304.398 230.6 304.398 230C304.398 229.2 304.498 228.5 304.798 227.9C305.098 227.3 305.498 226.8 305.998 226.5C306.498 226.2 307.298 226 308.098 226C308.998 226 309.698 226.2 310.198 226.5C310.698 226.8 311.198 227.3 311.398 227.9C311.898 228.5 311.998 229.2 311.998 230ZM306.298 230C306.298 230.5 306.398 231 306.498 231.4C306.598 231.8 306.898 232.1 307.098 232.3C307.398 232.5 307.798 232.6 308.198 232.6C308.698 232.6 309.098 232.5 309.298 232.3C309.598 232.1 309.798 231.8 309.898 231.4C309.998 231 310.098 230.5 310.098 230C310.098 229.2 309.898 228.5 309.598 228.1C309.298 227.6 308.798 227.4 308.098 227.4C307.598 227.4 307.198 227.5 306.998 227.7C306.698 227.9 306.498 228.2 306.298 228.6C306.298 229 306.298 229.5 306.298 230Z" fill="#324A8A"/>
<path d="M316.597 234H314.897V227.5H312.797V226.1H318.697V227.5H316.597V234Z" fill="#324A8A"/>
<path d="M319.898 234V226.1H321.598V234H319.898Z" fill="#324A8A"/>
<path d="M326.802 227.4C326.502 227.4 326.202 227.5 326.002 227.6C325.802 227.7 325.502 227.9 325.402 228.1C325.202 228.3 325.102 228.6 325.002 228.9C324.902 229.2 324.902 229.6 324.902 230C324.902 230.6 325.002 231 325.102 231.4C325.202 231.8 325.502 232.1 325.702 232.3C326.002 232.5 326.402 232.6 326.802 232.6C327.102 232.6 327.402 232.6 327.802 232.5C328.202 232.4 328.502 232.3 328.802 232.2V233.6C328.502 233.7 328.102 233.8 327.802 233.9C327.502 234 327.102 234 326.702 234C325.902 234 325.202 233.8 324.702 233.5C324.202 233.2 323.802 232.7 323.502 232.1C323.202 231.5 323.102 230.8 323.102 230C323.102 229.4 323.202 228.9 323.302 228.4C323.502 227.9 323.702 227.5 324.002 227.1C324.302 226.7 324.702 226.5 325.202 226.3C325.702 226.1 326.202 226 326.802 226C327.202 226 327.602 226 328.002 226.1C328.402 226.2 328.802 226.3 329.102 226.5L328.602 227.9C328.302 227.8 328.002 227.6 327.702 227.5C327.402 227.5 327.102 227.4 326.802 227.4Z" fill="#324A8A"/>
<path d="M332.797 230C332.797 229.6 332.897 229.3 332.997 229C333.097 228.8 333.297 228.6 333.597 228.5C333.797 228.4 334.097 228.3 334.397 228.3C334.697 228.3 334.897 228.4 335.197 228.5C335.397 228.6 335.597 228.8 335.797 229C335.897 229.2 335.997 229.6 335.997 230C335.997 230.4 335.897 230.7 335.797 231C335.697 231.3 335.497 231.4 335.197 231.6C334.997 231.7 334.697 231.8 334.397 231.8C334.097 231.8 333.797 231.7 333.597 231.6C333.397 231.5 333.197 231.3 332.997 231C332.797 230.7 332.797 230.4 332.797 230Z" fill="#324A8A"/>
<path d="M349.398 230C349.398 230.9 349.198 231.6 348.898 232.2C348.598 232.8 348.098 233.2 347.398 233.5C346.798 233.8 345.998 233.9 345.098 233.9H342.898V226H345.398C346.198 226 346.898 226.1 347.498 226.4C348.098 226.7 348.598 227.1 348.898 227.7C349.198 228.4 349.398 229.1 349.398 230ZM347.698 230C347.698 229.4 347.598 228.9 347.398 228.6C347.198 228.2 346.998 227.9 346.598 227.8C346.298 227.6 345.898 227.5 345.398 227.5H344.498V232.6H345.198C345.998 232.6 346.598 232.4 346.998 232C347.498 231.5 347.698 230.9 347.698 230Z" fill="#324A8A"/>
<path d="M355.5 234H351V226.1H355.5V227.5H352.6V229.2H355.3V230.6H352.6V232.6H355.5V234Z" fill="#324A8A"/>
<path d="M361.702 231.8C361.702 232.3 361.602 232.7 361.402 233C361.202 233.3 360.802 233.6 360.402 233.8C360.002 234 359.402 234.1 358.802 234.1C358.502 234.1 358.302 234.1 358.002 234C357.702 233.9 357.502 233.9 357.302 233.8C357.102 233.7 356.802 233.6 356.602 233.5V232C357.002 232.2 357.402 232.3 357.802 232.4C358.202 232.5 358.602 232.6 359.002 232.6C359.302 232.6 359.502 232.6 359.702 232.5C359.902 232.4 360.002 232.3 360.102 232.2C360.202 232.1 360.202 231.9 360.202 231.8C360.202 231.6 360.102 231.4 360.002 231.3C359.902 231.2 359.702 231 359.502 230.9C359.302 230.8 359.002 230.6 358.702 230.5C358.502 230.4 358.302 230.3 358.102 230.2C357.902 230.1 357.702 229.9 357.502 229.7C357.302 229.5 357.102 229.3 357.002 229C356.902 228.7 356.802 228.4 356.802 228.1C356.802 227.6 356.902 227.2 357.102 226.9C357.302 226.6 357.602 226.3 358.002 226.1C358.402 225.9 358.902 225.8 359.402 225.8C359.802 225.8 360.202 225.8 360.602 225.9C361.002 226 361.402 226.1 361.802 226.3L361.302 227.6C360.902 227.5 360.602 227.3 360.302 227.3C360.002 227.2 359.702 227.2 359.402 227.2C359.202 227.2 359.002 227.2 358.902 227.3C358.802 227.4 358.602 227.5 358.602 227.6C358.502 227.7 358.502 227.9 358.502 228C358.502 228.2 358.602 228.3 358.702 228.5C358.802 228.6 359.002 228.7 359.202 228.9C359.402 229 359.702 229.2 360.002 229.3C360.402 229.5 360.702 229.7 361.002 229.9C361.302 230.1 361.502 230.3 361.702 230.6C361.702 231 361.702 231.4 361.702 231.8Z" fill="#324A8A"/>
<path d="M363.102 234V226.1H364.802V234H363.102Z" fill="#324A8A"/>
<path d="M369.698 229.6H372.798V233.7C372.398 233.8 371.998 233.9 371.498 234C371.098 234.1 370.598 234.1 369.998 234.1C369.198 234.1 368.598 233.9 367.998 233.6C367.398 233.3 366.998 232.8 366.798 232.2C366.498 231.6 366.398 230.9 366.398 230C366.398 229.2 366.598 228.5 366.898 227.9C367.198 227.3 367.698 226.8 368.298 226.5C368.898 226.2 369.698 226 370.498 226C370.898 226 371.298 226 371.698 226.1C372.098 226.2 372.498 226.3 372.798 226.4L372.198 227.7C371.998 227.6 371.698 227.5 371.398 227.4C371.098 227.3 370.798 227.3 370.398 227.3C369.898 227.3 369.498 227.4 369.098 227.6C368.698 227.8 368.498 228.1 368.298 228.5C368.098 228.9 367.998 229.4 367.998 229.9C367.998 230.4 368.098 230.9 368.198 231.3C368.298 231.7 368.598 232 368.898 232.2C369.198 232.4 369.598 232.5 370.098 232.5C370.298 232.5 370.498 232.5 370.698 232.5C370.898 232.5 370.998 232.5 371.198 232.4V231H369.698V229.6Z" fill="#324A8A"/>
<path d="M381.6 234H379.5L376 228C376 228.2 376 228.5 376 228.7C376 228.9 376 229.2 376 229.4C376 229.6 376 229.9 376 230.1V233.8H374.5V225.9H376.6L380 231.8C380 231.6 380 231.3 380 231.1C380 230.9 380 230.6 380 230.4C380 230.2 380 229.9 380 229.7V226H381.5V234H381.6Z" fill="#324A8A"/>
<path d="M171 9.20001L167.5 22.8H164.2L162.4 15.7C162.4 15.6 162.3 15.4 162.3 15.1C162.2 14.8 162.2 14.5 162.1 14.2C162 13.9 162 13.6 161.9 13.3C161.8 13 161.8 12.8 161.8 12.6C161.8 12.8 161.7 13 161.7 13.3C161.6 13.6 161.6 13.9 161.5 14.2C161.4 14.5 161.4 14.8 161.3 15.1C161.2 15.4 161.2 15.6 161.2 15.7L159.4 22.8H156L152.5 9.20001H155.3L157 16.6C157 16.8 157.1 17.1 157.2 17.4C157.3 17.7 157.3 18 157.4 18.4C157.5 18.7 157.5 19.1 157.6 19.4C157.7 19.7 157.7 20 157.7 20.2C157.7 20 157.8 19.7 157.8 19.4C157.8 19.1 157.9 18.8 158 18.4C158.1 18.1 158.1 17.8 158.2 17.5C158.3 17.2 158.3 17 158.4 16.8L160.4 9.20001H163.1L165.1 16.8C165.1 17 165.2 17.2 165.3 17.5C165.4 17.8 165.4 18.1 165.5 18.4C165.6 18.7 165.6 19 165.7 19.4C165.8 19.7 165.8 20 165.8 20.2C165.8 19.9 165.9 19.5 166 19.1C166.1 18.7 166.2 18.2 166.3 17.8C166.4 17.4 166.5 17 166.5 16.7L168.2 9.29999H171V9.20001Z" fill="#324A8A"/>
<path d="M180.402 22.7H172.602V9.09998H180.402V11.5H175.502V14.5H180.102V16.9H175.502V20.4H180.402V22.7Z" fill="#324A8A"/>
<path d="M183.102 22.7V9.09998H186.002V20.3H191.502V22.7H183.102Z" fill="#324A8A"/>
<path d="M198.998 22.7H196.098V11.5H192.398V9.09998H202.598V11.5H198.998V22.7Z" fill="#324A8A"/>
<path d="M221.298 9.20001L217.798 22.8H214.498L212.698 15.7C212.698 15.6 212.598 15.4 212.598 15.1C212.498 14.8 212.498 14.5 212.398 14.2C212.298 13.9 212.298 13.6 212.198 13.3C212.098 13 212.098 12.8 212.098 12.6C212.098 12.8 211.998 13 211.998 13.3C211.898 13.6 211.898 13.9 211.798 14.2C211.698 14.5 211.698 14.8 211.598 15.1C211.498 15.4 211.498 15.6 211.498 15.7L209.698 22.8H206.398L202.898 9.20001H205.698L207.398 16.6C207.398 16.8 207.498 17.1 207.598 17.4C207.698 17.7 207.698 18 207.798 18.4C207.898 18.7 207.898 19.1 207.998 19.4C208.098 19.7 208.098 20 208.098 20.2C208.098 20 208.198 19.7 208.198 19.4C208.198 19.1 208.298 18.8 208.398 18.4C208.498 18.1 208.498 17.8 208.598 17.5C208.698 17.2 208.698 17 208.798 16.8L210.798 9.20001H213.498L215.498 16.8C215.498 17 215.598 17.2 215.698 17.5C215.798 17.8 215.798 18.1 215.898 18.4C215.998 18.7 215.998 19 216.098 19.4C216.198 19.7 216.198 20 216.198 20.2C216.198 19.9 216.298 19.5 216.398 19.1C216.498 18.7 216.598 18.2 216.698 17.8C216.798 17.4 216.898 17 216.898 16.7L218.598 9.29999H221.298V9.20001Z" fill="#324A8A"/>
<path d="M230.698 22.7H222.898V9.09998H230.698V11.5H225.798V14.5H230.398V16.9H225.798V20.4H230.698V22.7Z" fill="#324A8A"/>
<path d="M233.5 22.7V9.09998H236.4V22.7H233.5Z" fill="#324A8A"/>
<path d="M244.897 22.7H241.997V11.5H238.297V9.09998H248.497V11.5H244.797V22.7H244.897Z" fill="#324A8A"/>
<path d="M258.402 22.7H250.602V9.09998H258.402V11.5H253.502V14.5H258.102V16.9H253.502V20.4H258.402V22.7Z" fill="#324A8A"/>
<path d="M265.102 9.20001C266.302 9.20001 267.302 9.29998 268.102 9.59998C268.902 9.89998 269.502 10.3 269.902 10.9C270.302 11.5 270.502 12.3 270.502 13.2C270.502 13.8 270.402 14.4 270.102 14.8C269.902 15.3 269.602 15.7 269.202 16C268.802 16.3 268.402 16.6 268.002 16.8L272.002 22.7H268.802L265.602 17.5H264.002V22.7H261.102V9.09998H265.102V9.20001ZM264.902 11.5H264.002V15.2H264.902C265.902 15.2 266.502 15 266.902 14.7C267.302 14.4 267.502 13.9 267.502 13.3C267.502 12.7 267.302 12.2 266.802 11.9C266.502 11.6 265.802 11.5 264.902 11.5Z" fill="#324A8A"/>
<path d="M289.097 9.20001L284.497 22.8H281.397L276.797 9.20001H279.697L282.297 17.3C282.297 17.4 282.397 17.7 282.497 18.1C282.597 18.5 282.697 18.9 282.797 19.3C282.897 19.7 282.997 20.1 282.997 20.3C282.997 20 283.097 19.7 283.197 19.3C283.297 18.9 283.397 18.5 283.497 18.1C283.597 17.7 283.697 17.5 283.697 17.3L286.297 9.20001H289.097Z" fill="#324A8A"/>
<path d="M298.503 22.7H290.703V9.09998H298.503V11.5H293.603V14.5H298.203V16.9H293.603V20.4H298.503V22.7Z" fill="#324A8A"/>
<path d="M305.197 9.20001C306.397 9.20001 307.397 9.29998 308.197 9.59998C308.997 9.89998 309.597 10.3 309.997 10.9C310.397 11.5 310.597 12.3 310.597 13.2C310.597 13.8 310.497 14.4 310.197 14.8C309.997 15.3 309.697 15.7 309.297 16C308.897 16.3 308.497 16.6 308.097 16.8L312.097 22.7H308.897L305.697 17.5H304.197V22.7H301.297V9.09998H305.197V9.20001ZM304.997 11.5H304.097V15.2H304.997C305.997 15.2 306.597 15 306.997 14.7C307.397 14.4 307.597 13.9 307.597 13.3C307.597 12.7 307.397 12.2 306.897 11.9C306.597 11.6 305.897 11.5 304.997 11.5Z" fill="#324A8A"/>
<path d="M321.697 18.9C321.697 19.7 321.497 20.4 321.097 21C320.697 21.6 320.097 22.1 319.397 22.4C318.697 22.7 317.697 22.9 316.697 22.9C316.197 22.9 315.797 22.9 315.297 22.8C314.897 22.7 314.397 22.6 313.997 22.5C313.597 22.4 313.197 22.2 312.797 22V19.3C313.397 19.6 314.097 19.8 314.797 20.1C315.497 20.3 316.197 20.4 316.897 20.4C317.397 20.4 317.697 20.3 317.997 20.2C318.297 20.1 318.497 19.9 318.597 19.7C318.697 19.5 318.797 19.2 318.797 19C318.797 18.7 318.697 18.4 318.497 18.1C318.297 17.9 317.997 17.6 317.597 17.4C317.197 17.2 316.797 17 316.197 16.7C315.897 16.6 315.497 16.4 315.197 16.2C314.797 16 314.497 15.7 314.097 15.4C313.797 15.1 313.497 14.7 313.297 14.3C313.097 13.9 312.997 13.3 312.997 12.7C312.997 11.9 313.197 11.2 313.597 10.6C313.997 9.99998 314.497 9.59999 315.197 9.29999C315.897 8.99999 316.697 8.79999 317.597 8.79999C318.297 8.79999 318.997 8.9 319.597 9C320.197 9.2 320.897 9.40001 321.597 9.70001L320.697 11.9C320.097 11.6 319.497 11.5 318.997 11.3C318.497 11.2 317.997 11.1 317.497 11.1C317.097 11.1 316.797 11.2 316.597 11.3C316.297 11.4 316.197 11.6 315.997 11.8C315.897 12 315.797 12.2 315.797 12.5C315.797 12.8 315.897 13.1 316.097 13.3C316.297 13.5 316.597 13.7 316.997 13.9C317.397 14.1 317.897 14.3 318.397 14.6C319.097 14.9 319.697 15.3 320.197 15.6C320.697 16 321.097 16.4 321.297 16.9C321.497 17.6 321.697 18.2 321.697 18.9Z" fill="#324A8A"/>
<path d="M332.297 22.7L331.297 19.5H326.397L325.397 22.7H322.297L327.097 9.09998H330.597L335.397 22.7H332.297ZM330.697 17.1L329.697 13.9C329.597 13.7 329.597 13.4 329.497 13.1C329.397 12.8 329.297 12.4 329.197 12.1C329.097 11.8 328.997 11.5 328.997 11.2C328.897 11.5 328.897 11.8 328.697 12.1C328.597 12.5 328.497 12.8 328.397 13.2C328.297 13.5 328.197 13.8 328.197 13.9L327.197 17.1H330.697Z" fill="#324A8A"/>
<path d="M349.102 22.7H345.402L339.502 12.4H339.402C339.402 12.8 339.402 13.3 339.502 13.7C339.502 14.1 339.502 14.6 339.602 15C339.602 15.4 339.602 15.9 339.702 16.3V22.7H337.102V9.09998H340.702L346.602 19.3H346.702C346.702 18.9 346.702 18.5 346.702 18C346.702 17.6 346.702 17.2 346.602 16.8C346.602 16.4 346.602 16 346.602 15.6V9.20001H349.202V22.7H349.102Z" fill="#324A8A"/>
<path d="M363.7 15.8C363.7 17.3 363.4 18.6 362.8 19.6C362.2 20.6 361.4 21.4 360.3 21.9C359.2 22.4 357.9 22.7 356.3 22.7H352.5V9.09998H356.8C358.2 9.09998 359.5 9.40002 360.5 9.90002C361.5 10.4 362.4 11.1 362.9 12.1C363.4 13.1 363.7 14.4 363.7 15.8ZM360.7 15.9C360.7 14.9 360.6 14.1 360.3 13.4C360 12.8 359.6 12.3 359 12C358.4 11.7 357.7 11.5 356.9 11.5H355.4V20.3H356.6C358 20.3 359 19.9 359.7 19.2C360.3 18.5 360.7 17.4 360.7 15.9Z" fill="#324A8A"/>
<path d="M345.097 88C344.997 88.1 344.897 88.2 344.897 88.3C344.497 88.2 344.197 88.5 343.797 88.7C343.997 88.2 344.397 88 344.897 88C344.997 88 345.097 88 345.097 88Z" fill="#324A8A"/>
<path d="M448.8 146.7C449.1 147.6 450.2 148.2 449.7 149.4C449.6 149.6 450 150.1 450.3 150.4C451 151.3 451.2 152.2 451 153.3C450.8 154.5 451.3 155.5 451.9 156.5C453.2 158.6 453.2 160.8 452 162.9C451.1 164.5 450 166.1 448.7 167.4C447.6 168.5 446.2 169.4 445.6 170.8C444.9 172.2 443.8 172.5 442.6 173C442.3 173.1 442.1 173.3 441.7 173C440.7 172.4 439.4 173.3 438.5 172.2C438.1 171.6 437.5 171.1 438.1 170.3C438.3 170 438.7 169.6 438.3 168.9C438 168.4 437.9 167.9 437.2 168C436 168.3 435.6 167 434.5 166.8C433.3 166.6 430.8 166.4 430 167.1C429.5 167.5 428.7 167.3 428.5 168.1C428.4 168.4 427.7 168.3 427.3 168C426.2 167.3 425.1 167.2 424.2 168.3C423.7 168.8 423.4 168.6 423.1 168.2L423 168.1C422.6 167.4 422 166.7 422 166C422 165.3 422.7 164.7 423.1 164C423.9 162.5 423.9 162.1 422.8 160.7C422.4 160.3 422.3 159.8 422.9 159.3C423.5 158.8 424.1 158.1 424.6 157.4C424.8 157.2 424.8 156.9 424.7 156.6C424.7 155.6 425.6 155.7 426.2 155.4C429.2 154.3 432.1 153.1 433.9 150.3C434.4 149.5 435.1 149.2 436 149.5C437.1 149.9 437.8 149.5 438.5 148.7C439.3 147.8 441.5 147.5 442.6 148C443.4 148.4 443.4 149 443.2 149.8C443 150.5 442.6 151.3 443.8 151.6C444.8 151.8 445.8 152 446.3 150.8C446.7 149.9 447.1 149 447.4 148.1C447.6 147.1 447.9 146.5 448.8 146.7Z" fill="#324A8A"/>
<path d="M322.394 80.6C319.394 82.6 316.094 84 313.094 85.8C312.994 85.9 312.794 85.9 312.594 85.9C310.594 84.5 310.694 82.3 310.794 80.3C310.894 78.4 311.694 76.6 313.294 75.4C313.394 74.1 313.394 72.9 311.794 72.3C310.694 71.9 310.694 70.9 311.294 70C311.794 69.3 312.194 68.5 312.494 67.7C313.494 66.9 314.494 66.3 315.894 66.7C316.694 66.7 317.594 66.8 318.294 66.7C318.894 66.6 318.894 66.5 319.094 67.1C319.294 67.7 320.194 67.5 320.694 67.3C321.594 66.9 322.394 66.5 323.194 66C323.894 65.6 324.594 65.5 325.294 65.6C325.394 65.5 325.594 65.5 325.694 65.4C326.494 65.3 327.094 65 327.794 64.7C327.894 64.7 327.894 64.8 327.994 64.8C328.394 65 328.694 65.3 329.094 65.5C329.394 65.6 329.694 65.9 329.994 66.1C330.394 66.2 331.194 65.8 331.094 66.5C330.994 67.7 331.794 68.2 332.594 68.4C333.294 68.6 333.194 68.9 333.094 69.4C332.694 70.9 331.794 72.1 330.994 73.4C329.794 74.1 328.894 75 328.394 76.3C327.994 77.3 326.994 78 325.994 78.4C325.194 78.7 324.294 78.3 323.994 77.2C323.594 77.8 323.694 78.3 323.694 78.8C323.594 79.6 323.394 80.3 322.394 80.6Z" fill="#324A8A"/>
<path d="M336.698 99.4C336.598 100 337.398 100.5 336.798 101.2C337.498 101 337.598 100.5 337.798 100.2C337.998 99.9 338.198 99.8 338.498 100C339.098 100.4 339.698 100.2 340.298 99.8C340.998 99.5 341.598 99.6 342.198 99.9C342.398 100 342.598 100.1 342.698 99.8C342.698 99.6 342.698 99.4 342.598 99.3C341.898 98.5 341.898 98.4 342.698 97.6C343.198 97.1 343.598 96.9 344.098 97.5C344.298 97.8 344.598 98 344.898 98.2C345.098 98.4 345.498 98.3 345.498 98.1C345.298 97.3 345.498 97.2 346.198 97.6C347.198 98.2 345.798 98.3 346.098 98.8C346.198 99 346.398 98.8 346.598 98.8C347.398 98.7 346.898 97.4 347.398 97.5C347.998 97.7 348.098 97.6 348.498 97.3C349.098 96.7 349.398 96.9 349.798 97.8C350.098 98.4 350.298 99.1 350.298 99.8C349.998 100.1 349.598 99.6 349.298 99.9C349.398 100.8 350.098 101.2 350.698 101.8C351.698 102.7 351.698 103.5 350.798 104.4C350.298 104.9 349.798 105.1 349.198 104.4C348.298 103.4 347.398 102.5 346.498 101.4C345.098 99.7 344.998 99.7 343.398 101.1C343.198 101.2 342.998 101.4 342.798 101.5C341.698 101.9 340.198 101.5 339.598 102.8C339.098 104 338.398 104.7 337.098 104.9C336.198 105 335.498 105.6 334.698 105.9C334.098 106.1 333.498 106.4 332.798 106.1C332.098 105.7 331.098 105.5 331.398 104.4C331.398 103.3 331.598 102.1 331.598 101C331.598 100 332.998 99 333.998 99.4C334.698 99.6 335.498 99.3 336.098 99.9C336.198 99.9 336.398 99.4 336.698 99.4Z" fill="#324A8A"/>
<path d="M345.097 88C344.997 88.1 344.897 88.2 344.897 88.3C344.497 88.2 344.197 88.5 343.797 88.7C343.997 88.2 344.397 88 344.897 88C344.997 88 345.097 88 345.097 88Z" fill="#324A8A"/>
<path d="M312.695 67.7C311.695 67.6 310.795 67.8 309.995 68.6C308.895 69.7 307.295 70.2 305.895 70.9C305.095 71.3 304.395 71.4 303.795 70.5C303.595 70.2 303.295 70.2 302.995 70.2C302.495 70.4 301.895 70.5 301.695 69.8C302.095 68.8 303.195 68.6 303.795 67.8C303.995 67.5 304.495 67.4 304.395 66.9C304.095 65.8 304.995 65.6 305.695 65.4C306.495 65.2 307.395 64.7 308.395 65C309.295 65.3 310.295 64.8 311.195 65C312.495 65.4 313.795 65.1 314.995 65.2C315.395 65.2 315.595 65.4 315.895 65.7C316.195 66.1 315.695 66.3 315.695 66.6C314.795 67.1 313.695 67.4 312.695 67.7Z" fill="#324A8A"/>
<path d="M420.796 138.7C420.296 140 420.396 141.4 420.396 142.7C419.996 142.4 419.496 142.5 419.096 142.4C418.396 142.2 417.496 142.2 417.596 141C417.596 140.7 417.296 140.3 416.996 140C415.896 139.1 414.996 138.1 414.396 136.8C413.796 135.5 412.596 134.7 411.996 133.4C411.796 133 411.096 132.6 411.496 132.1C411.996 131.6 412.596 131.3 413.396 131.5C413.596 131.6 413.796 131.6 414.096 131.7C414.796 131.1 415.296 131.7 415.496 132.2C415.896 133.5 416.896 133.9 418.096 134.3C418.996 135.8 419.496 137.5 420.796 138.7Z" fill="#324A8A"/>
<path d="M302 82.3C301.2 82.5 300.5 82.1 299.9 81.8C299.2 81.5 298.6 81.1 297.7 81.4C297.9 80.4 298.4 80.1 299 79.7C299.6 79.4 300.3 79.1 300.9 78.6C301.3 78.3 301.8 78 301.9 77.3C302.1 75.7 301.5 75.1 299.8 75.3C298.9 75.4 298.1 75.6 297.3 75C297.3 74.7 296.9 74.4 297.4 74.1C297.9 73.8 298.3 73.5 298.8 73.2C299 73.1 299.3 73.1 299.5 72.9C302 73.9 304.6 74.8 306.6 76.7C306.9 78.2 306 79.2 305.2 80.2C305.1 80.2 305.1 80.3 305 80.3C304.9 80.3 304.9 80.3 304.8 80.3C304.6 80.3 304.5 80.2 304.4 80.2C304.3 80.2 304.2 80.1 304.1 80L304 80.1V80.2V80.3C304 80.4 304 80.5 303.9 80.5C303.7 80.9 303.4 81.3 302.9 81.2C301.8 81.2 301.9 81.8 302 82.3Z" fill="#324A8A"/>
<path d="M380.398 79.3C380.098 79.9 379.598 80.2 379.098 80.7C378.798 81 378.298 81.1 377.998 80.8C377.698 80.5 377.298 80.2 377.598 79.5C378.098 78.5 376.798 78.7 376.598 78.1C376.398 77.7 375.798 77.7 375.298 77.9C375.398 78.2 375.798 78.4 375.198 78.7C374.798 78.9 374.398 78.4 373.998 78.7C373.498 79.1 373.198 78.5 372.698 78.4C372.098 78.3 371.498 77.8 370.798 78.5C370.198 79.1 370.598 78.1 370.198 78C369.298 78.9 368.198 79.2 366.898 78.5C367.198 77.8 367.898 78 368.398 77.6C369.498 76.7 370.698 76.3 372.098 76.6C372.598 76.7 373.198 76.8 373.598 76.4C373.998 76 374.498 76.1 374.998 76.3C375.898 76.6 376.298 76.4 376.398 75.6C376.398 75.4 376.398 75.3 376.398 75.1C376.498 74.7 376.198 74.1 376.598 73.8C377.198 73.5 377.898 73.7 378.498 73.8C378.598 73.8 378.798 73.9 378.798 74C379.098 75.3 379.998 76.4 380.498 77.6C380.698 77.8 380.398 78.7 380.398 79.3Z" fill="#324A8A"/>
<path d="M376.1 148.6C376.3 150.3 375.8 151.9 375.3 153.5C375 154.6 374.8 155.7 374.4 156.8C374.2 157.6 373.8 158.2 372.9 158.2C372.2 158.2 371.3 158.7 371.1 157.5C370.9 157.1 370.6 156.6 370.8 156.2C371.5 154.7 371.3 153 371.3 151.5C371.3 150.8 371.6 150.5 372.2 150.2C373.2 149.8 374 149.3 374.5 148.3C375.1 147.1 375.8 147.4 376.1 148.6Z" fill="#324A8A"/>
<path d="M449.193 146C448.493 145 447.793 144.6 446.693 144.6C445.893 143.5 446.493 141.9 445.593 140.9C444.893 140.2 444.793 139.6 445.493 138.8C446.293 137.9 446.893 138.5 447.693 138.8C447.993 139 448.193 139.3 448.493 139.5C449.893 140 451.093 141 452.293 141.9C452.993 142.5 453.393 143.1 452.793 144C452.893 144.9 451.993 144.7 451.593 144.9C450.893 145.1 450.193 145.2 449.893 146C449.693 146.1 449.393 146 449.193 146Z" fill="#324A8A"/>
<path d="M429.696 97.3C429.696 97.4 429.696 97.4999 429.596 97.5999C428.396 99.0999 428.296 99.2999 429.496 100.6C430.296 101.6 430.496 102.6 430.496 103.8C430.496 104.4 429.996 104.7 429.996 105.2C428.096 105.6 428.096 105.6 427.996 103.5C427.996 103 427.896 102.6 427.396 102.4C427.196 102.3 426.896 102.2 426.896 102C426.496 101.1 426.096 100.3 424.796 100.6C424.396 100.7 424.096 100.1 424.096 99.5999C424.096 99.2999 424.096 98.8999 423.896 98.5999C423.796 98.3999 425.196 97.3 425.396 97.4C425.596 97.5 425.796 97.7 425.596 98C425.396 98.3 425.396 98.5 425.596 98.8C426.096 98.7 426.396 98.2 426.696 97.8C427.196 97.2 427.596 96.3 428.496 97.4C428.596 97.7 429.296 97.4 429.696 97.3Z" fill="#324A8A"/>
<path d="M434.4 83.8C434.2 82.5 433.8 81.3 434.1 80C434.6 79.6 434.5 80.7 435.3 80.3C436.4 79.8 435.3 79.7 435.3 79.4C436 78.9 436.7 78.4 437.6 78.5C438.1 78.5 438.7 78.4 439 77.9C439.2 79.1 438.1 78.9 437.4 79.2C437.1 79.3 436.6 79.1 436.5 79.5C436.4 80 436.3 80.6 436.8 80.9C438.3 81.6 438.2 82.9 438.1 84.2C438.1 85.3 438.5 86.3 439 87.3C439.1 87.6 439.1 87.7 439 87.9C438.8 88.2 438.6 88 438.3 87.9C436.6 87.2 435.8 85.7 434.7 84.5C434.6 84.3 434.5 84 434.4 83.8Z" fill="#324A8A"/>
<path d="M417.994 134.5C415.994 134.5 415.694 134.3 415.194 132.5C414.994 131.9 414.694 131.6 414.094 131.7C413.694 130.6 413.394 129.5 413.394 128.3C413.394 127.4 413.494 126.5 412.694 125.8C412.294 125.4 412.394 124.9 412.394 124.4C413.094 124.3 413.094 124.9 413.294 125.3C413.694 125.9 413.894 126.6 414.494 127.3C414.594 125.9 414.694 125.9 415.594 126.2C415.994 126.6 415.994 127.1 416.094 127.7C416.194 128.8 416.594 129.8 417.694 130.5C418.894 131.3 419.094 132.6 419.094 133.9C418.894 134.4 418.794 134.9 417.994 134.5Z" fill="#324A8A"/>
<path d="M362.998 81.6C362.998 81.9 363.498 82.2 362.898 82.4C362.498 82.6 361.998 82.7 362.198 83.5C362.298 83.8 361.798 84.2 361.398 83.7C360.898 83.2 360.598 82.4 359.598 82.9C359.498 83 359.098 82.8 359.398 82.3C359.698 81.9 360.098 81.1 358.798 81.4C358.298 81.5 357.898 80.8 358.398 80.5C359.098 80.1 358.898 80 358.398 79.7C357.898 79.4 358.098 79 358.398 78.7C358.698 78.4 358.998 78.2 359.298 78C358.998 77.8 360.198 77.1 358.998 77.1C358.798 77.1 358.698 76.8 358.698 76.5C361.098 76.9 361.798 77.6 362.198 79.8C362.398 80.5 363.098 80.9 362.998 81.6Z" fill="#324A8A"/>
<path d="M432.898 104.3C434.898 103.1 436.098 101.4 436.098 99.1C436.098 98.6 436.098 98.2 436.398 97.8C436.698 97.8 436.898 97.3 437.298 97.5C437.698 97.7 437.998 98.3 437.898 98.6C437.798 99.5 438.198 100.3 438.298 101.1C438.698 102.6 437.498 104.4 435.898 104.9C435.298 105 434.798 105.4 434.198 105.5C434.098 105.5 433.998 105.5 433.998 105.5C433.898 105.5 433.698 105.4 433.598 105.3C433.398 105.1 433.198 104.9 432.998 104.7C433.098 104.5 432.998 104.4 432.898 104.3Z" fill="#324A8A"/>
<path d="M455.399 179.7C454.999 180 454.499 180.2 454.099 180.6C452.899 182 451.299 181.3 449.799 181.4C449.499 181.4 449.299 181.1 449.199 180.8C449.099 180.5 449.399 180.3 449.699 180.1C451.199 179.1 452.599 178.2 454.099 177.2C454.699 176.8 454.999 175.9 455.999 176.2C457.499 176.6 457.799 177.6 456.699 178.7C456.399 179.2 455.999 179.6 455.399 179.7Z" fill="#324A8A"/>
<path d="M348.501 156.8C348.801 157.3 349.401 157.4 349.901 157.6C350.501 157.8 349.601 158.5 350.101 159.1C351.801 160.8 351.901 163.3 353.101 165.3C353.701 165.4 354.401 164.5 354.501 164.7C355.201 165.4 355.301 164.7 355.701 164.4C355.801 164.4 355.801 164.3 355.801 164.3C357.401 165 358.301 163.5 359.501 163.1C360.101 162.9 360.401 162.7 359.801 162.2C360.301 162 360.901 161.7 361.401 162.1C361.101 162.8 360.901 163.5 359.901 163.6C359.801 163.6 359.701 163.7 359.601 163.8C357.701 165.6 355.101 165.4 352.801 166.2C352.001 166.5 351.501 165.7 351.401 165.1C351.201 162.7 349.301 161 348.901 158.8C348.901 158.7 348.701 158.5 348.601 158.4C347.901 158 348.401 157.3 348.501 156.8Z" fill="#324A8A"/>
<path d="M447.694 138.7C447.494 138.7 447.194 138.7 446.994 138.6C446.494 138.3 445.994 138.2 445.994 139C445.994 139.3 445.694 139.5 445.494 139.6C445.294 139.7 445.094 139.7 445.394 140C446.394 141.1 446.794 142.5 446.794 144.5C446.294 144.6 445.894 144.6 445.394 144.4C445.094 143.8 445.894 143.6 445.994 143.1C446.294 141.6 444.694 139.7 443.094 139.8C442.994 139.8 442.894 139.9 442.894 140C441.694 140.5 441.694 140.5 441.094 139.4C440.794 138.9 440.794 138.3 440.094 138.1C440.194 137.8 439.894 137.2 440.594 137.2C441.294 137.2 442.094 137 442.794 137.4C443.194 137.6 443.594 137.7 443.994 137.6C445.294 137.6 446.594 137.8 447.694 138.7Z" fill="#324A8A"/>
<path d="M459.499 170.1C459.899 170.1 460.399 170 460.599 170.4C460.899 170.9 461.499 171.6 461.399 172C460.999 172.8 461.499 173.2 461.899 173.6C462.499 174.3 462.299 174.8 461.699 175.3C460.799 176 459.999 176.8 459.099 177.5C458.899 177.7 458.399 177.6 458.099 177.6C456.999 176.7 458.099 175.7 458.299 174.9C458.599 173.6 458.999 172.3 458.799 170.9C458.799 170.5 459.099 170.2 459.499 170.1Z" fill="#324A8A"/>
<path d="M429.695 87.2C429.695 87 429.795 86.8 430.095 86.8C432.295 87.1 433.695 88.5 433.995 90.8C433.995 91.1 434.095 91.4 434.295 91.6C435.195 92.3 434.995 93.2 434.995 94.1C434.095 93.9 433.395 93.8 433.095 92.7C432.895 92 432.195 91.5 431.395 91.2C430.795 89.9 429.795 88.7 429.695 87.2Z" fill="#324A8A"/>
<path d="M427.194 110.5C427.094 110.8 426.794 111 426.694 111.4C426.194 114.7 423.894 116.4 421.094 117.8C420.894 117.9 420.694 117.9 420.694 118.2C420.694 118.3 420.694 118.3 420.694 118.4C420.694 118.8 420.594 119.2 420.294 119.4C420.094 119.4 419.994 119.4 419.994 119.2C418.894 119 418.494 118.6 418.894 117.8C419.194 117.1 419.694 116.4 420.094 115.8C420.394 115.3 420.794 114.9 421.494 115.5C421.794 115.7 422.294 116.5 422.694 115.9C423.194 115.1 424.494 115.3 424.494 114.1C424.494 113.8 424.594 113.6 424.494 113.3C424.294 112.9 424.294 112.5 424.494 112.2C424.794 112.3 424.594 112.7 424.894 112.9C424.994 112.1 426.094 112.9 426.094 112.2C426.094 111.5 426.394 110.9 426.694 110.2C426.994 109.4 426.994 108.6 426.694 107.8C426.594 107.5 426.494 107.3 426.894 107.1C427.494 108.2 426.994 109.4 427.194 110.5Z" fill="#324A8A"/>
<path d="M395.297 126.2C394.397 125.6 394.397 124.4 393.497 123.8C392.797 122.9 392.697 121.7 392.497 120.6C392.397 119.8 392.097 119.4 391.197 119.4C390.797 119.4 389.797 118.1 389.897 117.7C390.397 116.5 389.397 116.4 388.797 116C388.797 116 388.697 116 388.597 116C386.597 116.2 384.597 115.6 382.497 115.7C382.197 115.7 381.797 115.6 381.597 116.1C381.197 116.1 380.797 116 381.097 115.5C381.297 115.1 381.697 115.1 382.197 115.1C384.097 115.1 385.997 115.1 387.897 115.3C389.197 115.4 389.997 116.2 390.497 117C391.397 118.5 391.197 118.5 392.797 118C393.397 119 393.097 120.1 393.297 121.2C393.497 122.4 393.897 123.5 394.597 124.5C394.997 125 395.197 125.6 395.297 126.2Z" fill="#324A8A"/>
<path d="M399.898 123.4C400.198 121.6 400.598 120 402.398 119C402.598 118.9 402.798 118.6 402.698 118.4C402.398 117.7 402.798 117.7 403.298 117.9C404.098 118.2 404.498 117.9 404.898 117.3C405.598 116.3 406.798 116.7 407.898 116.5C407.998 116.9 408.098 117.3 407.998 117.6C407.798 118.1 407.498 118.4 408.398 118.3C408.498 118.3 408.898 119.1 409.098 119.6C409.198 119.9 409.098 120.2 408.698 120.3C407.998 119.9 407.498 119.2 406.998 118.6C406.298 117.6 405.398 117.5 404.598 118.5C404.098 119.1 403.698 119.7 402.898 120C402.598 120.1 402.598 120.3 402.498 120.5C402.298 121.9 401.298 122.8 399.898 123.4Z" fill="#324A8A"/>
<path d="M368.998 71.6C369.598 71.2 370.098 70.8 370.698 70.4C371.098 70.1 371.598 70 371.898 70.5C372.198 70.9 371.698 71.1 371.498 71.3C370.098 73 369.998 73.2 371.298 75.6C370.598 76.1 369.598 75.8 368.898 76.3C367.898 75.8 367.798 74.9 367.898 74C367.998 73.3 367.998 72.5 368.698 72C368.898 72 368.998 71.7 368.998 71.6Z" fill="#324A8A"/>
<path d="M433.9 123.4C434.3 123.8 434.9 124.1 434.3 124.8C433.5 124.5 432.7 124.4 431.9 124.5C431.7 124.7 431.4 124.7 431.1 124.6C430.8 124.4 430.6 124.2 430.3 123.9C428.8 122.4 428.8 121.8 430.4 120.3C430.7 119.3 431.5 119.7 432.2 119.6C432.4 119.9 432.8 120.3 432.6 120.7C432 122.1 432.9 122.8 433.9 123.4Z" fill="#324A8A"/>
<path d="M368.298 143.9C368.198 144.7 368.798 145.2 369.098 145.9C369.898 148.4 368.998 150.6 366.598 151.8C366.698 151.2 366.598 150.7 366.298 150.1C365.898 149.3 366.098 149 366.998 148.9C367.198 148.9 367.398 148.8 367.598 148.7C367.998 148.6 368.898 148.5 368.798 148.3C368.398 147.8 368.898 147.4 368.798 147C368.498 146.3 368.998 145.1 367.598 145C367.498 145 367.298 144.7 367.298 144.6C367.898 143.6 367.098 143.3 366.398 143.1C366.198 142.6 367.598 143.1 366.898 142.1C366.398 141.3 366.998 140.4 367.398 139.6C367.698 139 368.098 138.9 368.698 139C368.398 139.3 368.998 139.6 368.598 140C367.198 141.3 367.198 141.8 367.998 143.5C368.098 143.7 368.198 143.8 368.298 143.9Z" fill="#324A8A"/>
<path d="M326.898 81.7C327.398 81.8 327.498 81.3 327.898 81.1C328.398 80.8 328.898 80 329.398 81.2C329.598 81.7 330.098 81.2 330.498 80.9C330.698 80.8 330.798 80.8 330.998 80.7C331.398 80.6 331.998 80.3 332.198 80.5C332.598 80.9 332.298 81.5 332.098 81.9C331.498 83.2 330.098 83.7 328.898 84.3C328.498 84.5 327.298 83.3 327.298 82.6C327.198 82.3 327.198 82 326.898 81.7Z" fill="#324A8A"/>
<path d="M328.497 77.4C327.597 77.8 326.697 78.2 325.897 78.7C325.097 79.2 324.297 79.5 323.597 78.5C323.597 78.5 323.397 78.6 323.297 78.6C323.297 78.1 323.297 77.6 323.397 77.1C323.497 76.7 323.897 76.5 324.397 76.6C324.597 76.6 324.997 76.9 324.897 77C323.697 78.2 325.797 77.5 325.497 78.1C326.097 78.3 326.597 78.2 326.597 77.6C326.597 76.8 326.497 76.3 327.397 77.1C327.597 77.2 328.297 76.5 328.197 76C327.897 74.6 329.897 74.5 329.797 73.2C330.197 73.3 330.597 73.4 330.997 73.5C330.897 73.9 331.197 74.3 330.597 74.6C329.997 74.9 329.697 75.7 328.997 76C328.397 76.1 328.597 76.8 328.497 77.4Z" fill="#324A8A"/>
<path d="M304.398 96.3C303.498 95.3 302.298 95.3 300.898 95.1C302.098 93.8 302.998 92.5 303.698 91.1C303.998 91.1 304.298 91.1 304.298 91.5C304.298 92.3 304.398 93 304.898 93.7C305.298 94.4 305.198 95.3 304.998 96C304.998 96.2 304.698 96.3 304.398 96.3Z" fill="#324A8A"/>
<path d="M297.394 70.3C297.194 70.1 297.094 69.9 297.094 69.6C297.294 69.5 297.494 69.4 297.694 69.3C298.294 69.5 299.094 69.4 299.194 70.3C299.594 70.5 299.994 70.5 300.294 70.3C300.794 70.2 301.594 71.2 301.794 69.9C302.194 70.3 302.694 70.2 303.094 70.3C302.594 70.7 301.494 70.6 301.594 71.7C301.594 72 301.294 72 300.994 72C300.494 72 300.094 72 299.594 72C298.794 72 298.194 71.9 298.094 71C297.994 70.6 297.794 70.3 297.394 70.3Z" fill="#324A8A"/>
<path d="M282.5 72.6C282.6 71.4 284 71.4 284.5 70.5C284.8 70 285.4 70.3 285.9 70.2C286.2 70.3 286.2 70.6 286.4 70.7C286.5 70.8 286.5 70.9 286.5 71.1C286.5 71.2 286.5 71.2 286.4 71.3C286.3 71.4 286.2 71.5 286.1 71.6C286 71.6 286 71.7 285.9 71.7C285.8 71.8 285.7 71.8 285.5 71.9C285.4 72 285.3 72.1 285.2 72.2C285.1 72.3 285.1 72.3 285 72.3C284.9 72.4 284.8 72.5 284.6 72.6C284 73.1 283.2 73.8 282.5 72.6Z" fill="#324A8A"/>
<path d="M351.199 68.1C351.499 67.7 351.798 67.3 352.298 67.5C352.798 67.6 353.498 67.7 353.898 68C354.298 68.3 353.899 68.7 353.699 69C352.799 69.5 351.998 69.5 351.298 68.8C351.098 68.6 351.099 68.3 351.199 68.1Z" fill="#324A8A"/>
<path d="M329.998 66C329.598 66.1 329.298 65.8 328.898 65.7C328.798 65.6 328.698 65.4 328.598 65.2C328.498 65 328.298 65 328.198 64.9C328.098 64.8 327.998 64.8 327.898 64.7V64.6C328.798 64.2 329.698 63.6 330.798 64.3C330.598 64.5 330.398 64.5 330.198 64.4C330.498 64.5 330.798 64.5 331.098 64.3C331.598 64.4 332.498 63.7 332.498 64.9C331.798 65.3 331.098 65 330.398 65.1C329.898 65.1 329.698 65.2 329.898 65.7C329.998 65.8 329.998 65.9 329.998 66Z" fill="#324A8A"/>
<path d="M434.993 106.3C434.693 106.5 434.593 107 434.193 106.8C433.593 106.4 433.793 105.9 434.093 105.4C434.493 105.2 434.893 105 435.293 104.7C435.793 104.3 435.993 104.6 436.193 105C435.993 105.6 435.093 105.6 434.993 106.3Z" fill="#324A8A"/>
<path d="M292.694 70.4C292.294 70.4 291.694 70.8 291.694 70C291.694 69.4 291.294 69 291.094 68.5C292.594 68.5 292.894 68.9 292.694 70.4Z" fill="#324A8A"/>
<path d="M260.495 82.3C260.195 82.6 260.495 83.6 259.495 83.3C259.495 82.7 259.296 81.9 260.196 81.7C260.496 81.8 260.495 82.1 260.495 82.3Z" fill="#324A8A"/>
<path d="M277.094 130C277.794 129.7 277.994 129.8 278.194 130.8C277.794 130.5 277.594 130 277.094 130Z" fill="#324A8A"/>
<path d="M331.098 64.3C330.598 64.9 330.098 64.5 329.398 64.5C329.898 64.1 330.398 64.3 330.798 64.2C330.798 64.3 330.898 64.3 331.098 64.3Z" fill="#324A8A"/>
<path d="M432.097 107.5C431.997 107.4 431.897 107.4 431.797 107.3C431.897 107.1 431.897 106.9 431.797 106.7C431.797 106.6 431.897 106.5 431.897 106.4C432.597 106.7 432.497 107.1 432.097 107.5Z" fill="#324A8A"/>
<path d="M243.797 83.4C243.997 83.4 244.097 83.5 244.097 83.7C243.897 83.8 243.797 83.6 243.797 83.4Z" fill="#324A8A"/>
<path d="M260.097 86.3C260.097 86.4 260.097 86.4 260.097 86.5C259.997 86.6 259.897 86.7 259.797 86.5C259.797 86.3 259.897 86.2 260.097 86.3Z" fill="#324A8A"/>
<path d="M260.097 86.9C260.097 87.1 259.997 87.2 259.797 87.2C259.797 87.1 259.797 87 259.797 86.8C259.897 86.8 259.997 86.8 260.097 86.9Z" fill="#324A8A"/>
<path d="M260.097 86.9C259.997 86.9 259.897 86.9 259.797 86.9C259.797 86.8 259.797 86.7 259.797 86.6C259.897 86.6 259.997 86.6 260.097 86.6C260.197 86.7 260.197 86.8 260.097 86.9Z" fill="#324A8A"/>
<path d="M439.896 73.7C438.196 72.4 435.796 73.7 434.096 72.3C432.496 72.3 431.096 71.8 429.696 71.2C428.596 70.8 427.896 70.7 427.096 71.6C426.396 72.4 425.496 72.6 424.496 72.6C423.396 72.6 422.296 72.2 421.096 72.6C420.096 72.9 418.896 72.6 418.096 71.8C417.296 71.1 416.396 70.8 415.296 70.8C414.396 70.9 413.496 70.9 412.596 70.8C411.096 70.6 410.196 71.3 409.596 72.4C409.396 72.7 409.396 72.9 408.996 72.9C408.196 72.8 407.196 72.8 406.596 72.2C405.496 71.1 404.196 71.2 402.896 71.6C400.996 72.1 399.196 72.5 397.396 71.6C396.796 71.4 396.396 71.5 395.996 72C395.796 72.3 395.796 72.8 395.096 72.8C394.996 72.2 394.896 71.7 394.896 71.1C394.896 70.7 394.696 70.5 394.296 70.4C392.996 69.9 391.796 69.3 390.496 68.8C390.196 68.7 389.896 68.6 389.696 69.1C389.196 70.1 387.296 71.7 386.096 71.8C384.996 71.9 384.196 72.6 383.196 72.7C382.796 72.8 381.996 73 382.696 73.8C382.896 74.1 382.596 74.3 382.296 74.3C381.996 74.3 381.596 74.4 381.296 74.1C380.496 73.6 380.496 74.2 380.596 74.7C380.896 75.9 381.596 76.4 383.196 76.5C382.096 77.1 381.296 77.8 381.296 79C381.296 79.3 380.796 79.2 380.496 79.2C380.096 79.2 379.896 79.5 379.596 79.7C378.796 80.3 378.196 80.8 378.096 79.1C377.996 77.9 376.296 77.2 375.196 77.9C374.796 78.2 374.396 78.3 374.096 78.2C371.696 77.4 369.396 78.1 367.096 78.5C366.296 78.7 366.096 77.7 365.396 77.5C364.396 78.6 363.396 79.8 363.496 81.4C363.496 81.4 363.296 81.5 363.196 81.5C362.796 82.1 362.196 82.9 361.396 82.7C359.696 82.4 358.496 79.7 359.496 78.3C360.196 77.3 359.796 76.8 358.896 76.4C358.196 76.5 357.896 75.7 357.196 75.6C354.096 75.3 352.496 75.8 349.996 78C348.796 78.5 347.896 79.5 346.796 80.2C345.796 80.8 345.296 82.1 344.196 82.2C342.996 82.3 342.796 83.2 342.396 83.8C341.496 85.2 341.696 86 342.996 87.3C343.296 87.7 343.796 87.9 343.996 88.4C344.196 88 344.496 87.8 344.996 87.7C344.796 86.8 344.996 86.6 345.796 86.6C346.196 86.6 346.496 86.6 346.496 87.2C346.596 89.1 347.496 89.4 349.096 88.3C349.396 88.1 349.696 87.8 350.096 87.6C351.196 87 351.596 86.3 351.096 85.1C350.596 84 350.896 83 351.996 82.3C352.196 82.2 352.296 82 352.396 81.8C352.596 81.4 352.896 81.1 353.396 81.4C353.496 81.4 353.496 81.5 353.596 81.5C353.896 81.5 354.196 81.6 354.496 81.8C354.496 82.3 354.096 82.4 353.896 82.6C353.296 83.2 352.796 84 353.496 84.7L353.596 84.8C353.796 84.8 354.096 84.8 354.396 84.8C354.596 84.8 354.896 84.7 355.096 84.7C355.196 84.7 355.196 84.6 355.296 84.6C355.396 84.6 355.396 84.2 355.496 84.5C355.596 84.7 355.596 84.9 355.796 85C356.196 85.2 356.496 85.5 356.696 85.9C356.796 86 356.896 86.1 356.996 86.2C357.496 86.7 357.296 87 356.696 87.2C356.496 87.3 356.296 87.2 356.096 87.2C355.896 87.3 355.696 87.3 355.396 87.4C353.396 87.9 351.696 89.1 349.896 90.1C349.296 90.4 348.896 90.9 348.196 90.3C347.896 90 347.396 90.1 346.996 90.3C346.296 90.7 345.696 90.4 344.896 90C345.496 89.5 345.696 89 345.596 88.4C345.496 88 345.196 88.1 344.896 88.1H344.796C344.496 88.1 344.196 88.4 343.896 88.5C343.196 88.8 343.596 89.4 343.596 89.9C343.496 90.5 343.396 91 342.696 90.9C341.096 90.8 340.496 92 339.696 92.9C339.696 92.7 339.796 92.3 339.596 92.3C338.396 92.3 338.396 91.4 338.296 90.6C338.196 90 338.296 89.5 338.396 88.9C338.496 88.1 337.996 87.4 337.496 87.2C336.896 87 335.996 87.6 335.996 88.1C336.096 89.6 334.596 91.2 335.996 92.7C336.096 92.8 336.196 92.9 335.996 93C334.596 93.6 335.696 94.4 335.796 95.1C335.796 95.4 335.196 95.5 335.596 95.9C336.596 96.8 336.796 98 336.696 99.2C336.396 99.8 336.296 100.5 336.796 101C337.296 101.5 337.696 100.6 338.096 100.5C339.296 100.3 340.596 99.7 341.896 99.9C342.796 100 343.196 99.8 342.796 98.9C342.596 98.4 342.596 97.9 343.096 97.7C344.096 97.3 345.096 98 345.696 98.4C346.396 98.8 346.596 98.8 347.096 98.4C349.296 96.8 349.296 96.8 349.896 99.4C349.896 99.6 349.896 99.3 349.996 99.6C351.096 101 351.996 102.4 352.596 104.1C352.796 104.8 353.296 105.6 354.196 105.5C355.096 105.4 355.496 104.5 355.596 103.7C355.696 103.1 355.696 102.5 356.496 102.5C357.196 102.5 357.496 103.1 357.596 103.7C357.796 105.3 358.896 105.8 360.396 105.8C361.096 105.8 361.796 105.7 362.496 105.6C363.496 105.5 363.896 105.8 363.896 106.9C363.896 108.5 362.896 109.1 361.596 109.5C360.496 108.3 358.996 108.9 357.696 109C355.196 108.9 353.296 110.6 350.896 111C351.196 109.8 350.496 109.3 349.396 109C348.596 108.8 347.696 108.5 346.896 108.3C346.196 108.1 345.796 107.8 345.996 107C346.196 105.9 345.596 105.4 344.496 105.4C343.696 105.4 342.796 105.4 342.096 105.9C341.496 106.3 341.496 105.6 341.196 105.5C340.496 105.3 339.696 105.2 338.896 105.5C336.996 106.1 335.096 106.3 333.196 106.2C331.396 107.9 329.096 109.3 328.396 111.9C328.196 112.6 327.696 113.4 327.296 114C326.296 115.5 324.296 116.1 323.796 118.2C323.596 119.3 323.096 120.2 323.996 121.1C324.396 121.5 324.096 121.9 323.996 122.3C323.796 122.9 323.296 123.7 323.796 124.3C324.596 125.3 324.796 126.7 325.696 127.7C326.396 128.5 326.796 129.5 327.196 130.5C327.696 131.5 328.296 132.5 329.496 132.8C329.696 132.9 329.796 133.1 330.096 133C331.196 132.6 332.296 132.8 333.396 132.8C335.296 132.9 337.096 132.6 338.696 131.5C339.596 130.9 339.696 131 340.896 131.4C341.396 131.6 341.796 131.9 342.196 132.3C342.496 132.6 342.796 133 343.196 132.8C343.996 132.4 344.096 132.9 343.996 133.5C343.896 134.8 343.496 136.1 343.196 137.4C343.096 138 342.896 138.7 343.496 139C344.696 139.6 345.296 140.7 345.996 141.7C346.796 142.7 347.096 143.9 347.196 145.2C347.296 146.1 346.696 146.8 345.996 147.4C345.596 147.7 345.696 148 345.996 148.4C346.296 149 346.696 149.7 346.296 150.4C345.596 151.8 346.096 153 347.096 154C347.796 154.8 348.296 155.7 348.596 156.6C348.696 157.5 349.496 158.1 349.896 158.8C350.896 160.6 351.596 162.6 352.496 164.4C352.696 164.9 352.996 165.5 353.796 165.3C355.996 164.7 358.296 164.6 360.096 163.1C360.596 162.7 360.896 161.9 361.696 161.9C362.096 161.7 362.396 161.5 362.396 161C362.296 159.7 363.096 158.6 363.796 157.7C364.496 156.8 365.196 155.9 364.896 154.8C364.696 154 365.696 153.9 365.396 153C365.096 152.1 366.196 152.2 366.696 151.8C366.796 151.7 366.796 151.7 366.896 151.6C366.996 151.4 367.096 151.2 366.996 150.9C366.696 149.8 366.796 149 368.196 148.9C368.896 148.8 369.096 148.4 369.196 147.7C369.296 146.6 369.196 145.6 368.496 144.6C367.096 142.7 366.796 140.3 368.896 138.8C370.196 137.9 371.196 136.7 372.396 135.7C373.196 135 374.496 134.4 374.396 132.9C374.396 132.8 374.596 132.7 374.696 132.5C375.696 131.1 376.696 129.8 376.396 127.9C376.896 127.4 377.196 126.9 376.696 126.2C376.296 125.6 375.696 125.9 375.096 126.1C373.996 126.4 373.096 127 371.996 127.1C371.496 127.2 370.996 127 370.896 126.5C370.396 125 369.296 124 368.196 122.9C367.696 122.4 367.396 121.8 367.096 121.1C365.996 118.6 364.496 116.3 363.896 113.7C363.596 113.2 363.196 112.9 362.796 112.5L362.696 112.4C362.796 112.4 362.896 112.4 362.896 112.3C363.196 112.2 363.396 112.1 363.696 112.3C363.896 112.6 363.996 112.9 364.396 113.1C364.996 113.4 365.396 113.9 365.696 114.5C366.996 117.4 368.596 120.2 369.796 123.1C370.296 124.2 370.896 124.7 372.096 124.4C374.496 123.6 377.196 123.6 379.296 121.9C380.696 121.7 381.796 121.2 382.196 119.7C382.196 119.5 382.496 119.3 382.596 119.2C383.696 117.9 383.696 117.9 382.796 116.6C382.596 116.3 382.296 116 381.996 115.7C381.896 115.2 382.096 115 382.496 115C384.596 114.9 386.696 115.1 388.896 115.3C389.496 115.4 389.996 115.8 390.296 116.3C390.896 117.3 391.096 118.5 392.696 118.3C392.996 118.3 393.096 118.7 392.996 119C392.996 121.5 394.296 123.7 395.196 125.9C395.996 126.9 395.896 128.5 397.296 129.2C398.596 128.9 399.396 128.2 399.796 126.9C400.196 125.6 399.996 124.3 400.096 123.1C400.896 122.4 400.796 121.3 401.296 120.5C402.396 118.7 404.396 117.9 406.096 116.9C406.496 116.7 407.396 116.5 407.496 117C407.596 118.2 408.996 118.8 408.896 120C409.696 120.8 409.996 121.7 410.096 122.8C411.496 122.3 411.496 122.3 412.096 123.4C412.196 123.6 412.396 123.9 412.496 124.1C412.796 124.5 412.996 125 413.196 125.5C414.196 127.3 414.196 127.3 415.696 126.2C415.896 126.2 416.196 126.2 416.396 126.1C417.296 125.7 417.996 125.8 418.296 126.8C418.396 127.2 418.496 127.6 419.096 127.6C419.696 127.6 419.996 127.2 420.296 126.7C420.596 126.2 420.196 125.5 420.896 125.2C421.696 124.8 421.396 124.3 421.196 123.6C420.896 122.7 419.796 122.1 420.196 121C419.996 120.2 420.496 119.5 420.296 118.8C419.296 118.1 419.596 117.4 420.096 116.6C420.596 115.8 421.096 115.3 422.096 115.9C422.596 116.1 422.996 116 423.396 115.7C424.396 115.1 425.096 114.5 425.096 113.3C425.096 112.2 426.896 112.7 426.896 111.3C426.896 109.8 427.296 108.4 426.996 106.9C427.096 106 426.196 105.7 425.696 105.2C425.496 104.9 425.196 104.8 425.196 104.3C425.196 103 425.096 102.9 423.896 103C423.496 103 423.196 103.1 422.996 102.6C422.696 102 422.096 101.6 421.696 101.1C422.496 100.5 422.896 99.4 424.196 99.6C424.696 99.2 424.496 97.5 425.796 98.9C425.896 99 426.296 98.9 426.396 98.7C427.296 97.3 428.796 97.8 430.096 97.6C431.496 97.6 431.796 96.6 431.896 95.5C431.896 94.1 431.796 92.6 431.996 91.2C431.596 89.6 430.796 88.2 429.996 86.9C428.796 86.3 427.796 85.5 426.296 85.5C425.296 85.5 424.996 84.8 425.696 84C426.496 83 427.596 82.9 428.696 83C430.796 83.2 431.996 82.4 432.596 80.5C432.596 80.4 432.696 80.2 432.796 80.1C432.896 79.9 433.096 79.8 433.296 79.7C433.396 79.6 433.496 79.6 433.596 79.5C434.096 79.2 433.996 79.8 434.196 79.9C434.796 80.5 435.796 80.7 435.896 80C436.196 78.6 437.196 78.7 438.096 78.5C438.696 78.4 439.096 78.2 439.196 77.6C439.696 76.5 439.696 76.5 438.496 76.2C437.496 76 437.496 75.8 437.696 74.9C437.896 74.3 438.296 74.5 438.696 74.5C439.196 74.5 439.496 74.9 439.996 74.8C440.496 74.7 440.896 74.5 440.896 74C440.796 73.6 440.096 73.8 439.896 73.7ZM366.696 101.7C366.096 102.3 365.096 102.4 364.596 101.9C362.896 100.6 361.196 100.9 359.396 101.3C358.796 101.4 356.896 100 357.196 99.8C357.996 99.2 357.796 97.8 359.096 97.5C359.696 97.3 360.296 97.2 360.996 97.2C361.696 97.9 362.196 98.3 362.896 97C363.396 96.1 364.396 96.3 364.596 97.4C364.896 98.5 366.396 98.5 366.696 99.6C367.196 100.4 367.196 101.2 366.696 101.7ZM371.696 97.9C372.096 96.9 373.096 96.6 373.996 96.8C374.896 96.9 374.996 97.6 374.596 98.4C374.196 99.1 374.696 99.5 375.196 99.8C375.696 100.1 376.296 100.2 376.396 100.9C376.396 101.2 376.596 101.5 376.296 101.7C375.696 102.2 375.896 102.7 376.096 103.2C376.496 104.4 375.596 104.3 374.796 104.4C373.996 104.5 373.696 104.2 373.796 103.4C373.896 102.6 373.496 102.2 372.796 101.7C371.796 101 371.196 99.1 371.696 97.9ZM379.096 115.1C378.196 116 377.296 116.6 376.196 115.3C376.096 115.2 375.596 115.1 375.396 115.4C375.096 115.7 374.796 115.5 374.696 115.3C373.996 114.2 373.396 113 372.796 111.8C372.596 111.4 373.396 110.6 373.996 110.7C374.596 110.8 375.296 111 375.596 111.6C376.396 113.2 377.596 114.4 379.596 114.4C379.696 114.4 379.896 114.6 380.096 114.9C379.696 115 379.296 115 379.096 115.1Z" fill="#324A8A"/>
<path d="M376.4 100.9C374.9 100.8 374.2 99.7 373.4 98.7C373.6 98.5 373.8 98.3 374 98.2C374.3 98 374.8 98.1 374.6 97.6C374.5 97.2 374.2 96.9 373.7 96.9C372.5 96.9 371.7 97.6 371.7 98.8C371.7 100 372.1 101.1 373.2 101.8C373.7 102.2 374 102.6 373.9 103.2C373.9 103.6 373.6 104.3 374.5 104.4C375.3 104.4 376.1 104.5 376.1 103.3C376.8 103.8 376.5 104.2 376 104.5C375.5 104.9 374.7 104.6 374.1 104.8C373.9 104.9 373.5 104.4 373.6 104C373.8 102.8 373.3 102.3 372.1 101.9C371.3 101.6 371.5 100.4 371.3 99.6C371.3 99.3 371.5 99 371.4 98.8C371.1 98.1 371 97.4 371.8 97C372.6 96.6 373.5 96.1 374.4 96.3C374.9 96.4 375.4 96.6 375.4 97.4C375.4 98.3 375.7 97.4 375.9 97.5C376.4 97.6 376.6 98.1 376.4 98.4C375.4 99.4 376.3 99.8 377 100.3C376.8 100.5 376.5 100.6 376.4 100.9Z" fill="#324A8A"/>
<path d="M366.498 99.8C365.998 99.4 365.498 99 364.898 98.7C363.598 98.1 363.598 98.1 364.298 96.9C363.498 96.9 362.698 96.5 362.798 97.9C362.798 98.3 362.398 98.9 361.798 98.9C361.198 98.9 361.198 98.4 360.998 98C360.898 97.8 360.898 97.6 360.898 97.4C360.998 97.2 361.098 97.1 361.398 97C362.398 96.9 362.998 96.4 363.198 95.5C363.298 95.1 363.898 94.9 363.898 94.4C363.898 94.3 363.898 94.2 363.998 94.1C364.198 94.1 365.498 95.2 365.498 95.4C365.598 96 365.698 96.5 365.598 97.1C365.498 97.6 365.398 98.4 366.198 98.8C366.498 99.1 366.598 99.5 366.498 99.8Z" fill="#324A8A"/>
<path d="M419.797 121.3C420.397 122.3 421.097 123.2 421.497 124.4C421.897 126 420.797 128.1 419.197 128.6C418.897 128.7 418.497 128.6 418.297 128.3C417.597 127.6 416.897 126.9 416.297 126.2C416.697 125.8 417.097 125.5 417.697 125.6C417.997 125.6 417.697 126.5 418.497 126.2C418.897 126 418.697 126.7 418.597 126.9C418.397 127.3 418.697 127.5 418.897 127.8C419.097 127.4 419.897 127.7 419.897 127C419.897 126.7 420.197 126.4 420.097 126.2C419.997 125.9 419.997 125.6 420.097 125.2C420.497 124.5 420.497 125.6 420.797 125.3C420.997 125.1 421.097 125 421.097 124.7C421.097 124.2 420.197 124.2 420.297 123.7C420.397 123.1 420.197 123 419.697 122.8C418.897 122.4 419.597 121.8 419.797 121.3Z" fill="#324A8A"/>
<path d="M355.395 87.5C355.795 87.2 356.195 86.9 356.595 86.6C355.395 84.9 355.095 84.8 352.895 85.9C351.995 84.8 352.295 83.7 353.195 82.7C353.395 82.4 353.695 82.1 353.295 81.8C352.995 81.5 352.695 82 352.395 82C352.395 81.8 352.395 81.5 352.395 81.3C353.295 81.2 354.195 81.6 355.195 81.3C354.895 82 355.295 82.6 354.395 82.8C353.695 83 353.195 83.8 353.595 84.9C354.295 84.7 355.195 84.9 355.595 84C355.695 83.7 356.095 83.7 356.295 83.9C356.395 84 356.495 84.1 356.495 84.2C356.395 84.5 355.995 84.3 355.795 84.5C355.895 85.2 356.595 85.5 357.095 85.7C357.795 86 357.995 86.5 357.895 87C357.695 87.6 356.995 87.9 356.295 87.7C355.895 87.8 355.695 87.6 355.395 87.5Z" fill="#324A8A"/>
<path d="M363.694 112.3C363.594 112.6 363.594 113 363.294 113.1C362.894 113.2 362.894 112.7 362.594 112.5C362.894 112.3 363.094 111.5 363.694 112.3Z" fill="#324A8A"/>
<path d="M432.995 79.6C432.795 80.1 432.495 79.9 432.195 79.8C432.395 79.5 432.695 79.6 432.995 79.6Z" fill="#324A8A"/>
<path d="M341.4 106C342.7 105.6 344.1 105.9 345.4 105.8C345.8 105.8 346.1 106 346 106.4C346 106.7 346 107.1 345.9 107.4C345.6 108.2 345.9 108.5 346.7 108.5C348.4 108.5 350 108.9 351.2 110C351.8 110.5 352.3 110.2 352.8 110C352.7 109.5 352.1 109 352.7 108.4C353.2 108 353.7 108 354.2 108.3C355.3 108.8 356.4 109.1 357.4 109.8C357 109.8 356.5 109.9 356.2 109.8C355.4 109.5 355.1 109.8 355 110.6C355 110.8 355 111.2 354.5 111.1C353.7 110.9 351.8 111.4 351.3 111.9C351.2 112 351.1 112.2 350.9 112.3C350.7 112.5 350.5 112.4 350.3 112.2C350.1 112 350.3 111.9 350.3 111.7C350.8 110.4 350.8 110.4 349.3 109.9C347.9 109.4 346.5 109.2 345.1 108.5C345.3 107.7 346 107.1 345.2 106.2C344.2 106.3 343 106 341.7 106.8C341 107.1 341.3 106.3 341.4 106Z" fill="#324A8A"/>
<path d="M307.897 141.9C306.997 141.9 306.197 141.6 305.497 141.2C304.497 140.6 303.597 139.9 302.697 139.3C302.597 139.2 302.697 138.7 302.297 138.9C301.597 139.4 300.697 138.7 300.097 139.5C299.797 140 299.097 139.9 299.097 139C299.097 138.6 299.097 138 298.497 138.4C297.497 139 297.697 138.3 297.797 137.8C297.897 137.2 298.497 136.9 298.497 136.2C298.497 133.9 297.097 132.4 295.297 131.5C293.997 130.9 292.897 130.1 291.697 129.3C291.297 128.9 291.097 128.5 291.097 128C291.097 127.6 291.297 127.3 290.897 127V126.9C290.797 126.9 290.697 126.9 290.597 126.9C290.497 127 290.297 127.1 290.197 127.2C289.797 127.7 289.097 127.6 288.597 127.6C287.697 127.7 286.697 127.3 285.897 127.9C285.697 128 285.397 128 285.297 127.8C284.897 127.1 284.097 127.4 283.497 127.3C283.397 127.2 283.297 127.2 283.297 127.2C283.097 127.6 282.997 128.1 282.697 127.3C282.597 127.3 282.597 127.3 282.497 127.2C282.097 126.7 281.697 126.8 281.297 127.1C280.597 127.6 279.897 128.1 279.197 128.6C279.097 128.7 278.997 128.7 278.897 128.7C278.797 128.9 278.797 129.1 278.797 129.4V129.5L278.697 129.4C278.597 129.3 278.597 129.2 278.497 129.1L278.397 129C278.297 128.9 278.297 128.8 278.197 128.7C278.197 128.7 278.197 128.6 278.097 128.6C277.897 128.5 277.597 128.5 277.297 128.6C276.697 128.7 276.097 129 275.497 128.6L275.397 128.7C275.097 128.9 274.697 128.9 274.397 128.7C273.497 127.9 273.397 126.9 273.697 125.8C274.097 124.5 273.697 123.7 272.297 123.4C270.497 123 270.497 122.8 270.897 121C270.997 120.7 271.097 120.3 271.097 120C271.097 119.7 271.197 119.4 270.897 119.2C270.597 119.1 270.297 119.2 270.097 119.4C269.697 119.7 269.397 120.2 268.997 120.5C267.497 121.9 265.597 121.4 264.997 119.5C264.797 118.7 264.197 117.9 264.797 117.1C264.597 115.6 265.697 114.5 265.997 113.2C266.097 112.9 266.297 112.7 266.697 112.7C267.497 112.8 268.097 112.4 268.697 112C269.897 111.1 271.297 111.2 272.697 111.3C273.097 111.3 273.397 111.3 273.697 111.3C273.897 111.2 274.197 111.1 274.397 111C274.597 110.8 274.797 110.5 274.897 110C274.997 109.2 275.897 109.3 276.497 109.1C277.797 109.3 278.397 109.9 277.997 111.3C277.697 112.5 278.297 112.9 279.697 112.7C279.597 110.7 280.197 108.9 281.897 107.6C282.697 107.5 283.297 106.9 284.197 106.8C284.597 106.8 284.797 106.3 284.797 105.9C285.297 105.2 285.697 104.5 286.197 103.8C286.997 102.7 287.797 101.5 288.997 101.1C290.297 100.7 290.997 100 291.797 99.1C292.197 98.7 292.597 98.2 292.997 97.9C293.497 97.4 294.097 97 294.897 97.3C294.997 97.8 294.397 97.9 294.297 98.3C294.097 98.9 294.597 98.9 294.997 98.9C295.997 97.8 297.497 97.3 298.797 96.2V96.1C297.997 95.6 297.297 96 296.697 95.6C297.097 93.6 297.097 93.6 295.797 93C296.897 92.1 298.297 92.4 299.597 92.3C301.097 92.3 302.297 91.5 302.997 90.2C302.997 89.7 302.997 89.3 302.997 88.8C302.797 88.1 302.797 87.5 302.697 86.8C302.597 86.3 302.397 85.8 301.897 85.9C299.997 86.3 299.697 85 299.297 83.7C299.197 83.6 299.097 83.6 299.097 83.5C298.597 82.5 297.297 82.6 296.497 82C295.997 83.1 295.497 84.1 294.297 84.4C294.297 84.8 293.897 85 293.897 85.3C293.797 87.2 292.597 87.9 290.797 88.1C290.597 88.9 290.497 89.7 289.797 90.2C289.197 90.6 288.497 90.4 288.597 89.8C288.797 88.4 288.197 87.9 286.797 87.4C284.497 86.6 284.297 84.5 285.997 82.7C287.097 81.5 288.497 81.2 289.897 80.8C291.097 80.3 291.897 79.1 293.497 79.4C293.997 78.2 294.997 78 296.197 78C297.597 78 297.597 78 297.697 76.6C298.297 75.8 297.197 75.9 296.997 75.5C296.997 75.4 296.997 75.3 296.897 75.1C296.297 74.5 295.497 74 296.497 73.1C296.697 72.9 296.797 72.2 296.197 71.9C295.597 71.9 295.097 72.3 294.797 72.7C294.297 73.4 293.697 73.9 293.097 74.4C292.597 74.8 291.997 75.4 291.497 75.4C290.497 75.4 289.497 75.8 288.597 76.1C288.497 76 288.397 76 288.397 75.9C287.497 75.6 286.597 75.2 285.797 74.7C284.697 74.4 283.797 74.7 282.797 75.1C282.497 75.2 282.097 75.1 281.697 75.3C281.597 75.3 281.397 75.4 281.397 75.4C280.097 74.3 278.797 73.6 276.897 73.5C275.597 73.4 274.097 73.1 272.897 73.4C271.597 73.8 271.097 73.1 270.297 72.7C270.197 72.6 270.197 72.3 270.097 72.3C269.197 72 268.797 71 267.997 70.6C266.897 70.1 266.197 71.2 265.197 71.3C263.997 71.4 262.797 71.8 261.497 71.9C260.697 72 259.997 72.2 259.697 73C259.897 73.2 259.897 73.5 259.697 73.7C258.997 74.3 258.097 74.4 257.197 74.4C256.597 74.4 255.997 74.3 255.797 75.1C255.697 75.6 255.197 75.5 254.797 75.7C253.597 76.2 252.197 76.1 251.097 76.9C250.697 76.8 250.197 77 250.197 77.2C250.397 78.2 249.397 78.5 249.097 79.2C249.897 80.4 249.697 81.2 248.297 81.3C246.997 81.5 245.797 82.4 244.397 82.1C244.097 82 243.697 82.3 243.497 82.5C243.297 82.6 243.497 82.9 243.697 83C243.797 83.1 243.897 83.2 243.997 83.3C244.997 83.7 245.897 82.7 246.897 83C247.597 83.2 248.197 82.9 248.697 82.6C249.897 82 251.197 81.6 252.497 81.2C252.897 81.1 253.297 80.9 253.597 80.6C253.197 80.8 252.897 80.7 252.797 80.5C253.097 80.6 253.297 80.6 253.597 80.6C254.797 80.2 255.797 78.6 257.397 79.9C257.497 80 257.897 79.9 258.097 79.9C259.197 79.8 259.797 80.3 260.097 81.3C259.997 81.6 260.097 81.9 260.397 82.1C261.597 82.3 261.297 83.1 261.197 83.8C261.197 83.9 261.097 84.1 261.097 84.2C261.097 84.8 260.497 85 260.397 85.4C260.297 85.5 260.097 85.7 259.997 85.8L259.897 85.9V86.1L259.997 86.2L259.897 86.3L259.797 86.4C259.797 86.5 259.697 86.6 259.697 86.7C260.097 87.9 259.497 89.2 260.197 90.3C260.397 90.6 260.297 90.8 259.897 90.9C259.497 91 259.397 91.5 259.097 91.7C258.397 92.2 258.597 93 257.997 93.6C256.997 94.6 256.197 95.7 255.297 96.9C254.797 97.6 254.497 98.5 253.897 99.1C252.097 100.8 252.797 102.8 253.097 104.7C254.097 106.4 253.997 108.4 254.197 110.2C254.197 110.3 254.197 110.6 253.997 110.7C253.197 111.3 253.497 111.9 253.897 112.6C254.197 113.1 254.497 113.7 254.797 114.2C255.397 114.5 255.297 115.2 255.697 115.6C255.797 115.7 255.997 115.8 256.097 115.8C256.297 115.8 256.497 115.6 256.497 115.3C256.497 115.1 256.397 114.8 256.297 114.6C255.497 112.6 255.297 110.6 255.397 108.5C256.497 108.6 256.897 109.6 256.797 110.4C256.697 112.7 257.697 114.7 257.797 116.9C257.897 117.9 258.297 118.5 259.197 118.9C259.997 119 260.297 119.9 260.997 120.2C261.997 121.3 263.097 122.5 264.597 122.6C266.297 122.7 267.697 123.3 268.997 124.3C269.997 125 270.697 126 270.997 127.2C271.197 128.2 271.697 128.8 272.797 128.9C273.997 129.9 275.397 129.6 276.697 129.5C277.397 129.4 277.497 129.9 277.797 130.3C277.997 131.2 277.597 131.8 276.897 132.2C277.097 133.6 275.897 134.3 275.397 135.4C274.797 136.5 273.897 137.5 274.697 139C274.897 139.4 274.997 140.3 274.397 140.9C273.897 141.4 274.197 142.4 274.497 142.7C276.097 144.2 276.797 146.3 277.897 148.1C278.597 149.1 278.697 150.6 279.997 151.2C281.097 151.7 281.797 152.8 282.997 153.3C283.497 153.5 283.797 154 283.897 154.7C284.297 157.3 284.697 159.9 285.097 162.5C285.597 165.8 286.397 169.1 286.797 172.4C286.897 173.1 286.997 174 287.997 174.3C288.097 174.3 288.297 174.4 288.397 174.4H288.497L288.597 174.3C288.697 175.4 288.097 176.5 288.597 177.7C289.397 179.7 290.797 181.1 292.097 182.7C293.097 183.8 294.097 184.3 295.497 184.1C295.497 183.8 295.397 183.6 295.197 183.3C294.497 182 294.397 180.6 294.997 179.3C295.397 178.3 295.497 178.3 294.497 178C293.297 177.7 293.097 177.1 293.697 176.1C293.797 175.9 293.997 175.6 294.197 175.4C294.997 174.3 294.997 174.3 293.697 173.6C293.597 173.6 293.597 173.4 293.597 173.3C293.897 172.8 294.997 172.5 294.497 171.7C294.497 171.7 294.497 171.7 294.597 171.6C295.097 171.1 295.797 170.8 296.397 170.5C297.997 169.6 298.197 169.2 297.597 167.4C297.497 167 297.297 166.8 297.797 166.6C300.797 165 300.897 162 301.297 159.2C301.397 158 302.097 157.2 303.197 156.8C305.197 155.9 306.697 154.5 306.697 152.1C306.697 151.3 306.697 150.4 306.997 149.8C307.997 147.7 308.097 145.4 309.197 143.4C310.197 142.6 309.597 141.8 307.897 141.9Z" fill="#324A8A"/>
<path d="M260.094 86.9C260.094 86.8 260.094 86.7 260.094 86.6C260.194 86.7 260.294 86.7 260.394 86.8C260.294 86.8 260.194 86.8 260.094 86.9Z" fill="#324A8A"/>
<path d="M328.9 65C328.9 65.2 328.9 65.5 328.9 65.7C328.5 65.4 327.8 65.5 327.9 64.7C328 64.7 328.1 64.7 328.2 64.7C328.4 64.9 328.7 64.8 328.9 65Z" fill="#324A8A"/>
<path d="M429.7 133.8C430.5 135.1 429.5 136.2 428.8 136.8C427.9 137.6 428.2 138.2 428.3 139C426.8 139.3 425.3 140.2 423.6 139.3C422.7 138.8 422 138.1 422 137.1C422 135.9 422.8 135.1 423.8 134.8C424.4 134.6 425.1 133.9 425.9 134.4C426 134.5 426.1 134.6 426.1 134.5C426.1 134.4 426.1 134.3 426.1 134.2C426 133.1 426.5 131.9 427.4 131.9C428.3 131.8 429.4 132.7 429.7 133.8Z" fill="#324A8A"/>
<path d="M429.698 133.8C429.198 133.6 429.198 132.7 428.298 132.9C428.098 132.9 427.698 132.3 427.398 132C426.798 132.8 426.198 133.7 426.298 134.8C426.398 135.5 425.798 135.5 425.598 135.5C425.198 135.3 425.698 135 425.698 134.8C425.698 134.7 425.598 134.6 425.598 134.3C425.198 135.4 424.098 135 423.398 135.6C421.898 137.1 421.898 138.2 423.798 139.1C424.498 139.5 425.098 140.1 425.798 139C425.998 138.7 426.298 138.8 426.598 139C427.098 139.3 427.798 139.1 428.298 139.2C428.498 139.8 428.098 140 427.598 140.1C425.798 140.3 423.898 141 422.498 139C422.098 138.5 421.398 138.7 420.898 138.9C421.698 138.4 421.398 137.5 421.598 136.7C422.198 134.7 422.498 134.4 424.498 134.3C425.698 133.5 426.398 132.2 427.398 131.2C428.398 130.2 429.298 130 430.498 130.6C430.798 130.7 430.998 130.8 431.398 131C430.898 131.9 429.298 132.4 429.698 133.8Z" fill="#324A8A"/>
<path d="M432.097 139.8C431.697 140.2 431.997 140.7 431.897 141.1C431.797 141.7 431.497 141.9 430.897 141.9C430.297 141.9 430.097 141.6 430.097 141C430.097 140.5 429.897 140 430.297 139.7C431.297 138.9 431.297 137.8 431.397 136.7C431.497 135.8 431.797 135.1 432.797 135C433.897 134.9 434.697 134.2 435.797 134.1C436.097 134.1 436.397 134.1 436.497 134.5C436.597 134.8 436.297 134.9 436.197 135C435.497 135.7 434.597 135.7 433.797 135.9C432.797 136.1 432.697 136.6 432.697 137.3C432.697 138 432.897 138.4 433.697 138.2C434.297 138.1 434.897 137.8 435.697 138C435.397 139.2 434.297 138.8 433.597 139.1C433.597 139.2 433.397 139.3 433.497 139.4C433.697 139.8 434.197 140.4 433.497 140.7C432.697 141.1 432.797 140.2 432.597 139.8C432.397 139.9 432.197 139.9 432.097 139.8Z" fill="#324A8A"/>
<path d="M431.898 126.9C432.198 126.7 432.098 126.3 432.498 126.2C432.598 126.3 432.798 126.4 432.898 126.5C433.098 126.7 433.098 127 432.898 127.2C432.398 127.4 431.898 127.7 431.898 126.9Z" fill="#324A8A"/>
<path d="M433.6 127C433.9 127 434.2 126.7 434.2 127.3C434.1 127.4 434.1 127.4 434.1 127.5C434.1 127.6 434.1 127.6 434.2 127.6C434.2 127.7 434.2 127.8 434.2 128C433.8 128.2 433.5 128.3 433.5 127.7C433.6 127.4 433.6 127.2 433.6 127Z" fill="#324A8A"/>
<path d="M285.594 120.6C285.094 120.4 284.594 121 284.194 120.6C284.294 120.2 283.794 120.3 283.594 120C284.394 120 285.194 119.5 285.594 120.6Z" fill="#324A8A"/>
<path d="M276.5 118.4C276.6 118.3 276.7 118.3 276.8 118.3C277 118.3 277.1 118.3 277.1 118.5C277.1 118.6 276.9 118.6 276.8 118.6C276.7 118.5 276.6 118.4 276.5 118.4Z" fill="#324A8A"/>
<path d="M283.495 121.3C283.495 121.4 283.495 121.6 283.295 121.5C283.295 121.5 283.195 121.3 283.195 121.2C283.295 121.3 283.395 121.3 283.495 121.3Z" fill="#324A8A"/>
<path d="M432.098 107.5C432.098 107.1 432.298 106.7 431.898 106.3C431.798 105.8 432.198 105.7 432.498 105.5V105.6C432.598 105.7 432.698 105.8 432.898 105.9C433.098 106.2 432.998 106.5 432.898 106.8C432.898 107.2 432.998 107.6 432.598 107.8C432.398 107.9 432.198 107.8 432.098 107.5Z" fill="#324A8A"/>
<path d="M297.698 76.8C297.598 76.5 297.698 76.1 297.198 76.2C296.898 76.3 296.798 76.8 296.398 76.5C296.398 76 296.698 75.8 297.098 75.7C298.198 75.8 298.198 75.9 297.698 76.8Z" fill="#324A8A"/>
<path d="M421.893 119.6C421.593 119.6 421.293 119.6 420.993 119.6C420.493 119.2 420.693 118.7 420.893 118.2C421.093 118.2 421.193 118.2 421.393 118.3C422.393 118.4 422.393 118.4 421.893 119.6Z" fill="#324A8A"/>
<path d="M286.395 74.4C286.295 74 285.695 74.1 285.695 73.7C286.095 73.3 285.795 72.8 285.895 72.4C285.895 72.2 285.895 72.1 285.995 71.9C286.195 71.8 286.495 71.7 286.695 71.8C287.395 71.8 287.395 72.9 288.195 72.7C289.095 72.1 289.095 72.1 289.195 73C288.895 73.4 289.095 73.8 289.195 74.2C289.295 75.2 288.795 75.6 287.895 75.2C287.695 75.1 287.495 74.9 287.195 74.7C286.895 74.5 286.595 74.6 286.395 74.4Z" fill="#324A8A"/>
<path d="M432.899 105C432.799 104.6 433.199 104.5 433.299 104.3C433.499 104.5 433.699 104.7 433.899 104.9C433.799 105.1 433.699 105.2 433.499 105.2C433.399 105.1 433.099 105.2 432.899 105Z" fill="#324A8A"/>
<path d="M278.594 129.6C278.794 129.6 279.094 129.6 279.294 129.6C278.994 130.2 278.794 130.1 278.594 129.6Z" fill="#324A8A"/>
<path d="M278.195 129C278.395 129 278.495 129.1 278.495 129.3C278.395 129.2 278.295 129.1 278.195 129Z" fill="#324A8A"/>
<path d="M261.098 83.3C260.998 83.2 260.898 83 260.898 82.9C260.898 82.8 260.998 82.8 261.098 82.8C261.098 83 261.098 83.2 261.098 83.3Z" fill="#324A8A"/>
<path d="M260.794 85L260.694 85.1L260.594 85L260.694 84.9C260.694 84.9 260.694 84.9 260.794 85Z" fill="#324A8A"/>
<path d="M432.898 106.8C432.898 106.5 432.898 106.2 432.898 105.9C433.398 106.2 433.098 106.5 432.898 106.8Z" fill="#324A8A"/>
<path d="M432.9 106C432.7 106 432.6 105.9 432.5 105.7C432.8 105.6 432.9 105.8 432.9 106Z" fill="#324A8A"/>
<path d="M328.895 65C328.595 65 328.295 65 328.195 64.7C328.495 64.6 328.795 64.6 328.895 65Z" fill="#324A8A"/>
<path d="M430.796 124.8C431.296 124.6 431.496 124.9 431.796 125.2C431.796 125.5 431.896 125.8 431.796 126C431.596 126.5 431.296 126.6 430.896 126.1C430.596 125.7 430.196 125.3 430.796 124.8Z" fill="#324A8A"/>
<path d="M434.197 127.6C433.897 127.5 433.997 127.4 434.197 127.3C434.297 127.3 434.297 127.5 434.197 127.6Z" fill="#324A8A"/>
</svg>
