<svg width="249" height="254" viewBox="0 0 249 254" fill="none" xmlns="http://www.w3.org/2000/svg">
<path d="M119.861 139.835C99.7969 171.836 79.8279 203.806 59.4765 236.217C53.0503 232.318 47.3246 227.664 41.0284 223.197C65.4394 193.88 89.6273 164.846 113.815 135.812C113.596 135.463 113.503 135.178 113.284 134.828C78.0323 148.327 43.434 163.507 7.89928 176.783C5.60413 169.748 3.40203 162.998 1.07587 155.868C37.6031 145.634 74.4014 137.521 110.832 127.634C110.834 127.318 110.805 126.907 110.807 126.59C74.1506 117.407 37.4945 108.223 0.838415 99.0389C1.30094 95.9428 6.21346 79.4035 8.31104 77.7725C43.1655 91.7516 78.2412 105.764 113.317 119.776C113.571 119.588 113.794 119.305 114.048 119.116C89.8523 90.0895 65.5612 61.0936 40.9579 31.4632C46.8684 27.0105 52.4605 22.872 58.9744 18.012C79.2605 50.2079 99.4846 82.2136 119.709 114.219C120.089 114.095 120.5 114.066 120.881 113.942C118.337 76.4838 115.794 39.0254 113.193 0.744445C120.596 0.222565 127.867 0.585296 135.677 0.666864C133.219 38.9155 130.796 76.6267 128.373 114.338C128.72 114.435 128.972 114.563 129.319 114.66C149.384 82.6592 169.353 50.6891 189.609 18.3097C196.194 22.0518 201.668 26.5773 208.121 31.204C183.71 60.5209 159.363 89.7118 135.08 118.777C170.863 106.261 205.463 90.7655 241.219 77.5226C243.452 84.3675 245.685 91.2125 248.012 98.3426C211.579 108.545 174.622 116.816 138.161 126.607C138.159 126.923 138.188 127.335 138.186 127.651C174.842 136.835 211.372 145.955 248.47 155.204C246.683 162.625 244.078 169.47 241.502 176.727C206.048 162.523 170.972 148.511 135.866 134.404C135.642 134.687 135.388 134.875 135.165 135.158C159.392 164.28 183.714 193.371 208.256 222.811C202.155 227.326 196.563 231.464 190.177 236.072C169.891 203.876 149.667 171.871 129.443 139.865C129.063 139.989 128.777 140.082 128.397 140.206C130.938 177.981 133.575 215.724 136.054 253.309C132.729 254.078 115.434 253.62 113.604 252.849C116.058 215.233 118.482 177.522 120.905 139.81C120.556 140.029 120.208 139.932 119.861 139.835Z" fill="#f999bf"/>
</svg>
