<svg width="332" height="293" viewBox="0 0 332 293" fill="none" xmlns="http://www.w3.org/2000/svg">
<path d="M37.7457 255.553C29.1094 249.649 22.3844 242.145 18.2998 232.419C9.92538 207.55 20.7774 185.131 40.3296 174.845C46.198 171.454 52.201 170.109 58.5013 169.656C64.6673 169.125 70.8745 169.961 76.6801 172.106C77.2818 172.339 77.8906 172.552 78.4923 172.814C77.9267 172.521 77.334 172.284 76.7225 172.106C65.7076 168.262 54.7777 168.566 43.8761 172.637C42.1984 173.26 40.4924 175.921 38.6872 174.605C35.0557 164.63 36.1246 153.269 40.641 143.839C42.8213 136.76 48.2863 132.909 54.4521 129.625C61.69 125.687 70.1388 124.599 78.1383 126.574C78.7975 126.664 79.4469 126.816 80.078 127.027C79.4762 126.545 78.7046 126.63 78.018 126.489C64.0087 123.657 52.4487 128.011 43.0337 138.523C41.9931 139.691 41.2852 141.383 39.388 141.624C16.1407 142.848 1.40938 124.386 2.01817 106.491C2.59157 89.4304 14.3851 76.4193 32.5922 73.2692C39.6287 70.6712 45.9219 73.5948 52.2788 75.9309C52.898 76.1538 53.4858 76.456 54.0274 76.8299C53.5142 76.4137 52.9352 76.0859 52.3142 75.8601C45.7379 72.4976 38.5103 72.179 31.1764 73.1276C29.7182 73.3187 28.2882 72.0516 27.729 70.0695C23.4179 44.387 31.6295 24.0562 53.6239 9.6717C57.673 7.02417 62.239 5.34645 66.8403 3.82447C73.0981 2.56442 78.1666 1.70078 85.7907 2.0972C94.7754 2.54778 103.499 5.26822 111.148 10.0044C122.962 17.5223 130.749 28.0345 135.372 41.0811C138.763 46.6806 138.253 49.3989 132.724 52.5632C127.747 55.3703 123.496 59.3053 120.315 64.0523C119.943 64.5823 119.523 65.0774 119.062 65.5318C119.7 65.0284 120.24 64.4116 120.655 63.7126C129.001 52.0676 140.476 46.4186 154.506 48.5211C170.554 50.9209 180.543 61.1217 184.436 76.7237C187.976 90.8816 179.842 107.461 166.512 114.49C163.327 116.175 160.198 118.334 156.283 118.114C141.417 108.473 125.936 108.317 112.556 117.647C111.985 117.995 111.449 118.398 110.956 118.851C110.142 119.693 109.173 120.387 108.606 121.449C109.215 120.472 110.003 119.62 110.928 118.936C129.907 103.454 162.69 110.781 169.641 139.004C171.092 144.908 170.271 145.878 164.261 145.786C156.233 145.659 148.638 147.202 141.53 150.975C140.95 151.279 140.384 151.605 139.789 151.888C140.35 151.679 140.888 151.413 141.396 151.095C162.095 140.349 184.698 146.721 198.835 162.712C211.577 177.16 212.702 202.404 201.128 219.018C192.258 231.76 179.622 237.699 164.601 239.455C161.684 239.802 159.001 238.712 156.191 238.457C155.856 238.436 155.521 238.436 155.186 238.457C155.534 238.493 155.884 238.505 156.233 238.492C158.881 238.719 161.408 239.625 164.148 239.554C168.862 239.434 169.811 240.453 169.811 245.033C169.94 248.113 169.361 251.181 168.119 254.002C161.422 277.858 142.253 291.953 119.154 290.473C101.195 289.298 88.0064 280.194 79.7806 264.104C79.3277 263.404 79.0152 262.623 78.8604 261.803C78.6409 258.448 78.6834 258.405 74.7192 259.595C61.8142 263.424 49.5393 261.499 37.7457 255.553Z" fill="white" stroke="black" stroke-width="3" stroke-linejoin="round"/>
<path d="M297.424 170.131C300.34 167.299 304.956 168.007 308.431 170.131C323.764 181.393 330.681 196.288 326.341 215.103C320.175 241.848 289.325 256.027 263.48 240.276C256.026 234.67 249.407 228.178 246.328 219.195C245.981 218.176 245.492 216.087 245.075 216.512C244.282 217.319 254.277 235.831 263.48 240.283C265.738 241.834 262.984 244.63 261.944 246.201C243.369 274.269 202.834 281.44 175.63 261.442C174.299 260.458 172.904 259.552 171.538 258.611C169.507 257.535 168.799 255.744 168.969 253.585C169.28 249.585 169.641 245.593 169.676 241.55C169.676 238.761 171.977 238.131 174.122 237.565C187.098 234.167 197.037 226.748 203.471 214.969C216.348 191.368 207.641 162.429 183.962 151.017C166.753 142.728 173.258 148.625 168.388 134.028C167.468 131.246 162.017 124.507 158.945 119.601C159.164 117.265 161.118 116.939 162.796 116.224C178.27 109.634 186.708 95.3556 184.535 78.4085C182.765 64.4346 170.937 51.204 156.297 48.9246C152.446 48.3229 148.737 47.8203 144.971 48.6061C139.591 49.7316 137.941 48.7547 137.035 43.3676C136.625 40.9608 136.327 38.469 137.517 36.1188C140.624 29.1884 145.219 23.3129 150.429 17.8763C154.351 14.1881 157.161 13.0484 161.642 10.953C178.801 4.30588 194.913 6.06854 209.935 16.8923C213.644 19.4336 211.966 21.2175 209.014 22.5555C200.33 26.5475 192.263 31.7634 185.059 38.0442C182.893 39.9202 181.045 42.0722 179.035 44.0897C178.605 44.4545 178.264 44.912 178.037 45.4276C178.357 44.8795 178.748 44.375 179.198 43.9269C186.9 35.333 196.187 28.8062 206.636 23.8297C209.283 22.4237 212.159 21.5008 215.131 21.1043C239.843 13.5652 263.721 14.9456 286.479 27.8859C289.566 29.6486 292.482 31.7227 295.477 33.6553C323.177 55.8903 334.355 84.5389 328.479 119.566C325.987 134.431 308.948 159.314 308.729 159.555C291.527 178.264 270.389 188.373 244.82 188.819C243.744 188.833 279.769 187.12 297.424 170.131Z" fill="white" stroke="black" stroke-width="3" stroke-linejoin="round"/>
<path d="M159.263 119.608C166.194 125.335 169.945 132.917 171.333 141.553C171.807 144.519 172.749 145.645 175.58 146.466C195.897 152.433 209.765 170.131 210.472 190.78C211.18 211.26 199.026 230.252 179.176 237.013C172.161 239.406 169.542 242.379 170.356 249.323C170.724 252.424 168.14 255.871 171.524 258.611C167.985 258.696 169.018 255.156 167.574 253.578C167.829 250.42 168.055 247.256 168.36 244.099C168.636 241.211 167.935 239.958 164.502 240.149C160.368 240.368 156.163 239.667 152.021 239.151C150.903 239.009 148.801 238.931 149.324 237.027C149.728 235.611 151.356 236.489 152.418 236.744C162.452 239.213 173.038 238.003 182.256 233.332C205.404 221.963 214.819 193.944 203.132 171.872C190.637 148.292 162.52 140.102 139.378 153.198C137.963 153.998 136.058 156.78 134.89 154.826C133.722 152.872 137.014 151.994 138.508 151.102C146.486 146.374 155.221 143.96 164.445 144.731C169.853 145.192 169.28 142.424 168.438 139.21C165.195 126.815 157.6 117.902 145.488 113.959C132.533 109.712 120.322 111.949 109.873 121.3C109.119 121.96 108.409 122.669 107.75 123.424C106.999 124.294 106.277 125.717 105.053 124.415C103.828 123.112 105.456 122.355 106.157 121.583C112.62 114.766 120.534 110.625 129.871 109.676C139.711 108.678 148.779 110.866 156.474 117.463C157.239 118.454 159.1 117.895 159.263 119.608Z" fill="black"/>
<path d="M159.263 119.608L156.481 117.541C170.583 112.869 180.854 104.155 183.183 88.9705C185.448 74.2179 179.856 62.2969 167.001 54.2835C151.243 44.4367 129.751 50.0362 120.237 66.3744C119.819 67.0823 119.423 67.8398 119.055 68.5901C118.552 69.6166 118.092 71.2023 116.697 70.3599C115.459 69.6024 116.436 68.2362 116.974 67.238C120.06 61.3271 124.003 55.7772 130.013 53.0164C135.917 50.2981 139.003 49.8096 135.372 41.1096C137.007 39.8495 135.124 37.0958 137.495 36.1543C136.242 39.9699 138.402 43.3041 139.124 46.8152C139.669 49.484 141.955 47.87 143.307 47.6576C166.909 43.9695 187.445 61.8156 186.015 85.5372C185.08 100.948 176.777 111.659 162.505 117.654C161.302 118.115 159.773 118.015 159.263 119.608Z" fill="black"/>
<path d="M215.131 21.1184C200.413 27.27 187.339 35.7364 177.067 48.1529C176.451 48.8608 175.75 50.0926 174.738 49.0166C173.549 47.7424 175.092 46.9708 175.764 46.185C184.635 35.3864 195.997 26.9055 208.873 21.4723C212.193 20.0565 212.115 18.9947 209.906 16.8851C213.148 16.4462 212.632 20.6441 215.131 21.1184Z" fill="black"/>
<path d="M39.3881 141.624C50.4596 126.649 64.2211 121.336 80.6726 125.682C81.633 125.946 82.5783 126.263 83.5042 126.631C84.4599 126.999 85.5288 127.523 84.9837 128.754C84.5802 129.667 83.6104 129.42 82.8105 129.023C82.6593 128.953 82.5032 128.894 82.3432 128.846C64.6954 123.374 51.04 129.045 40.6552 143.811L39.3881 141.624Z" fill="black"/>
<path d="M38.7226 172.877C45.4405 171.016 51.9036 168.227 59.0817 168.099C66.9537 167.885 74.7675 169.506 81.9043 172.835C82.7538 173.231 83.9784 173.776 83.5041 174.959C83.0299 176.141 81.8194 175.702 80.9132 175.263C67.534 168.757 54.1193 169.678 40.6764 175.051C40.3932 173.989 38.6376 174.258 38.7226 172.877Z" fill="black"/>
<path d="M27.7147 70.0696C28.9111 71.8889 30.6242 71.1456 32.2382 71.0111C41.0444 70.3032 49.2277 72.1225 56.5828 77.1415C57.6588 77.8494 59.5276 78.6705 58.7631 79.9731C57.8074 81.6366 56.4695 80.0509 55.4572 79.3289C48.5977 74.4302 40.7542 73.2551 32.5921 73.2339C31.6223 71.2093 27.3112 74.232 27.7147 70.0696Z" fill="black"/>
<path d="M93.0112 69.2341C110.425 69.2341 126.19 81.5869 129.907 98.3712C130.239 99.8861 131.988 102.505 129.418 103.022C127.401 103.426 127.953 100.424 127.578 99.0366C123.734 84.7583 114.701 75.4636 100.338 72.5825C85.4296 69.5881 72.829 74.4018 63.8387 87.059C58.126 95.1078 56.4695 104.148 58.2251 113.839C58.4516 115.056 59.4922 116.946 57.9349 117.378C55.7192 117.973 56.0519 115.7 55.8112 114.313C54.7536 108.83 54.9207 103.181 56.3006 97.7693C57.6806 92.3582 60.2392 87.3188 63.7935 83.0117C67.3479 78.7045 71.8101 75.236 76.861 72.8543C81.912 70.4725 87.4268 69.2363 93.0112 69.2341Z" fill="black"/>
</svg>
