<svg width="408" height="360" viewBox="0 0 408 360" fill="none" xmlns="http://www.w3.org/2000/svg">
<path d="M46.0658 314.569C35.4193 307.291 27.129 298.04 22.0937 286.05C11.7701 255.393 25.148 227.756 49.251 215.076C56.4854 210.896 63.8856 209.238 71.6523 208.68C79.2535 208.025 86.9056 209.056 94.0624 211.699C94.8041 211.987 95.5546 212.249 96.2964 212.572C95.5992 212.211 94.8685 211.919 94.1147 211.699C80.5361 206.96 67.0621 207.336 53.6231 212.354C51.5549 213.121 49.4517 216.403 47.2264 214.78C42.7497 202.484 44.0674 188.477 49.635 176.854C52.3228 168.127 59.0598 163.38 66.6607 159.33C75.5833 154.476 85.9986 153.135 95.8601 155.569C96.6727 155.681 97.4732 155.868 98.2512 156.128C97.5094 155.534 96.5582 155.639 95.7117 155.465C78.4417 151.974 64.1911 157.341 52.5846 170.3C51.3018 171.74 50.4291 173.825 48.0904 174.122C19.4321 175.632 1.27191 152.873 2.0224 130.812C2.72926 109.781 17.2679 93.7409 39.7128 89.8576C48.3871 86.6549 56.1451 90.259 63.9816 93.1388C64.7449 93.4136 65.4694 93.7862 66.1371 94.2471C65.5045 93.734 64.7907 93.3299 64.0252 93.0515C55.9182 88.9064 47.0083 88.5137 37.9675 89.683C36.1698 89.9186 34.407 88.3566 33.7176 85.9131C28.4031 54.2528 38.526 29.1899 65.6397 11.4573C70.6313 8.19358 76.26 6.12536 81.9323 4.24913C89.6467 2.69579 95.895 1.63114 105.294 2.11983C116.369 2.67528 127.124 6.02892 136.552 11.8675C151.117 21.1352 160.717 34.0943 166.415 50.1775C170.595 57.0803 169.967 60.4313 163.151 64.3321C157.015 67.7926 151.776 72.6435 147.853 78.4955C147.395 79.1487 146.878 79.7592 146.309 80.3193C147.095 79.6987 147.761 78.9384 148.272 78.0766C158.561 63.7212 172.707 56.7574 190.003 59.3492C209.786 62.3075 222.1 74.8826 226.899 94.1162C231.263 111.569 221.236 132.007 204.804 140.673C200.877 142.75 197.019 145.411 192.194 145.141C173.868 133.255 154.782 133.063 138.289 144.565C137.585 144.994 136.924 145.491 136.317 146.048C135.313 147.087 134.118 147.942 133.42 149.251C134.17 148.048 135.142 146.997 136.282 146.153C159.678 127.068 200.091 136.1 208.661 170.893C210.45 178.171 209.437 179.367 202.028 179.253C192.132 179.096 182.769 180.999 174.007 185.65C173.292 186.025 172.593 186.427 171.86 186.776C172.552 186.517 173.216 186.19 173.841 185.798C199.358 172.551 227.222 180.405 244.649 200.119C260.357 217.93 261.745 249.049 247.477 269.531C236.542 285.239 220.965 292.56 202.447 294.724C198.852 295.152 195.545 293.808 192.08 293.494C191.667 293.468 191.254 293.468 190.841 293.494C191.27 293.539 191.701 293.554 192.132 293.538C195.396 293.817 198.512 294.934 201.889 294.847C207.701 294.698 208.87 295.955 208.87 301.601C209.029 305.397 208.315 309.18 206.784 312.658C198.529 342.066 174.897 359.441 146.422 357.617C124.283 356.169 108.025 344.946 97.8846 325.111C97.3263 324.248 96.941 323.284 96.7502 322.274C96.4797 318.138 96.532 318.086 91.6451 319.552C75.7364 324.273 60.6044 321.899 46.0658 314.569Z" fill="white" stroke="black" stroke-width="3" stroke-linejoin="round"/>
<path d="M366.185 209.264C369.781 205.774 375.471 206.646 379.755 209.264C398.657 223.148 407.183 241.509 401.834 264.705C394.233 297.674 356.202 315.154 324.341 295.737C315.152 288.825 306.993 280.823 303.196 269.749C302.769 268.492 302.167 265.918 301.652 266.441C300.674 267.436 312.997 290.256 324.341 295.745C327.125 297.657 323.73 301.104 322.447 303.041C299.549 337.642 249.58 346.482 216.043 321.829C214.403 320.616 212.684 319.499 210.999 318.339C208.495 317.012 207.622 314.805 207.832 312.143C208.216 307.212 208.661 302.29 208.704 297.308C208.704 293.869 211.54 293.093 214.185 292.394C230.181 288.206 242.433 279.06 250.365 264.539C266.239 235.444 255.505 199.77 226.315 185.702C205.1 175.484 213.12 182.753 207.116 164.758C205.982 161.329 199.262 153.021 195.475 146.974C195.745 144.094 198.154 143.692 200.222 142.811C219.298 134.686 229.701 117.085 227.022 96.1932C224.84 78.9668 210.258 62.6567 192.211 59.8467C187.464 59.1049 182.891 58.4853 178.248 59.454C171.616 60.8415 169.583 59.6373 168.466 52.9963C167.96 50.0292 167.593 46.9574 169.059 44.0602C172.89 35.5168 178.554 28.2737 184.977 21.5716C189.811 17.025 193.276 15.62 198.8 13.037C219.953 4.84263 239.815 7.01556 258.333 20.3586C262.906 23.4915 260.837 25.6906 257.198 27.3399C246.493 32.2611 236.548 38.6911 227.667 46.4338C224.997 48.7464 222.719 51.3993 220.241 53.8864C219.711 54.3362 219.291 54.9001 219.011 55.5357C219.406 54.86 219.887 54.2382 220.442 53.6857C229.936 43.0915 241.386 35.0456 254.266 28.9107C257.529 27.1775 261.076 26.0398 264.738 25.551C295.203 16.2571 324.638 17.9588 352.694 33.9111C356.499 36.084 360.094 38.6409 363.786 41.0233C397.933 68.4337 411.712 103.75 404.469 146.93C401.397 165.256 380.392 195.93 380.122 196.227C358.916 219.291 332.858 231.753 301.338 232.303C300.011 232.32 344.421 230.208 366.185 209.264Z" fill="white" stroke="black" stroke-width="3" stroke-linejoin="round"/>
<path d="M195.867 146.982C204.411 154.042 209.036 163.388 210.746 174.035C211.331 177.691 212.492 179.079 215.982 180.091C241.028 187.448 258.123 209.264 258.996 234.72C259.869 259.966 244.885 283.38 220.415 291.714C211.767 294.663 208.539 298.328 209.542 306.889C209.996 310.712 206.811 314.961 210.982 318.339C206.619 318.443 207.893 314.08 206.113 312.134C206.427 308.242 206.706 304.341 207.081 300.449C207.422 296.889 206.558 295.344 202.325 295.58C197.229 295.85 192.045 294.986 186.94 294.349C185.561 294.175 182.969 294.079 183.615 291.731C184.113 289.986 186.12 291.068 187.429 291.382C199.798 294.426 212.849 292.934 224.212 287.176C252.748 273.161 264.354 238.621 249.946 211.411C234.544 182.343 199.882 172.246 171.354 188.39C169.609 189.376 167.261 192.806 165.822 190.397C164.382 187.989 168.44 186.907 170.281 185.807C180.116 179.978 190.885 177.002 202.255 177.953C208.923 178.52 208.216 175.108 207.177 171.146C203.18 155.866 193.817 144.879 178.885 140.018C162.916 134.782 147.862 137.54 134.982 149.068C134.051 149.881 133.177 150.756 132.364 151.686C131.439 152.759 130.548 154.513 129.039 152.908C127.529 151.302 129.536 150.368 130.4 149.417C138.368 141.013 148.124 135.908 159.634 134.739C171.764 133.508 182.943 136.205 192.429 144.338C193.372 145.56 195.667 144.87 195.867 146.982Z" fill="black"/>
<path d="M195.867 146.982L192.438 144.434C209.821 138.674 222.484 127.932 225.355 109.213C228.147 91.027 221.253 76.3313 205.406 66.4527C185.98 54.3139 159.486 61.2167 147.757 81.3578C147.243 82.2305 146.754 83.1642 146.3 84.0893C145.68 85.3546 145.113 87.3094 143.394 86.2709C141.867 85.3372 143.071 83.6529 143.734 82.4225C147.539 75.1357 152.4 68.294 159.809 64.8906C167.087 61.5396 170.892 60.9375 166.415 50.2124C168.431 48.6591 166.11 45.2644 169.033 44.1038C167.488 48.8074 170.15 52.9177 171.04 57.2461C171.712 60.536 174.531 58.5464 176.198 58.2846C205.292 53.738 230.608 75.7379 228.845 104.981C227.694 123.979 217.457 137.182 199.864 144.574C198.381 145.141 196.496 145.019 195.867 146.982Z" fill="black"/>
<path d="M264.738 25.5684C246.595 33.1519 230.477 43.589 217.815 58.8955C217.056 59.7682 216.192 61.2866 214.944 59.9601C213.478 58.3893 215.38 57.4381 216.209 56.4695C227.145 43.1575 241.151 32.7026 257.024 26.0048C261.117 24.2594 261.021 22.9504 258.298 20.3499C262.295 19.8088 261.658 24.9837 264.738 25.5684Z" fill="black"/>
<path d="M48.0904 174.122C61.7389 155.662 78.7035 149.112 98.9842 154.47C100.168 154.796 101.333 155.186 102.475 155.639C103.653 156.093 104.971 156.739 104.299 158.257C103.801 159.383 102.606 159.077 101.62 158.589C101.433 158.502 101.241 158.429 101.044 158.371C79.2882 151.625 62.4545 158.615 49.6525 176.819L48.0904 174.122Z" fill="black"/>
<path d="M47.2701 212.65C55.5517 210.355 63.5191 206.917 72.3679 206.76C82.0722 206.496 91.7047 208.494 100.503 212.598C101.55 213.087 103.06 213.759 102.475 215.216C101.89 216.673 100.398 216.132 99.2809 215.591C82.7876 207.571 66.2506 208.706 49.6786 215.329C49.3296 214.02 47.1654 214.352 47.2701 212.65Z" fill="black"/>
<path d="M33.7002 85.9131C35.175 88.1558 37.2868 87.2395 39.2765 87.0737C50.1325 86.2011 60.2205 88.4438 69.2874 94.631C70.6139 95.5037 72.9177 96.516 71.9753 98.1217C70.7972 100.172 69.1478 98.2177 67.8999 97.3275C59.4438 91.2887 49.7747 89.8401 39.7128 89.8139C38.5173 87.3181 33.2028 91.0444 33.7002 85.9131Z" fill="black"/>
<path d="M114.195 84.8833C135.662 84.8833 155.097 100.111 159.678 120.802C160.088 122.67 162.244 125.899 159.076 126.536C156.589 127.033 157.269 123.333 156.807 121.622C152.068 104.021 140.933 92.5627 123.227 89.011C104.848 85.3196 89.3151 91.2538 78.2322 106.857C71.1898 116.779 69.1478 127.923 71.312 139.87C71.5912 141.371 72.8741 143.701 70.9542 144.233C68.2227 144.966 68.6329 142.165 68.3362 140.455C67.0324 133.695 67.2384 126.731 68.9396 120.06C70.6407 113.39 73.7949 107.177 78.1765 101.868C82.5581 96.558 88.059 92.2822 94.2855 89.3461C100.512 86.4099 107.311 84.886 114.195 84.8833Z" fill="black"/>
</svg>
