<?xml version="1.0" encoding="utf-8"?>
<!-- Generator: Adobe Illustrator 24.1.2, SVG Export Plug-In . SVG Version: 6.00 Build 0)  -->
<svg version="1.1" id="Warstwa_1" xmlns="http://www.w3.org/2000/svg" xmlns:xlink="http://www.w3.org/1999/xlink" x="0px" y="0px"
	 viewBox="0 0 679 1850" style="enable-background:new 0 0 679 1850;" xml:space="preserve" preserveAspectRatio="none">
<style type="text/css">
	.st0{fill:#2651FF;}
</style>
<g>
	<path class="st0" d="M7.1,1754.3h200.4v77.9H7.1V1754.3z"/>
	<path class="st0" d="M7.1,1518.1V1440h200.4v87.7L85.1,1635.1h122.4v77.9H7.1v-107.1l106.1-87.7H7.1z"/>
	<path class="st0" d="M7.4,1394.7V1151h63.5v165.8h24.5v-146.3H154v146.3h53.9v77.9H7.4z"/>
	<path class="st0" d="M7.1,1050.9h200.4v77.9H7.1V1050.9z"/>
	<path class="st0" d="M7.1,814.6v-78.1h200.4v87.7L85.1,931.6h122.4v77.9H7.1V902.3l106.1-87.7H7.1z"/>
	<path class="st0" d="M7.1,613.3h200.4v77.9H7.1V613.3z"/>
	<path class="st0" d="M207.8,496.3H70.9v92.6H7.4V325.8h63.5v92.6h136.9L207.8,496.3L207.8,496.3z"/>
	<path class="st0" d="M79.3,168.8L7.4,110.3V17.8l131.9,112.1h68.5v77.9h-68.5L7.4,319.8v-92.6L79.3,168.8z"/>
</g>
<g>
	<path class="st0" d="M239.8,1754.3h200.4v77.9H239.8V1754.3z"/>
	<path class="st0" d="M239.8,1518.1V1440h200.4v87.7l-122.4,107.3h122.4v77.9H239.8v-107.1l106.1-87.7H239.8z"/>
	<path class="st0" d="M240.1,1394.7V1151h63.5v165.8H328v-146.3h58.6v146.3h53.9v77.9H240.1z"/>
	<path class="st0" d="M239.8,1050.9h200.4v77.9H239.8V1050.9z"/>
	<path class="st0" d="M239.8,814.6v-78.1h200.4v87.7L317.8,931.6h122.4v77.9H239.8V902.3l106.1-87.7H239.8z"/>
	<path class="st0" d="M239.8,613.3h200.4v77.9H239.8V613.3z"/>
	<path class="st0" d="M440.5,496.3H303.7v92.6h-63.5V325.8h63.5v92.6h136.9V496.3z"/>
	<path class="st0" d="M312,168.7l-71.9-58.6V17.7L372,129.8h68.5v77.9H372L240.1,319.8v-92.6L312,168.7z"/>
</g>
<g>
	<path class="st0" d="M472.5,1754.3h200.4v77.9H472.5V1754.3z"/>
	<path class="st0" d="M472.5,1518.1V1440h200.4v87.7l-122.4,107.3h122.4v77.9H472.5v-107.1l106.1-87.7H472.5z"/>
	<path class="st0" d="M472.8,1394.7V1151h63.5v165.8h24.4v-146.3h58.6v146.3h54v77.9H472.8z"/>
	<path class="st0" d="M472.5,1050.9h200.4v77.9H472.5V1050.9z"/>
	<path class="st0" d="M472.5,814.6v-78.1h200.4v87.7L550.5,931.6h122.4v77.9H472.5V902.3l106.1-87.7H472.5z"/>
	<path class="st0" d="M472.5,613.3h200.4v77.9H472.5V613.3z"/>
	<path class="st0" d="M673.2,496.3H536.3v92.6h-63.5V325.8h63.5v92.6h136.9V496.3z"/>
	<path class="st0" d="M544.7,168.7l-71.9-58.6V17.7l131.9,112.1h68.5v77.9h-68.5L472.8,319.8v-92.6L544.7,168.7z"/>
</g>
</svg>
