<svg preserveAspectRatio="none" width="1732.1" height="679" viewBox="0 0 1732.1 679" fill="none" xmlns="http://www.w3.org/2000/svg">
<path d="M.1,664.4v-199.9h74.4v199.9H.1ZM299.9,558.5l-83.7,105.9h-102.3v-199.9h74.4v122.1l102.4-122.1h83.7v199.9h-74.5v-105.9h0ZM417.7,464.2h74.4v53.7h139.6v58.4h-139.6v24.4h158.2v63.4h-232.6v-199.9ZM671.6,664.4v-199.9h74.4v199.9h-74.4ZM971.4,558.5l-83.7,105.9h-102.3v-199.9h74.4v122.1l102.5-122.1h83.7v199.9h-74.5v-105.9h-.1ZM1089.2,664.4v-199.9h74.4v199.9h-74.4ZM1349.6,464.2v136.5h88.4v63.4h-251.2v-63.4h88.4v-136.5h74.4ZM1532.1,664.1h-88.4l107-131.6v-68.3h74.4v68.3l107,131.6h-88.3l-56-71.7-55.7,71.7ZM0,432.3v-199.9h74.4v199.9H0ZM299.9,326.4l-83.7,105.9h-102.4v-199.9h74.4v122.1l102.5-122.1h83.7v199.9h-74.5v-105.9h0ZM417.7,232.1h74.3v53.7h139.6v58.4h-139.6v24.4h158.2v63.4h-232.5v-199.9ZM671.6,432.3v-199.9h74.4v199.9h-74.4ZM971.4,326.4l-83.7,105.9h-102.3v-199.9h74.4v122.1l102.5-122.1h83.7v199.9h-74.5v-105.9h-.1ZM1089.2,432.3v-199.9h74.4v199.9h-74.4ZM1349.6,232.1v136.5h88.5v63.4h-251.2v-63.4h88.4v-136.5h74.3ZM1532.2,432h-88.4l107-131.6v-68.3h74.4v68.3l107,131.6h-88.3l-55.9-71.7-55.8,71.7ZM0,200.2V.3h74.4v199.9H0ZM299.9,94.3l-83.7,105.9h-102.4V.3h74.4v122.1L290.6.3h83.7v199.9h-74.5v-105.9h.1ZM417.7,0h74.3v53.7h139.6v58.4h-139.6v24.4h158.2v63.4h-232.5V0ZM671.6,200.2V.3h74.4v199.9h-74.4ZM971.4,94.3l-83.7,105.9h-102.3V.3h74.4v122.1L962.2.3h83.7v199.9h-74.5v-105.9ZM1089.2,200.2V.3h74.4v199.9h-74.4ZM1349.6,0v136.5h88.5v63.4h-251.2v-63.4h88.4V0h74.3ZM1532.2,199.9h-88.4l107-131.6V0h74.4v68.3l107,131.6h-88.3l-55.9-71.7-55.8,71.7Z" fill="#2651FF"/>
</svg>
