<?xml version="1.0" encoding="UTF-8"?>
<svg xmlns="http://www.w3.org/2000/svg" version="1.1" viewBox="0 0 401 148.1">
  <!-- Generator: Adobe Illustrator 28.7.1, SVG Export Plug-In . SVG Version: 1.2.0 Build 142)  -->
  <g>
    <g id="Layer_1">
      <g id="Layer_1-2" data-name="Layer_1">
        <g id="Warstwa_2">
          <g id="Warstwa_3">
            <path d="M33,68.2h63.3v9.6h-63.3v-9.6Z"/>
            <path d="M319.6,32.9c0-19.6-13.2-32.9-33-32.9H119.6c-2.7,0-5.3.1-7.9.6-14.7,2.8-25.3,15.6-25.4,30.5,0,4.6,0,9.2,0,14.3H5.3v9.8h91.3v-23.9c0-5,1.2-9.4,5-13.2l72.7,53.8-75.2,55.6c-4.7-12.6-2.3-25.5-2.9-37.1H17.9v9.9h68.4v15.8c.4,18.5,13.6,31.8,32.1,31.8h169.5c3.3,0,6.6-.5,9.8-1.4,13.6-4.3,21.9-16.1,21.9-31.2,0-27.5.1-55,0-82.5h0ZM111.8,13c-.8-.6-1.6-1.2-2.3-1.8,3.2-.9,6.5-1.2,9.9-1.1h168c2.5,0,7.3.7,8.5,1.3-.9.9-1.9,1.8-2.9,2.6-27.7,20.5-55.4,41.1-83.1,61.6-4.8,3.6-8.6,3.7-13.3.2-28.3-20.9-56.5-41.8-84.8-62.7h0ZM288.2,138H117.7c-3.9.2-7.8-1.1-10.8-3.5l75.8-56.1c6.6,3.8,11.8,9.9,20.3,9.8,8.3,0,13.6-5.5,20.2-9.9l75.4,55.8c0,.5-.8,3.8-10.4,3.8h0ZM309.3,115.5c0,3.7-1.6,10.5-3.3,11.4l-74.3-54.9,72.7-53.8c3.8,4.1,5,8.8,5,13.9v47c0,12.1.2,24.3,0,36.4h-.1Z"/>
          </g>
        </g>
      </g>
    </g>
  </g>
</svg>