<?xml version="1.0" encoding="UTF-8"?>
<svg id="Warstwa_2" data-name="Warstwa 2" xmlns="http://www.w3.org/2000/svg" viewBox="0 0 80 80">
  <defs>
    <style>
      .cls-1 {
        fill: none;
      }
    </style>
  </defs>
  <g id="Warstwa_3" data-name="Warstwa 3">
    <rect class="cls-1" x="0" width="80" height="80"/>
    <g>
      <path d="M78.25,56.22c-.18-.08-.36-.15-.51-.24-2.27-1.24-4.63-2.47-6.91-3.65-1.92-1-3.91-2.03-5.85-3.07-.05-.03-.14-.09-.24-.16l9.08-4.74.03-.02c.67-.42,1.54-.82,2.38-1.2,1.07-.48,2.18-.98,2.98-1.58.52-.39.8-.92.8-1.51,0-.63-.35-1.24-.94-1.67-1.02-.74-2.38-1.35-3.69-1.95-1.07-.48-2.17-.99-3.04-1.53l-.97-.49-6.67-3.56c.12-.07.27-.15.45-.24.06-.03.11-.05.14-.07,2.38-1.29,4.83-2.53,7.21-3.74,2.13-1.08,4.33-2.2,6.47-3.34h.03s.02-.03.02-.03c.57-.43.9-.94.98-1.48.07-.49-.08-.98-.45-1.45l-.05-.06-.07-.04c-3.96-2.27-12.22-6.54-12.28-6.57-.05-.02-.1-.05-.16-.08-.62-.31-1.2-.58-1.56-.62-.64-.07-1.25.17-1.68.66-.44.49-.61,1.17-.46,1.8.05.2.38.65.38.65.1.13.29.24,2.99,1.62,2.34,1.2,5.55,2.84,7.18,3.84.01,0,.02.01.04.02-10.75,5.81-21.74,11.46-31.2,16.3-.71.36-1.45.72-2.17,1.06-.17.08-.35.17-.52.25-.77-.35-1.54-.77-2.29-1.19-.45-.25-.91-.5-1.37-.74-7.34-3.8-27.21-14.05-30.27-15.63l1.75-.93c5.53-2.79,11.09-5.72,16.46-8.55,3.45-1.82,7.01-3.69,10.55-5.53.31-.16.69-.36,1.1-.58,1.12-.6,3.72-1.98,4.25-2.02.25.12,1.4.74,2.62,1.4,3.18,1.73,7.98,4.34,9.25,4.81,1.18.44,2.12-.1,2.52-.83.47-.84.24-1.85-.55-2.46-.4-.31-7.91-4.21-10.61-5.59-.15-.07-.35-.19-.6-.32-1.08-.58-2.01-1.07-2.47-1.15-.5-.09-.93.09-1.31.25l-.04.02c-2.29.97-4.62,2.29-6.87,3.56-1.92,1.09-3.91,2.21-5.84,3.1h-.02c-3.2,1.7-6.49,3.37-9.66,5-4.81,2.46-9.78,5-14.58,7.63-.13.07-.27.14-.41.21-.69.33-1.56.74-1.6,1.87-.03.74.45,1.43,1.4,1.98,2.36,1.38,4.93,2.63,7.41,3.84,2.06,1,4.19,2.04,6.18,3.15.05.03.11.06.19.09.05.02.14.07.23.11l-5.68,2.93h-.01c-1.27.72-2.58,1.39-3.84,2.04-1.25.64-2.53,1.31-3.78,2-.14.08-.3.15-.46.22-.48.21-1.02.46-1.33.97-.55.91-.28,1.95.68,2.65l.02.02,14.41,7.48-1.8.85h-.02c-1.96,1.07-4.01,2.14-5.99,3.18-1.44.75-2.92,1.53-4.36,2.29-.24.13-.51.25-.81.39-.56.26-1.14.53-1.59.85-.87.62-1.07,1.81-.44,2.72.29.42,1.13.83,2.21,1.34.26.12.49.23.63.31,8.77,4.67,32.47,17.15,35.58,18.6.49.23.83.33,1.15.33.34,0,.68-.12,1.17-.33.06-.03,10.14-5.22,18.93-9.77,18.97-9.83,19.18-10.06,19.29-10.17.72-.76.82-1.74.26-2.55-.36-.51-.9-.75-1.38-.96h0ZM66.26,38.31c.24-.12.49-.25.74-.37.48-.24.97-.49,1.46-.75.1.05.21.1.31.15.18.08.36.17.54.26.25.13.49.27.76.42.5.29,1.02.59,1.58.79l2.29,1.19-19.35,10.02h-.01c-2.32,1.31-4.77,2.54-7.13,3.74-1,.51-2.03,1.03-3.05,1.55-.35.18-.81.44-1.29.7-.91.51-2.77,1.55-3.22,1.56l-5.09-2.66,5.03-2.81,11.48-6c4.91-2.57,9.98-5.22,14.95-7.79h0ZM38.44,42.92c.14.06.27.12.4.18.55.26,1.12.52,2.01.21.05-.02.05-.02,2.08-1.1,2.17-1.16,5.45-2.91,7.37-3.91l10.14-5.26,3.94,1.97c-4,2.32-12.35,6.46-15.53,8.04-.68.34-1.12.56-1.25.62-2.1,1.09-4.25,2.25-6.34,3.36-2.84,1.52-5.77,3.09-8.64,4.55-.2.1-.43.22-.67.36-.44.24-.95.52-1.29.65-.03.01-.05.02-.07.03l-5.41-2.82,13.25-6.89h0ZM28.45,38.23c.4-.21.6-.29.81-.18.31.16.61.34.94.53.58.33,1.17.68,1.81.94l2.23,1.22-.53.28c-1.8.85-3.65,1.89-5.44,2.89-2.28,1.28-4.64,2.61-6.96,3.57-.67-.25-3.93-1.65-5.6-2.56.2-.11.39-.22.58-.32.27-.15.55-.32.83-.46.76-.4,1.52-.8,2.28-1.2,2.92-1.54,5.94-3.13,8.91-4.63.05-.03.1-.05.15-.08ZM13.64,41.68c-.13.06-.26.13-.39.2-.62.32-1.25.65-1.87.83l-5.04-2.84,13.17-6.84c.1.04.29.12.5.22,2.29,1.1,4.17,2.11,4.88,2.6-.63.31-1.98,1.01-5.03,2.61-2.16,1.13-4.6,2.41-6.22,3.23h0ZM72.9,58.76c-.21.1-.38.17-.47.22l-.12.06c-.1.06-.21.11-.32.17-9.29,4.92-18.49,9.67-27.88,14.5-.39.2-.79.44-1.18.66-.44.26-.89.52-1.33.73-.06.03-.14.07-.24.12-.29.15-1.14.58-1.4.61-.8-.33-9.18-4.71-17.28-8.95-5.96-3.12-12.12-6.34-16.54-8.62.01,0,.02-.01.03-.02.25-.11.46-.2.59-.35l12.79-6.57c.35.12,1.38.66,1.79.88.15.08.28.15.36.19,2.52,1.28,5.06,2.61,7.51,3.9,2.23,1.17,4.53,2.38,6.8,3.53.35.18.7.39,1.07.61.48.28.97.58,1.46.8.08.04.15.07.23.1.72.33,1.16.54,2.15.14.58-.23,1.13-.55,1.67-.86.32-.18.61-.35.91-.5,2.67-1.36,5.4-2.79,8.05-4.16,2.93-1.53,5.96-3.11,8.97-4.63.07,0,.15.04.24.07.64.26,11.25,5.82,13.2,6.85-.31.17-.81.4-1.06.51h0Z"/>
      <path d="M58.68,14.44c1.41,0,2.56-1.15,2.56-2.56s-1.15-2.56-2.56-2.56-2.56,1.15-2.56,2.56,1.15,2.56,2.56,2.56Z"/>
    </g>
  </g>
</svg>