<?xml version="1.0" encoding="UTF-8"?>
<svg id="Warstwa_2" data-name="Warstwa 2" xmlns="http://www.w3.org/2000/svg" viewBox="0 0 85 82">
  <defs>
    <style>
      .cls-1 {
        fill: none;
      }
    </style>
  </defs>
  <g id="Warstwa_3" data-name="Warstwa 3">
    <rect class="cls-1" width="85" height="82"/>
    <g>
      <path d="M34.79,41.83c-.23,0-.47-.05-.69-.15l-22.4-10.26L.96,26.37c-.47-.22-.81-.65-.92-1.16-.11-.51.02-1.05.35-1.45l10.41-12.45c.48-.57,1.27-.76,1.95-.46l30.89,13.6c.44.19.77.56.92,1.02.15.45.1.95-.14,1.37l-8.17,14.15c-.31.53-.86.84-1.44.84h0ZM4.35,24.25l8.76,4.11,21.01,9.63,6.47-11.21L12.55,14.44l-8.2,9.81Z"/>
      <path d="M51.27,41.83c-.57,0-1.13-.3-1.44-.83l-8.31-14.15c-.24-.41-.3-.9-.16-1.36.14-.45.47-.83.9-1.03l29.28-13.43c.32-.18.7-.27,1.08-.22.11.01.22.04.32.07.69.24,1.02.63,1.18,1.01l10.44,11.83c.35.4.49.94.38,1.47-.11.52-.46.96-.95,1.18l-8.33,3.77s-.05.03-.08.04l-23.61,11.47c-.23.11-.48.17-.72.17h0ZM45.35,26.75l6.58,11.21,22.12-10.74c.05-.03.1-.06.15-.08l6.37-2.89-8.58-9.72-26.65,12.22h0Z"/>
      <path d="M42.97,27.68c-.23,0-.45-.05-.67-.14L11.41,13.94c-.63-.28-1.03-.91-1-1.61.03-.69.47-1.29,1.12-1.52l13.42-4.68c.87-.3,1.82.16,2.12,1.04.3.88-.16,1.84-1.03,2.14l-9.39,3.27,26.3,11.58,25.06-11.49L42.86,3.49s-.04-.01-.06-.02l-5.35,1.87c-.87.3-1.82-.16-2.12-1.04-.3-.88.16-1.84,1.03-2.14L42.27.09c.36-.13.76-.12,1.12.01l.25.09s.03.01.05.02l.11.04s.03.01.05.02c.02,0,.04.02.07.02.02,0,.05.02.07.02l.11.04,28.9,10.54c.64.23,1.07.83,1.1,1.51.03.68-.36,1.31-.97,1.6l-29.46,13.51c-.22.1-.46.15-.69.15h0Z"/>
      <path d="M63.72,61.6c-.66,0-1.28-.39-1.55-1.05-.35-.86.06-1.84.91-2.19l9.49-3.92c.14-3.56.08-7.19.02-10.71-.07-3.98-.14-8.06.08-12.16-.1.03-.21.05-.31.06-2.79,1.3-5.56,2.75-8.27,4.16-3.91,2.04-7.95,4.15-12.08,5.87-.78.33-1.69,0-2.1-.74-.04-.07-2.63-4.8-5.27-9.18,0,1.21,0,2.32,0,3.54,0,1.6,0,3.37,0,5.77,0,.93-.75,1.68-1.67,1.68s-1.67-.75-1.67-1.68c0-2.4,0-4.17,0-5.77,0-2.81.01-5.03,0-9.14v-.2c.01-.35.13-.68.34-.95.06-.08.12-.15.19-.22.18-.17.4-.3.65-.37.11-.03.22-.05.34-.06.25-.02.49.01.72.1.15.06.28.13.41.23.14.11.27.24.37.39,2.59,3.74,6.22,10.16,7.77,12.94,3.54-1.55,7.05-3.38,10.46-5.16,3.68-1.92,7.48-3.91,11.33-5.54.83-.36,1.81.01,2.19.84.11.24.24.66.11,1.13-.42,4.79-.33,9.69-.25,14.43.07,3.93.14,7.98-.07,12-.03.65-.44,1.22-1.03,1.47l-10.48,4.32c-.21.08-.42.12-.63.12h.02Z"/>
      <path d="M43.11,76.54l-2.14-2.47,9.31-9.38h-2.85c-.92,0-1.67-.75-1.67-1.68v-8.12h-4.34v-3.36h6c.92,0,1.67.75,1.67,1.68v8.12h5.21c.67,0,1.28.41,1.54,1.04.26.63.12,1.35-.36,1.83l-12.38,12.34h0Z"/>
      <path d="M43.11,76.55l-12.66-12.35c-.48-.48-.62-1.2-.36-1.83.26-.63.87-1.04,1.54-1.04h5.21v-8.12c0-.93.75-1.68,1.67-1.68h6v3.36h-4.34v8.12c0,.93-.75,1.68-1.67,1.68h-2.85l9.31,9.38-1.86,2.47h0Z"/>
      <path d="M21.88,61.97c-.22,0-.45-.04-.66-.14l-10.15-4.43c-.61-.27-1-.87-1-1.54v-26.29c0-.57.29-1.1.76-1.41.48-.31,1.08-.35,1.6-.12l21.69,9.94,7.41-12.84c.38-.66,1.15-.97,1.88-.78s1.23.86,1.23,1.62v15.06c0,.93-.75,1.68-1.67,1.68s-1.67-.75-1.67-1.68v-8.83l-5.06,8.76c-.43.75-1.35,1.04-2.13.69l-20.7-9.49v22.57l9.14,3.99c.84.37,1.23,1.36.87,2.21-.27.64-.89,1.01-1.53,1.01h0Z"/>
      <path d="M42.65,82c-10.29,0-18.65-8.43-18.65-18.78s8.37-18.78,18.65-18.78,18.65,8.43,18.65,18.78-8.37,18.78-18.65,18.78ZM42.65,47.79c-8.44,0-15.31,6.92-15.31,15.42s6.87,15.42,15.31,15.42,15.31-6.92,15.31-15.42-6.87-15.42-15.31-15.42Z"/>
      <path d="M42.65,82c-10.29,0-18.65-8.43-18.65-18.78s8.37-18.78,18.65-18.78,18.65,8.43,18.65,18.78-8.37,18.78-18.65,18.78ZM42.65,47.79c-8.44,0-15.31,6.92-15.31,15.42s6.87,15.42,15.31,15.42,15.31-6.92,15.31-15.42-6.87-15.42-15.31-15.42Z"/>
      <path d="M31.09,7.52c.97,0,1.75-.79,1.75-1.76s-.78-1.76-1.75-1.76-1.75.79-1.75,1.76.78,1.76,1.75,1.76Z"/>
    </g>
  </g>
</svg>