<?xml version="1.0" encoding="UTF-8"?>
<svg id="Warstwa_2" data-name="Warstwa 2" xmlns="http://www.w3.org/2000/svg" viewBox="0 0 91 65">
  <defs>
    <style>
      .cls-1 {
        fill: none;
      }
    </style>
  </defs>
  <g id="Warstwa_3" data-name="Warstwa 3">
    <rect class="cls-1" width="91" height="65"/>
    <path d="M85.35,64.09c1.66,0,2.91-1.23,2.91-2.86v-17.81c0-4.42-1.15-7.86-3.42-10.23h-.02l-.15-.15c-2.39-2.46-6.14-3.71-11.16-3.71-4.07,0-7.32.59-11.23,2.05-.93.34-1.53,1.22-1.53,2.24,0,1.27,1.06,2.31,2.36,2.31.19,0,.55-.04.96-.15,2.57-1.01,5.24-1.49,8.35-1.49,6.51,0,10.09,3.19,10.09,9v.89c0,.36-.17.68-.46.9-.29.21-.67.28-1.02.17-2.38-.76-5.16-1.46-9.37-1.46-6.43,0-10.97,2.1-12.81,5.93l3.93,8.79c.42.77.6,1.42.6,2.16,0,.8-.18,1.58-.52,2.27,1.89,1.01,4.24,1.57,6.68,1.57,4.53,0,8.2-1.64,10.9-4.87.31-.37.8-.5,1.26-.34.45.16.74.57.74,1.05v1.37c0,1.17,1.09,2.38,2.91,2.38ZM71.86,60.7c-4.89,0-8.18-2.65-8.18-6.6v-.14c0-4.54,3.5-7.14,9.61-7.14,2.07,0,4.46.47,6.11.86,1.93.46,3.23,2.09,3.23,4.04v.11c0,5.13-4.53,8.85-10.78,8.85Z"/>
    <path d="M60.41,59.34L35.9,4.61c-1.05-2.17-2.36-3.11-4.37-3.11h-.57c-2.04,0-3.42.97-4.48,3.15l-8.79,19.63c-.17.38-.03.68.06.83.08.13.33.43.82.43h2.81c.69,0,1.31-.4,1.58-1.01L31.07,5.91l14.13,32.54c.37.84.28,1.8-.22,2.57-.51.78-1.38,1.24-2.31,1.24h-23.19c-.94,0-1.8-.46-2.31-1.24-.5-.77-.58-1.73-.22-2.57.12-.27.02-.49-.05-.6-.06-.1-.25-.32-.61-.32h-2.95c-.95,0-1.8.54-2.17,1.38L2.02,59.32c-.45.99-.52,1.39-.52,1.54,0,1.51,1.12,2.64,2.61,2.64s2.22-.56,2.83-2l5.57-12.76c.44-1,1.43-1.65,2.53-1.65h32.05c1.11,0,2.1.65,2.54,1.66l5.4,12.42s.02.05.03.08l.06.13c.86,1.91,2.12,2.14,3,2.14,1.57,0,2.71-1.19,2.71-2.83,0-.38-.07-.67-.27-1.05l-.15-.29Z"/>
    <path d="M17.44,28.62c-1.55-.09-2.88,1.08-2.97,2.59-.09,1.52,1.1,2.82,2.65,2.9,1.55.09,2.88-1.08,2.97-2.59.09-1.52-1.1-2.82-2.65-2.9Z"/>
  </g>
</svg>