<?xml version="1.0" encoding="UTF-8"?>
<svg id="Warstwa_2" data-name="Warstwa 2" xmlns="http://www.w3.org/2000/svg" viewBox="0 0 89 66.99">
  <defs>
    <style>
      .cls-1 {
        fill: none;
      }
    </style>
  </defs>
  <g id="Warstwa_3" data-name="Warstwa 3">
    <rect class="cls-1" width="89" height="66.98"/>
    <g>
      <path d="M49.3,66.98c-.4,0-.8-.12-1.14-.35-.73-.5-1.07-1.41-.82-2.26l4.62-16.13-13.9-9.39c-.73-.5-1.07-1.41-.82-2.26.25-.85,1.01-1.45,1.9-1.48l16.75-.58,4.62-16.13c.25-.85,1.01-1.45,1.9-1.48.88-.04,1.69.51,1.99,1.35l5.73,15.77,16.75-.58c.88-.04,1.69.51,1.99,1.35.3.83.04,1.77-.66,2.32l-13.21,10.33,5.73,15.77c.3.83.04,1.77-.66,2.32-.7.55-1.67.58-2.4.08l-13.9-9.39-13.21,10.33c-.37.29-.81.43-1.26.43h0ZM45.57,38.98l9.91,6.69c.73.5,1.07,1.41.82,2.26l-3.3,11.5,9.42-7.37c.7-.55,1.67-.58,2.4-.08l9.91,6.69-4.09-11.24c-.3-.83-.04-1.77.66-2.31l9.42-7.37-11.94.42c-.88.03-1.69-.51-1.99-1.35l-4.09-11.24-3.3,11.5c-.25.85-1.01,1.45-1.9,1.48l-11.94.42h0Z"/>
      <path d="M49.26,49.69c.14-.5-.25-1.07-.93-.97l-11.02,11.03-11.36-11.38-15.97-15.99c-5.05-5.06-6.03-12.68-2.93-18.73.48-.93.28-2.07-.46-2.81l-.49-.49c-.91-.91-2.43-.74-3.11.36-4.86,7.81-3.71,17.95,2.79,24.46l16.68,16.7,14.38,14.4c.25.25.67.25.92,0l8.65-8.67c.52-.52.9-1.17,1.11-1.88l1.73-6.03h0Z"/>
      <path d="M68.12,6.16c-4.1-4.11-9.47-6.16-14.84-6.16s-10.74,2.05-14.85,6.16l-1.12,1.12-1.12-1.12C32.09,2.05,26.71,0,21.34,0c-1.71,0-3.42.21-5.09.62-1.67.42-2.2,2.48-1,3.68.78.78,1.9,1.14,2.98.93,1.01-.2,2.05-.3,3.11-.3,4.29,0,8.32,1.67,11.36,4.71l1.12,1.12,3.48,3.49,3.48-3.49,1.06-1.07c2.38-2.39,5.44-4.03,8.78-4.56,5.25-.83,10.35.85,14,4.5,3.85,3.86,5.33,9.2,4.45,14.21-.07.39-.02.79.11,1.16l1.75,4.8c.23.63,1.1.66,1.38.06,3.61-7.78,2.21-17.3-4.19-23.71h0Z"/>
      <path d="M8.28,3.79l-.53.46c-1.29,1.14-1.42,3.11-.29,4.41,1.14,1.3,3.11,1.42,4.4.29l.53-.46c1.29-1.14,1.42-3.11.29-4.41-1.14-1.3-3.11-1.42-4.4-.29Z"/>
    </g>
  </g>
</svg>