<?xml version="1.0" encoding="UTF-8"?>
<svg id="Warstwa_2" data-name="Warstwa 2" xmlns="http://www.w3.org/2000/svg" viewBox="0 0 78 78">
  <defs>
    <style>
      .cls-1 {
        fill: none;
      }
    </style>
  </defs>
  <g id="Warstwa_3" data-name="Warstwa 3">
    <rect class="cls-1" width="78" height="78"/>
    <g>
      <path d="M0,25.8v-1.22c.44-.75.84-1.45,1.79-1.64.85-.17,4.53-.15,5.45-.04,2.74.33,2.68,4.26,0,4.59-.92.11-4.62.14-5.45-.04-.84-.18-1.39-.95-1.79-1.64Z"/>
      <path d="M70.52,22.93c.73-.15,5.14-.14,5.84.04,2.27.58,2.16,4-.12,4.47-.7.15-5.18.14-5.84-.04-2.26-.6-2.18-4.01.12-4.47h0Z"/>
      <path d="M6.82,4.61c.64-.13,1.09,0,1.67.24.61.26,4.09,2.3,4.47,2.7,1.55,1.64.08,4.37-2.26,3.79-.78-.19-4.66-2.48-5.14-3.1-1.03-1.32-.29-3.32,1.26-3.63h0Z"/>
      <path d="M70.21,4.61c1.94-.33,3.51,1.76,2.39,3.47-.44.67-4.34,2.99-5.17,3.22-1.85.52-3.35-.91-2.91-2.77.25-1.07,1.28-1.48,2.12-2,.67-.42,2.95-1.82,3.57-1.92h0Z"/>
      <path d="M10.78,38.96c2.19-.45,3.67,2.1,2.24,3.77-.38.44-4.5,2.84-5.09,2.99-1.94.51-3.65-1.69-2.51-3.43.4-.62,4.64-3.18,5.36-3.33Z"/>
      <path d="M66.25,38.96c.48-.09.76-.05,1.22.08.72.21,4.56,2.52,5,3.08,1.38,1.77-.34,4.13-2.37,3.6-.55-.14-4.64-2.5-5.02-2.9-1.2-1.27-.56-3.54,1.18-3.86h0Z"/>
      <path d="M41.3,32.05h-4.57v16.56c0,.1-.55.98-.71,1.12-1.36,1.25-3.34.54-3.83-1.16l-.04-17.67c-.86-1.56-4.41-3.73-4.58-5.5-.13-1.36,1.01-2.58,2.37-2.53,1.88.06,4.02,3.68,5.64,4.59l6.98-.03c1.41-.94,3.63-4.29,5.22-4.54,1.6-.24,2.94,1.2,2.62,2.78-.32,1.58-3.71,3.72-4.53,5.23l-.07,17.78c-.54,1.66-2.62,2.28-3.88.98-.11-.11-.62-1-.62-1.06v-16.56Z"/>
      <path d="M34.85.33c-.59.09-1.16.2-1.73.33-1.45.33-2.16,1.97-1.42,3.26.54.95,1.64,1.4,2.7,1.17,1.06-.24,2.1-.39,3.21-.46,16.62-1.12,27.71,17.14,18.84,31.39-2.06,3.31-4.95,4.99-5.79,9.16-.53,2.67.16,5.64-.26,8.14-.15.91-1.02,1.76-1.9,1.91l-19.21-.07c-.86-.22-1.57-1.1-1.69-1.97-.34-2.54.3-5.36-.23-8.01-.7-3.48-2.67-4.96-4.65-7.56-6.1-7.99-5.28-18.12,0-25.05.61-.8.67-1.89.18-2.76-.78-1.35-2.68-1.48-3.64-.25-6.27,8.11-7.56,19.92-1.25,29.41,1.41,2.12,4.2,4.42,4.78,6.82.55,2.3.03,5.04.23,7.41.23,2.73,1.95,5.27,4.54,6.21-.32,3.84.57,7.77,4.57,9.16-.38,4.24.84,8.09,5.2,9.44h3.35c4.37-1.35,5.59-5.2,5.2-9.44,4-1.39,4.9-5.31,4.57-9.16,2.6-.94,4.32-3.48,4.54-6.21.2-2.36-.33-5.11.23-7.41.53-2.18,1.99-3.18,3.28-4.81C72.95,22.63,57.71-3.2,34.85.33ZM41.3,71.82c0,.07-.6,1.03-.73,1.15-.89.82-2.23.82-3.12,0-.13-.12-.73-1.08-.73-1.15v-2.82h4.57v2.82ZM45.87,62.66c0,.07-.6,1.03-.73,1.15-.37.33-.98.57-1.48.61-3.02.3-6.53-.23-9.6-.02-.63,0-1.91-1.22-1.91-1.74v-2.82h13.71v2.82Z"/>
      <path d="M26.23,3.61l-1.28.87c-1.17.79-1.47,2.38-.68,3.55.79,1.17,2.37,1.47,3.54.69l1.28-.87c1.17-.79,1.47-2.38.68-3.55-.79-1.17-2.37-1.48-3.54-.69Z"/>
    </g>
  </g>
</svg>