<?xml version="1.0" encoding="UTF-8"?>
<svg id="Warstwa_2" data-name="Warstwa 2" xmlns="http://www.w3.org/2000/svg" viewBox="0 0 79.36 79.36">
  <defs>
    <style>
      .cls-1 {
        stroke: #000;
      }
    </style>
  </defs>
  <g id="Warstwa_3" data-name="Warstwa 3">
    <path d="M15.36,15.48v28.2c2.32-1.89,4.28-4.56,6.54-6.46,1.96-1.65,4.03-1.96,6.21-.42l11.83,11.8c3.36-2.27,6.02-8.5,10.89-5.97l13.14,12.95V15.48h-30.76s-.48-.09-.84-.52c-.92-1.08-.27-2.81,1.18-2.88l32.76.14c.71.24,1.06.91,1.07,1.64l-.09,52.43c-.19.58-.52.91-1.11,1.11H13.14c-.58-.19-.91-.53-1.11-1.11l-.07-52.75c.15-.77.65-1.32,1.44-1.44,1.09-.17,8.14-.18,9.15.03,1.26.25,1.75,1.91.88,2.84-.04.04-.12.13-.23.22-.24.2-.55.3-.86.3h-7.01,0ZM63.98,64.07v-3.65l-15.01-14.91c-.48-.27-1,.1-1.4.39-2.18,1.57-4.37,5-6.54,6.55-.85.61-1.42.42-2.22-.17l-12.57-12.58c-.34-.35-.78-.49-1.27-.42l-9.61,9.43v15.38h48.62Z"/>
    <path class="cls-1" d="M75.65,60.64l-.04-41.7c1.56-.61,2.84-2.09,3.04-3.78.28-2.34.23-7.62.02-10.02-.22-2.52-1.98-4.29-4.49-4.51-2.22-.19-8.04-.19-10.14.05-1.79.2-2.75,1.5-3.18,2.33-.23.43-.68.69-1.16.69H20c-.64,0-1.21-.38-1.46-.97-.37-.88-1.25-2.04-3.23-2.04-2.11,0-7.92-.24-10.14-.05C2.65.85.88,2.63.67,5.14c-.21,2.4-.25,7.68.02,10.02.2,1.69,1.49,3.17,3.04,3.78l-.04,41.7c-1.48.42-2.76,2.02-2.98,3.55-.32,2.21-.25,7.85-.05,10.16.2,2.36,1.69,3.89,3.91,4.5h10.85c1.51-.51,2.95-1.43,3.42-3.03l41.58-.04c.62,1.62,1.9,2.55,3.5,3.07h10.85c2.22-.61,3.7-2.14,3.91-4.5.2-2.31.27-7.95-.05-10.16-.22-1.53-1.5-3.14-2.98-3.55h0ZM75.29,74.18c-.09.79-.49,1.19-1.27,1.27-2.91.34-6.49-.23-9.46-.04-1.51-.34-.57-2.54-2.31-2.95l-45.38.08c-1.43.56-.56,2.46-2.06,2.87-2.98-.19-6.56.38-9.46.04-.78-.09-1.18-.49-1.27-1.27-.34-2.92.23-6.5.04-9.49.41-1.5,2.3-.63,2.86-2.06l.05-45.63c-.5-1.63-2.63-.62-2.93-2.33.29-2.9-.43-6.72,0-9.5.08-.54.44-.93.96-1.08h9.76c1.49.41.63,2.31,2.06,2.87,15.17.26,30.47.26,45.64,0,1.43-.56.56-2.46,2.06-2.87,2.98.19,6.56-.38,9.46-.04.78.09,1.18.49,1.27,1.27.34,2.92-.23,6.5-.04,9.49-.34,1.51-2.53.57-2.94,2.32l.08,45.5c.56,1.43,2.45.57,2.86,2.06-.19,2.99.38,6.58.04,9.49h0Z"/>
    <ellipse cx="27.91" cy="13.79" rx="2.12" ry="1.83"/>
    <path d="M30.89,30.05c-.07-6.05,9.67-6.02,9.74-.1.07,5.93-9.68,6.19-9.74.1ZM33.81,30.57c.43,1.96,3.95,1.71,4.01-.51.07-2.71-4.7-2.64-4.01.51Z"/>
  </g>
</svg>