<svg xmlns="http://www.w3.org/2000/svg" viewBox="0 0 142.62 163.34"><defs><style>.cls-1{fill:#fbd5c0;}</style></defs><g id="Warstwa_2" data-name="Warstwa 2"><g id="Warstwa_3" data-name="Warstwa 3"><path class="cls-1" d="M37.55,140.48a.37.37,0,0,1-.24.23A1.75,1.75,0,0,1,37.55,140.48Z"/><path class="cls-1" d="M65,113a.58.58,0,0,1-.27.31l0,0A1,1,0,0,1,65,113Z"/><path class="cls-1" d="M39.83,101.51s0,.11-.08.16l-.07-.08Z"/><path class="cls-1" d="M39.68,101.59l-.36.73-.34-.46.77-.19Z"/><path class="cls-1" d="M47.73,115.22C36.84,107.19,26,99.08,15.16,91c6,9.11,12.32,17.72,18.67,26.32,2.44,3.3,6.82,8.56,6.79,9.84-.06,2.39-6.2,9.05-7.09,10.29-5.92,8.17-12,16.26-18,24.39,8.52-5.15,16.38-11,24.26-16.76,3.7-2.73,7.42-7.58,11.13-7.58s7.36,4.9,11.06,7.63L86.7,163.34C78.92,151.9,70.72,141,62.56,130c-1-1.34-2.85-2.58-1.06-4.6L86.79,92.23l-1-.88-33.1,25.2C50.41,118.49,49.13,116.26,47.73,115.22Zm17.72-2.63s.07.19,0,.21a1.12,1.12,0,0,0-.31.1c-11.16,16.63-11.66,12.26.78,29.17C48.35,130.18,54.38,129.26,37.12,141l-.11.22c0,.07-.18.05-.22,0l-.08.05.07-.1a.38.38,0,0,1,.25-.35c11.64-16.47,10.38-11.66-.69-28.77,15.88,13,13.51,11.83,29.1.42l-.08.13Z"/><path class="cls-1" d="M111.31,31.59a.89.89,0,0,1-.39.46A.24.24,0,0,1,111,32,1.23,1.23,0,0,1,111.31,31.59Z"/><path class="cls-1" d="M86.57,34.76C71,23.24,55.41,11.6,39.84,0c8.57,13.07,17.68,25.43,26.8,37.78,3.49,4.72,9.79,12.28,9.74,14.1-.08,3.44-8.89,13-10.17,14.77C57.71,78.38,49,90,40.44,101.65c12.22-7.39,23.5-15.72,34.8-24.05,5.32-3.92,10.65-10.87,16-10.87s10.57,7,15.87,10.94q17.7,13.08,35.41,26.13C131.33,87.39,119.57,71.69,107.86,56c-1.43-1.92-4.09-3.7-1.52-6.6l36.28-47.6L141.18.5,93.7,36.67C90.43,39.44,88.59,36.24,86.57,34.76ZM112,31c.08,0,.11.28,0,.3a1.81,1.81,0,0,0-.43.14c-16,23.87-16.74,17.59,1.1,41.86C87.47,56.23,96.12,54.9,71.36,71.75a3,3,0,0,0-.16.31c0,.1-.26.07-.32,0l-.11.08.1-.14a.55.55,0,0,1,.36-.51c16.69-23.62,14.89-16.73-1-41.27,22.79,18.7,19.39,17,41.76.6l-.11.16Z"/><path class="cls-1" d="M27.31,45.4a.36.36,0,0,1-.15.17l0,0A.35.35,0,0,1,27.31,45.4Z"/><path class="cls-1" d="M17.86,46.61C11.89,42.21,6,37.76,0,33.33c3.27,5,6.76,9.71,10.24,14.43C11.57,49.57,14,52.45,14,53.15c0,1.31-3.4,5-3.89,5.64C6.83,63.28,3.51,67.71.23,72.17c4.67-2.83,9-6,13.3-9.19,2-1.5,4.07-4.16,6.1-4.16s4,2.69,6.06,4.18q6.76,5,13.53,10C35,66.72,30.47,60.72,26,54.71c-.55-.74-1.56-1.41-.58-2.52L39.27,34l-.55-.48L20.58,47.34C19.33,48.4,18.63,47.18,17.86,46.61Zm9.71-1.45s0,.11,0,.12l-.17,0c-6.11,9.12-6.39,6.73.43,16-9.64-6.52-6.34-7-15.8-.59l-.06.12s-.1,0-.12,0l0,0,0,0a.21.21,0,0,1,.13-.19c6.38-9,5.69-6.4-.38-15.77,8.71,7.14,7.41,6.48,16,.23l-.05.06Z"/></g></g></svg>