<svg xmlns="http://www.w3.org/2000/svg" viewBox="0 0 182.22 205.17"><defs><style>.cls-1{fill:#fbd5c0;}</style></defs><g id="Warstwa_2" data-name="Warstwa 2"><g id="Warstwa_3" data-name="Warstwa 3"><path class="cls-1" d="M176.71,124c2.26-2.8,4.44-5.74,5.51-9.28v-2c-12.35,9-24.81,17.86-37,27-8,6-7.64,6-15.75-.29-12.47-9.59-25.2-18.84-37.89-28.29-.64,1.35.33,1.8.75,2.36,10.36,13.88,20.69,27.78,31.21,41.53,1.61,2.11,1.67,3.27.06,5.36-7.44,9.67-14.79,19.42-21.93,29.31-3.48,4.82-7.73,9.13-11,15.43,15.44-11.53,30-22.28,44.4-33.28,2.17-1.66,3-1.6,5.15,0,13.92,10.5,28,20.74,42.07,31.06v-2c-.86-1.58-1.21-3.35-2.34-4.84-9.3-12.24-18.09-24.86-27.66-36.88-1-1.27-1.27-1.61-.12-3C160.94,146,168.18,134.53,176.71,124Zm-30.84,36.26a189.53,189.53,0,0,1,17,22.95,195,195,0,0,1-23.1-17.27c-1.69-1.51-2.65-1.81-4.4-.15-7.07,6.69-15.28,11.92-23.29,17.57a182.86,182.86,0,0,1,17.12-23.06c1.81-2,1.89-2.9,0-5-6.35-7-11.71-14.83-17-22.74a164.88,164.88,0,0,1,22.88,17c1.86,1.69,2.76,1.83,4.72.06,7.22-6.54,15.23-12.08,23.3-17.54-5.5,8.11-10.88,16.24-17.53,23.37C143.84,157.43,144.3,158.46,145.87,160.25Z"/><path class="cls-1" d="M84.84,58.14c-9.85-1.41-9.6-1.2-10.93-11.34-2-15.6-4.5-31.15-6.79-46.8-1.41.5-1,1.5-1.14,2.2-2.49,17.14-5,34.27-7.29,51.43-.35,2.64-1.13,3.5-3.75,3.84-12.1,1.58-24.19,3.27-36.24,5.21-5.86,1-11.91,1-18.7,3.12,19.07,2.76,37,5.47,54.92,7.86,2.71.36,3.26,1,3.63,3.65C61,94.58,63.71,111.8,66.34,129l1.4-1.4c.51-1.72,1.51-3.23,1.77-5.09,2.08-15.22,4.78-30.36,6.51-45.63.19-1.62.24-2,2-2.17,13.53-1,26.79-4,40.27-5.46,3.57-.38,7.19-.92,10.46-2.66l1.4-1.4C115.05,62.84,100,60.3,84.84,58.14ZM74.07,69.6c-2.67.09-3.07,1.14-3.23,3.52a189.15,189.15,0,0,1-4.17,28.28,194.32,194.32,0,0,1-4.12-28.54c-.13-2.27-.6-3.16-3-3.22-9.73-.27-19.23-2.38-28.89-4a182.94,182.94,0,0,1,28.42-4.2c2.71-.15,3.37-.71,3.51-3.48.49-9.46,2.22-18.77,4.09-28.09A164.71,164.71,0,0,1,70.82,58c.12,2.51.65,3.24,3.3,3.37,9.72.49,19.3,2.24,28.87,4.08C93.37,67.32,83.82,69.27,74.07,69.6Z"/><path class="cls-1" d="M57.6,152.34c-4.81-.68-4.69-.58-5.34-5.54-1-7.62-2.19-15.21-3.32-22.86-.68.25-.5.73-.55,1.08-1.21,8.37-2.45,16.74-3.56,25.12-.17,1.29-.55,1.71-1.83,1.88-5.92.77-11.82,1.59-17.71,2.54-2.86.46-5.82.49-9.13,1.52,9.31,1.36,18.06,2.68,26.83,3.84,1.32.18,1.59.49,1.77,1.79,1.18,8.43,2.52,16.84,3.81,25.26l.68-.68a16.15,16.15,0,0,0,.86-2.48c1-7.44,2.34-14.84,3.19-22.3.09-.79.11-1,1-1.06,6.61-.49,13.09-2,19.67-2.66a13.77,13.77,0,0,0,5.11-1.3l.69-.69C72.36,154.64,65,153.4,57.6,152.34Zm-6.06,5.15c-1,0-1.16.43-1.22,1.33a70.44,70.44,0,0,1-1.58,10.67,73.93,73.93,0,0,1-1.55-10.77c0-.86-.23-1.19-1.14-1.22A76.41,76.41,0,0,1,35.15,156a68,68,0,0,1,10.72-1.59c1-.06,1.28-.27,1.33-1.31a73.53,73.53,0,0,1,1.54-10.61,62.21,62.21,0,0,1,1.57,10.65c0,.95.25,1.22,1.24,1.27a77.64,77.64,0,0,1,10.91,1.54A71.27,71.27,0,0,1,51.54,157.49Z"/></g></g></svg>