<svg width="28" height="28" viewBox="0 0 28 28" fill="none" xmlns="http://www.w3.org/2000/svg">
<path d="M17.5185 4.41091C19.3704 6.30595 21.2222 8.20099 23.1111 10.1339C23.2222 10.0581 23.3333 9.98234 23.4444 9.90653C24.2963 9.33802 25.1111 8.76951 25.963 8.20099C26.0741 8.12519 26.1852 8.04939 26.2963 8.01149C26.5556 7.93569 26.7778 8.04939 26.8889 8.23889C27 8.4663 27 8.69371 26.8519 8.88321C26.7778 8.95901 26.7407 9.03481 26.6296 9.07271C25.4444 9.90653 24.2222 10.7025 23.037 11.5363C23 11.5742 22.963 11.5742 22.8889 11.6121C22.7407 11.4226 22.5556 11.2331 22.3704 11.0057C21.8148 11.5742 21.4074 12.1806 21.037 12.787C20.2963 14.0756 19.9259 15.4401 19.7778 16.9182C19.6667 18.2447 19.6296 19.5713 19.5556 20.8978C19.5556 21.1631 19.4815 21.2768 19.2222 21.3147C14.8889 22.2622 10.6667 23.6645 6.44444 25.0669C4.7037 25.6354 3 26.2418 1.2963 26.8482C1.22222 26.8861 1.11111 26.8861 1 26.924C1.22222 26.2797 1.40741 25.7112 1.59259 25.1048C3.18519 20.443 4.7037 15.7054 5.92593 10.8541C6.14815 9.98234 6.33333 9.11061 6.51852 8.23889C6.55556 8.04939 6.62963 7.97359 6.81482 7.97359C8.14815 7.89779 9.48148 7.89779 10.7778 7.74618C12.8148 7.51878 14.6667 6.83656 16.2222 5.43423C16.3333 5.32053 16.4444 5.24473 16.5556 5.09312C16.3333 4.90362 16.1481 4.71411 15.9259 4.48671C16.1111 4.2214 16.2963 3.994 16.4815 3.76659C17.1481 2.93277 17.8148 2.06105 18.4815 1.22723C18.8148 0.810323 19.2593 0.810323 19.4815 1.22723C19.6296 1.49254 19.5185 1.75785 19.3333 1.98525C18.7778 2.70537 18.2222 3.42548 17.6667 4.1077C17.6296 4.2593 17.5556 4.37301 17.5185 4.41091ZM21.4444 10.2476C20.0741 8.88321 18.7037 7.44298 17.3333 6.04064C17.3333 6.04064 17.2593 6.11645 17.2222 6.15435C15.963 7.36718 14.5185 8.16309 12.8519 8.58C11.6667 8.88321 10.4444 9.03481 9.22222 9.11061C8.66667 9.14852 8.11111 9.11061 7.55556 9.11061C6.40741 14.1514 4.85185 18.9648 3.2963 23.8162C6.03704 21.0115 8.74074 18.2826 11.4444 15.5159C10.8148 14.2272 11.3704 13.166 12.1111 12.6354C12.9259 12.029 14.0741 12.1427 14.8148 12.9007C15.5185 13.6208 15.6667 14.7957 15.1111 15.6296C14.6296 16.3876 13.6296 16.9561 12.3333 16.3876C9.62963 19.1543 6.92593 21.9211 4.22222 24.7258C8.88889 23.096 13.5926 21.5042 18.4444 20.3293C18.4444 20.2535 18.4444 20.1777 18.4444 20.1398C18.5185 19.0027 18.5556 17.8278 18.6667 16.6908C18.8148 15.1748 19.1852 13.7345 19.963 12.4459C20.4074 11.6879 20.963 10.9678 21.4444 10.2476ZM14.2593 14.3788C14.2593 13.8103 13.7778 13.3555 13.2593 13.3934C12.7037 13.3934 12.2593 13.8861 12.2963 14.4167C12.2963 14.9853 12.7778 15.4401 13.2963 15.4022C13.8148 15.4022 14.2593 14.9473 14.2593 14.3788Z" fill="#CAC9CC" stroke="#CBCBCB" stroke-width="0.3"/>
</svg>
