<?xml version="1.0" encoding="utf-8"?>
<!-- Generator: Adobe Illustrator 24.1.2, SVG Export Plug-In . SVG Version: 6.00 Build 0)  -->
<svg version="1.1" id="Warstwa_1" xmlns="http://www.w3.org/2000/svg" xmlns:xlink="http://www.w3.org/1999/xlink" x="0px" y="0px"
	 viewBox="0 0 679 1850" style="enable-background:new 0 0 679 1850;" xml:space="preserve" preserveAspectRatio="none">
<style type="text/css">
	.cls-1{fill:#C4DB76;}
</style>
  <g>
    <path class="cls-1" d="M0,0h200.4v77.9H0V0Z"/>
    <path class="cls-1" d="M0,314h106.1L0,226.3v-107.1h200.4v77.9h-122.4l122.4,107.4v87.7H0v-78.2Z"/>
    <path class="cls-1" d="M.3,437.5h200.5v77.9h-53.9v146.3h-58.6v-146.3h-24.5v165.8H.3v-243.7H.3Z"/>
    <path class="cls-1" d="M0,703.4h200.4v77.9H0v-77.9Z"/>
    <path class="cls-1" d="M106.1,1017.6L0,929.9v-107.2h200.4v77.9h-122.4l122.4,107.4v87.7H0v-78.1h106.1Z"/>
    <path class="cls-1" d="M0,1141h200.4v77.9H0v-77.9Z"/>
    <path class="cls-1" d="M200.7,1335.9v77.9H63.8v92.6H.3v-263.1h63.5v92.6h136.9Z"/>
    <path class="cls-1" d="M.3,1605v-92.6l131.9,112h68.5v77.9h-68.5L.3,1814.4v-92.5l71.9-58.5L.3,1605Z"/>
  </g>
  <g>
    <path class="cls-1" d="M232.7,0h200.4v77.9h-200.4V0Z"/>
    <path class="cls-1" d="M232.7,314.1h106.1l-106.1-87.7v-107.1h200.4v77.9h-122.4l122.4,107.3v87.7h-200.4v-78.1h0Z"/>
    <path class="cls-1" d="M233,437.5h200.4v77.9h-53.9v146.3h-58.6v-146.3h-24.4v165.8h-63.5v-243.7h0Z"/>
    <path class="cls-1" d="M232.7,703.4h200.4v77.9h-200.4v-77.9Z"/>
    <path class="cls-1" d="M338.8,1017.6l-106.1-87.7v-107.2h200.4v77.9h-122.4l122.4,107.4v87.7h-200.4v-78.1h106.1Z"/>
    <path class="cls-1" d="M232.7,1141h200.4v77.9h-200.4v-77.9Z"/>
    <path class="cls-1" d="M433.5,1335.9v77.9h-136.9v92.6h-63.5v-263.1h63.5v92.6h136.9Z"/>
    <path class="cls-1" d="M233,1605v-92.6l131.9,112.1h68.5v77.9h-68.5l-131.9,112.1v-92.4l71.9-58.6-71.9-58.5Z"/>
  </g>
  <g>
    <path class="cls-1" d="M465.4,0h200.4v77.9h-200.4V0Z"/>
    <path class="cls-1" d="M465.4,314.1h106.1l-106.1-87.7v-107.1h200.4v77.9h-122.4l122.4,107.3v87.7h-200.4v-78.1h0Z"/>
    <path class="cls-1" d="M465.7,437.5h200.5v77.9h-54v146.3h-58.6v-146.3h-24.4v165.8h-63.5v-243.7h0Z"/>
    <path class="cls-1" d="M465.4,703.4h200.4v77.9h-200.4v-77.9Z"/>
    <path class="cls-1" d="M571.5,1017.6l-106.1-87.7v-107.2h200.4v77.9h-122.4l122.4,107.4v87.7h-200.4v-78.1h106.1Z"/>
    <path class="cls-1" d="M465.4,1141h200.4v77.9h-200.4v-77.9Z"/>
    <path class="cls-1" d="M666.1,1335.9v77.9h-136.9v92.6h-63.5v-263.1h63.5v92.6h136.9,0Z"/>
    <path class="cls-1" d="M465.7,1605v-92.6l131.9,112.1h68.5v77.9h-68.5l-131.9,112.1v-92.4l71.9-58.6-71.9-58.5Z"/>
  </g>
</svg>
