<?xml version="1.0" encoding="utf-8"?>
<svg version="1.1" id="Warstwa_1" xmlns="http://www.w3.org/2000/svg" xmlns:xlink="http://www.w3.org/1999/xlink" x="0px" y="0px"
	 viewBox="0 0 2714.6 2000" style="enable-background:new 0 0 2714.6 2000;" xml:space="preserve">
<style type="text/css">
	.st0{fill:#F5F4F0;}
</style>
<g>
	<g>
		<path class="st0" d="M1840.1,1481.1c-14.7-0.3-29.4-1.3-44.2-1.7c-25-0.8-49.1-24.6-47.9-55.2c1.9-46.4,1.4-92.5-4-138.7
			s-15.5-91.1-33.6-134.1c-30.5-72.1-80-125.9-151.5-158.7c-6-2.7-12.3-5.1-19.4-8c32-23.9,61.6-50.8,88.4-80.5
			c41.2-45.8,73.7-97.1,96.8-153.9c28.9-71.1,44.1-144.7,39.1-222.3c-2.2-34.2-5.4-67.6-12.8-101.2c-10.2-46.1-26.8-90.5-49.2-131.9
			c-22.5-41.9-50.5-80.6-83.2-115.1c-28.3-29.7-58.5-56.8-92.2-80c-53.6-37-112.1-63.6-174.8-80.8c-39.1-10.7-79.1-18.6-119.5-18.6
			C821.9,0.3,411.5,0.2,1.2,0.1v1999.4h1101.1v-518.2c-14.9,0-29,0.3-43.1,0c-22.9-0.4-45.8-0.3-68.6-2c-26.6-2-46.9-25.3-46.9-51.7
			c0-62.5,0-125,0-187.5v-28.7c32.3,0,63.4,1.1,94.4-0.3c52.8-2.2,90.9,34.4,109.1,76.1c12.1,27.8,13.9,56.8,13.6,86.8
			c-1,96.7-0.4,193.5-0.3,290.2c0,13,0,26,1.7,38.8c5.8,44.4,17.1,87.3,36.8,127.9c16.4,34.1,38.1,65.5,64.3,92.9
			c24.6,25.7,53.2,46.6,86.3,60.4c19.1,7.9,38.4,15.7,59.6,15.7c155.7,0,311.4,0,467.1,0c3.1,0,6.1-0.3,8.9-0.5v-518.3
			C1869.7,1481.2,1854.9,1481.4,1840.1,1481.1z M1131.7,760.2c-21.3,29.4-50,47.3-87.9,47.2c-29.6-0.1-59.3,0-88.9,0h-11.1
			l-0.1-10.4c0-58.2-1.1-116.5,0.2-174.6c1.1-47.8,34.5-89.1,83.3-98.2c44.5-8.3,78.8,9.9,104.2,45.6
			C1171.1,625.7,1171.7,705,1131.7,760.2z"/>
	</g>
</g>
</svg>
