<svg preserveAspectRatio="none" width="1732.1" height="679" viewBox="0 0 1732.1 679" fill="none" xmlns="http://www.w3.org/2000/svg">
 <path class="cls-1" d="M1732.1,0v199.9h-74.4V0h74.4ZM1432.3,105.9L1516,0h102.3v199.9h-74.4v-122.1s-102.4,122.1-102.4,122.1h-83.7V0h74.5v105.9h0ZM1314.5,200.2h-74.4v-53.7s-139.6,0-139.6,0v-58.4h139.6s0-24.4,0-24.4h-158.2V.3h232.6v199.9h0ZM1060.6,0v199.9h-74.4V0h74.4ZM760.8,105.9L844.5,0h102.3v199.9h-74.4v-122.1s-102.5,122.1-102.5,122.1h-83.7V0h74.5v105.9s.1,0,.1,0ZM643,0v199.9h-74.4V0h74.4ZM382.6,200.2V63.7s-88.4,0-88.4,0V.3h251.2v63.4h-88.4s0,136.5,0,136.5h-74.4s0,0,0,0ZM200.1.3h88.4s-107,131.6-107,131.6v68.3h-74.4v-68.3S.1.3.1.3h88.3s56,71.7,56,71.7L200.1.3ZM1732.2,232.1v199.9h-74.4v-199.9h74.4ZM1432.3,338l83.7-105.9h102.4v199.9h-74.4v-122.1s-102.5,122.1-102.5,122.1h-83.7v-199.9h74.5v105.9h0,0ZM1314.5,432.3h-74.3v-53.7s-139.6,0-139.6,0v-58.4h139.6s0-24.4,0-24.4h-158.2v-63.4h232.5v199.9h0ZM1060.6,232.1v199.9h-74.4v-199.9h74.4ZM760.8,338l83.7-105.9h102.3v199.9h-74.4v-122.1s-102.5,122.1-102.5,122.1h-83.7v-199.9h74.5v105.9s.1,0,.1,0ZM643,232.1v199.9h-74.4v-199.9h74.4ZM382.6,432.3v-136.5s-88.5,0-88.5,0v-63.4h251.2v63.4h-88.4s0,136.5,0,136.5h-74.3s0,0,0,0ZM200,232.4h88.4s-107,131.6-107,131.6v68.3h-74.4v-68.3S0,232.4,0,232.4h88.3s55.9,71.7,55.9,71.7l55.8-71.7h0ZM1732.2,464.2v199.9h-74.4v-199.9h74.4ZM1432.3,570.1l83.7-105.9h102.4v199.9h-74.4v-122.1s-102.4,122.1-102.4,122.1h-83.7v-199.9h74.5v105.9s-.1,0-.1,0ZM1314.5,664.4h-74.3v-53.7s-139.6,0-139.6,0v-58.4h139.6s0-24.4,0-24.4h-158.2v-63.4h232.5v199.9h0ZM1060.6,464.2v199.9h-74.4v-199.9h74.4ZM760.8,570.1l83.7-105.9h102.3v199.9h-74.4v-122.1s-102.4,122.1-102.4,122.1h-83.7v-199.9h74.5s0,105.9,0,105.9ZM643,464.2v199.9h-74.4v-199.9h74.4ZM382.6,664.4v-136.5s-88.5,0-88.5,0v-63.4h251.2v63.4h-88.4s0,136.5,0,136.5h-74.3s0,0,0,0ZM200,464.5h88.4s-107,131.6-107,131.6v68.3h-74.4v-68.3S0,464.5,0,464.5h88.3s55.9,71.7,55.9,71.7l55.8-71.7h0Z"
fill="#64B9FF"/>
</svg>
